<svg width="320" height="320" viewBox="0 0 320 320" fill="none" xmlns="http://www.w3.org/2000/svg">
<path d="M61.9734 115.413C69.5728 115.413 75.7334 109.253 75.7334 101.653C75.7334 94.0539 69.5728 87.8933 61.9734 87.8933C54.3739 87.8933 48.2134 94.0539 48.2134 101.653C48.2134 109.253 54.3739 115.413 61.9734 115.413Z" fill="#F2F2F2"/>
<path d="M237.653 188.373C274.296 188.373 304 158.669 304 122.027C304 85.3843 274.296 55.6799 237.653 55.6799C201.011 55.6799 171.307 85.3843 171.307 122.027C171.307 158.669 201.011 188.373 237.653 188.373Z" fill="#ECECEC"/>
<path d="M225.111 170.998H140.426V176.064H225.111V170.998Z" fill="#EEEEEE"/>
<path d="M221.168 173.177C221.413 173.47 221.416 173.887 221.427 174.268C221.481 176.314 222.447 181.637 223.166 180.082C223.707 177.944 223.743 175.68 223.269 173.527C224.322 174.321 224.166 175.902 224.074 177.216C223.983 178.531 225.129 181.032 225.741 180.321C226.252 177.991 226.334 175.655 226.073 173.284C226.591 174.975 227.273 176.617 228.105 178.178C228.219 178.392 228.36 178.624 228.594 178.687C229.213 178.853 229.368 177.855 229.185 177.242C228.424 174.692 227.256 171.739 224.662 171.133C223.371 170.831 221.476 170.785 221.419 169.462C223.329 164.781 225.024 160.014 226.497 155.178C224.81 154.953 223.244 153.942 222.346 152.498C220.277 156.099 218.191 159.735 216.956 163.699C216.579 164.908 216.274 166.164 215.59 167.229C214.275 169.278 211.828 170.251 209.517 171.017C208.624 171.313 207.532 172.293 208.215 172.938C211.106 171.96 214.164 171.479 217.216 171.523C218.301 171.937 219.386 172.35 220.472 172.764C220.727 172.862 220.993 172.967 221.168 173.177Z" fill="#FFBEB6"/>
<path d="M166.056 168.619C165.197 167.225 174.078 167.265 178.09 166.588C180.528 166.177 183.062 165.727 185.067 164.281C186.634 163.15 187.738 161.508 188.867 159.94C189.79 158.656 190.752 157.4 191.749 156.173C192.184 155.638 192.743 155.057 193.43 155.126C194.122 155.196 194.581 155.946 194.576 156.641C194.572 157.336 194.231 157.979 193.899 158.59C192.805 160.599 191.712 162.608 190.617 164.618C190.071 165.621 189.507 166.744 189.774 167.854C190.272 169.926 194.25 170.976 194.22 172.272C194.251 173.345 189.701 171.883 187.95 170.508C187.66 170.28 187.379 170.031 187.041 169.886C186.28 169.56 185.411 169.823 184.618 170.057C179.149 171.67 173.239 171.763 167.721 170.325C167.687 169.591 168.455 169.041 169.188 168.966C169.92 168.893 170.642 169.139 171.372 169.234C172.341 169.361 173.586 169.34 174.552 169.2C177.114 168.827 178.315 168.65 180.877 168.278C175.588 168.786 166.844 169.264 166.056 168.619Z" fill="#FFBEB6"/>
<path d="M272.227 240.557C274.768 242.661 277.694 244.3 280.816 245.369C279.764 255.113 278.327 264.817 276.508 274.449C272.869 272.937 270.181 269.643 268.692 265.997C267.203 262.351 266.793 258.358 266.685 254.422C266.663 253.64 266.656 252.838 266.918 252.1C267.21 251.279 267.809 250.611 268.294 249.887C270.031 247.292 270.314 243.952 271.963 241.301C273.273 239.194 270.129 241.884 272.227 240.557Z" fill="#D62929"/>
<path d="M271.384 262.36C271.073 266.692 271.329 275.284 271.329 275.284C271.329 275.284 243.396 275.547 237.863 275.547C238.735 272.015 240.818 270.287 244.143 268.803C245.166 268.346 246.247 268.035 247.323 267.725C251.015 266.662 254.708 265.6 258.4 264.537C260.666 263.885 262.952 263.229 265.303 263.059C267.41 262.907 269.6 263.137 271.575 262.388C269.322 265.963 271.686 258.147 271.384 262.36Z" fill="#E94A47"/>
<path d="M266.773 225.786C265.636 224.384 264.046 223.178 262.633 222.11C260.388 220.412 260.924 219.092 259.471 216.582C258.421 214.768 256.082 212.913 254.932 211.172C254.623 210.704 254.384 210.132 254.477 209.569C254.553 209.111 254.835 208.731 255.104 208.37C262.494 198.466 267.44 186.68 271.421 174.681C272.767 170.624 274.029 166.329 273.392 162.054C272.259 154.45 265.679 149.376 259.667 145.2C258.463 149.875 254.798 153.2 252.006 156.985C249.214 160.771 247.24 166.313 249.777 170.36C246.243 182.421 242.873 194.54 239.669 206.711C239.09 208.912 238.51 211.201 238.848 213.469C239.17 215.636 240.296 217.557 241.395 219.409C244.227 224.175 247.057 228.942 249.889 233.708C254.404 241.31 258.948 248.972 262.037 257.355C264.516 252.772 267.698 248.64 271.415 245.177C269.059 240.264 267.735 234.784 267.576 229.272C267.54 228.052 267.521 226.708 266.773 225.786Z" fill="#151A4F"/>
<path d="M275.809 242.642C276.262 240.578 277.37 234.469 277.654 232.376C278.426 226.671 275.889 222.009 275.019 216.318C274.487 212.839 274.396 210.973 274.425 207.454C274.468 202.36 275.24 200.879 275.282 195.786C275.319 191.404 274.978 181.398 275.809 177.096C276.839 171.769 278.725 168.626 278.887 163.203C279.13 155.072 274.188 147.015 266.825 143.539C261.763 146.201 256.493 154.579 251.039 156.3C256.227 172.217 253.631 183.366 255.724 199.975C256.104 202.985 256.643 205.995 257.694 208.841C258.4 210.754 259.333 212.578 260.02 214.497C261.392 218.328 261.755 222.44 261.959 226.504C262.593 239.139 261.799 251.846 259.597 264.304C263.63 264.228 267.675 264.828 271.512 266.073C280.553 253.962 273.985 250.966 275.809 242.642Z" fill="url(#paint0_linear_23:1235)"/>
<path d="M229.945 106.064C225.535 106.752 221.125 107.44 216.714 108.129C215.799 108.272 214.871 108.418 214.027 108.776C211.571 109.818 207.415 115.939 206.505 118.306C203.643 125.739 202.402 128.591 200.18 135.153C196.571 145.811 193.748 154.794 186.016 163.408C193.073 163.874 192.533 166.889 199.478 168.146C197.721 159.722 209.676 143.856 215.289 130.591C216.784 127.057 217.744 120.005 220.977 117.681C221.986 116.956 226.62 116.253 227.589 115.482C230.408 113.237 231.41 109.234 229.945 106.064Z" fill="#81AEF2"/>
<path d="M236.014 106.619C239.133 108.508 238.996 110.794 241.632 113.314C245.592 117.101 248.79 120.647 253.019 124.133C256.129 126.698 258.695 129.854 261.109 133.082C264.784 137.996 270.56 137.904 273.613 143.226C267.632 148.213 258.143 157.094 250.608 159.068C250.928 156.43 249.363 153.861 247.299 152.183C245.236 150.505 242.711 149.524 240.294 148.411C232.527 144.835 224.29 140.074 220.846 132.255C215.199 119.436 211.645 116.462 214.743 108.498C215.289 107.095 219.177 104.848 220.592 104.33C221.63 103.95 221.814 102.582 222.898 102.802C225.652 103.36 233.611 105.164 236.014 106.619Z" fill="url(#paint1_linear_23:1235)"/>
<path d="M231.953 139.485C231.502 139.344 231.16 139.889 231.001 140.333C227.652 149.703 224.302 159.072 220.953 168.442" stroke="black" stroke-width="2.46918" stroke-miterlimit="10"/>
<path d="M211.652 102.865C212.482 102.334 213.629 102.634 214.38 103.272C215.13 103.909 215.555 104.859 216.055 105.707C217.427 108.032 216.604 107.123 218.735 108.783C221.016 107.928 224.57 105.658 226.319 103.086C223.002 99.9044 222.164 98.2665 220.422 94.0146C218.539 97.7948 215.417 100.946 211.652 102.865Z" fill="#F2A19C"/>
<path d="M214.211 87.4639C212.508 90.4016 210.805 93.3394 209.102 96.2771C208.231 97.7786 207.354 99.6613 208.244 101.151C209.158 102.678 211.303 102.758 213.08 102.655C214.391 102.579 216.136 102.036 216.008 100.73" stroke="black" stroke-width="2.46918" stroke-miterlimit="10"/>
<path d="M213.015 96.6609C213.409 95.6643 213.362 94.5587 213.42 93.4889C213.477 92.419 213.684 91.2761 214.444 90.52C215.203 89.764 216.671 89.665 217.247 90.569C217.426 92.4006 217.046 94.2828 216.169 95.9012C215.835 96.5172 215.391 97.1284 214.735 97.3769C214.079 97.6244 213.188 97.3395 213.015 96.6609Z" stroke="black" stroke-width="2.46918" stroke-miterlimit="10"/>
<path d="M218.189 101.027C219.528 99.6245 220.867 98.223 222.207 96.821C223.108 95.8776 224.027 94.9088 224.558 93.7174C225.577 91.4357 224.902 88.5595 223.082 86.8463C221.262 85.1332 218.457 84.6135 216.085 85.4038C212.643 86.5499 209.953 90.7344 207.429 93.3378C206.644 94.3355 208.607 95.0268 208.156 96.2982C207.615 97.825 207.206 99.4845 207.611 101.052C208.016 102.62 208.998 103.882 211.092 103.832C211.732 103.817 212.881 103.719 213.492 103.526C214.78 103.119 215.659 102.917 216.818 102.224C217.341 101.912 217.768 101.467 218.189 101.027Z" fill="#FFBEB6"/>
<path d="M213.472 95.1003C213.104 95.1003 212.749 95.0272 212.416 94.8834C210.89 94.2253 210.27 92.2558 211.032 90.4926C211.607 89.1648 212.849 88.2725 214.125 88.2725C214.492 88.2725 214.848 88.3451 215.181 88.4894C216.706 89.1475 217.327 91.1175 216.564 92.8802C215.99 94.208 214.747 95.1003 213.472 95.1003ZM214.125 88.7989C213.057 88.7989 212.008 89.5634 211.516 90.7011C210.869 92.1979 211.366 93.8573 212.625 94.4001C212.892 94.5154 213.177 94.5739 213.472 94.5739C214.54 94.5739 215.589 93.8094 216.081 92.6712C216.728 91.1744 216.23 89.5155 214.972 88.9721C214.705 88.8574 214.42 88.7989 214.125 88.7989Z" fill="#23286B"/>
<path d="M217.367 114.936C217.367 114.936 216.969 111.497 216.702 109.898C217.934 110.226 219.231 110.314 220.497 110.155C219.481 112.08 219.309 113.082 218.906 115.22C218.333 114.957 217.367 114.936 217.367 114.936Z" fill="#23286B"/>
<path d="M218.869 114.977C218.316 115.135 217.673 114.885 217.372 114.396C216.531 117.912 217.613 121.562 217.92 125.164C218.314 129.779 217.424 134.395 217.139 139.018C216.855 143.641 217.265 148.563 219.914 152.364C219.586 144.478 219.941 136.563 220.974 128.737C221.14 127.479 221.324 126.208 221.199 124.945C220.863 121.515 218.293 118.375 218.869 114.977Z" fill="#151A4F"/>
<path d="M229.855 104.34C228.372 103.884 226.247 102.678 224.951 101.605C223.546 104.617 221.842 107.484 218.735 108.669C219.538 111.599 220.193 114.676 220.023 117.709C223.123 114.196 225.121 112.853 227.802 109.011C229.114 107.131 230.436 104.518 229.855 104.34Z" fill="#EEEEEE"/>
<path d="M223.263 98.5883C223.159 98.5883 223.06 98.5262 223.018 98.4235C222.964 98.2887 223.029 98.1355 223.164 98.0808C228.053 96.1033 232.432 89.3354 232.535 83.5974C232.537 83.4521 232.663 83.3536 232.803 83.3389C232.948 83.3415 233.064 83.4615 233.062 83.6068C232.956 89.5302 228.423 96.5224 223.361 98.5688C223.329 98.5825 223.296 98.5883 223.263 98.5883Z" fill="#428DFC"/>
<path d="M241.289 116.902C241.509 112.762 238.152 105.807 233.91 106.284C229.048 106.832 229.397 109.232 228.699 113.994C227.845 119.821 226.044 131.93 224.423 138.663C221.75 149.766 219.482 155.598 216.32 165.776C219.924 169.21 222.904 168.913 226.997 171.789C228.518 165.466 229.342 165.689 231.45 153.755C232.219 149.402 234.526 137.307 235.667 133.047C237.817 125.021 240.847 125.191 241.289 116.902Z" fill="url(#paint2_linear_23:1235)"/>
<path d="M207.88 92.994C207.749 92.994 207.623 92.9687 207.507 92.9187C206.673 92.5586 206.57 91.0734 207.265 89.464C207.939 87.9056 209.142 86.9243 209.95 87.2723C210.784 87.6324 210.888 89.1176 210.192 90.727C209.614 92.0616 208.664 92.994 207.88 92.994ZM209.577 87.7235C209.1 87.7235 208.297 88.4068 207.749 89.673C207.153 91.0524 207.253 92.2359 207.716 92.4359C208.168 92.6297 209.091 91.9426 209.708 90.5185C210.304 89.1397 210.203 87.9556 209.74 87.7556C209.691 87.734 209.637 87.7235 209.577 87.7235Z" fill="#23286B"/>
<path d="M218.792 108.726C218.792 108.726 215.14 113.689 214.857 116.188C214.773 113.302 214.116 111.233 214.572 108.555C215.395 107.129 215.29 107.132 216.112 105.707C216.707 107.513 218.792 108.726 218.792 108.726Z" fill="#EEEEEE"/>
<path d="M230.839 83.3767H212.338C210.011 85.6085 211.32 86.9494 211.495 88.7068C212.504 87.2211 216.683 87.7628 218.054 89.0253C219.424 90.2878 219.453 92.291 218.621 93.8536C219.573 93.2203 221.083 94.0047 221.344 95.004C221.605 96.0033 221.057 97.013 220.524 97.9317C220.306 98.3061 220.089 98.6809 219.871 99.0552C221.27 99.3459 222.772 98.9289 223.934 98.2108C225.096 97.4927 225.976 96.5008 226.807 95.5073C229.479 92.3137 231.943 88.5925 231.338 84.7155C231.313 84.5518 230.993 83.4541 230.839 83.3767Z" fill="#428DFC"/>
<path d="M269.267 260.81L268.807 260.554C270.281 257.915 271.093 254.925 271.157 251.904C271.19 250.31 271.015 248.686 270.846 247.115C270.659 245.379 270.465 243.583 270.549 241.802C270.66 239.419 271.263 237.074 271.848 234.807C272.391 232.695 272.954 230.513 273.108 228.321C273.387 224.35 272.338 220.377 271.322 216.536C271.082 215.627 270.843 214.721 270.62 213.814C268.795 206.389 268.077 198.754 268.484 191.122C268.683 187.391 269.154 183.577 269.61 179.89C270.7 171.075 271.826 161.962 269.272 153.436L269.776 153.285C272.363 161.917 271.229 171.086 270.133 179.954C269.678 183.633 269.208 187.438 269.01 191.15C268.606 198.731 269.32 206.315 271.131 213.69C271.354 214.593 271.592 215.497 271.831 216.402C272.857 220.285 273.919 224.3 273.633 228.359C273.476 230.597 272.907 232.804 272.357 234.939C271.78 237.18 271.183 239.498 271.074 241.827C270.994 243.568 271.185 245.343 271.37 247.059C271.541 248.647 271.718 250.288 271.684 251.916C271.618 255.021 270.782 258.097 269.267 260.81Z" fill="#428DFC"/>
<path opacity="0.86" d="M252.08 135.522C252.042 135.439 251.92 135.394 251.837 135.432C251.754 135.47 251.708 135.592 251.747 135.674C251.785 135.758 251.907 135.802 251.99 135.764C252.074 135.726 252.137 135.646 252.08 135.522ZM243.067 120.337C243.111 120.216 243.074 120.133 242.952 120.087C242.872 120.023 242.747 120.081 242.683 120.16C242.638 120.281 242.676 120.364 242.798 120.41C242.919 120.455 243.002 120.417 243.067 120.337ZM241.253 124.489C241.297 124.368 241.259 124.285 241.138 124.239C241.017 124.194 240.933 124.232 240.888 124.354C240.824 124.434 240.881 124.557 241.003 124.603C241.106 124.606 241.23 124.549 241.253 124.489ZM249.68 127.366C249.6 127.301 249.499 127.298 249.434 127.378C249.37 127.458 249.367 127.559 249.447 127.623C249.527 127.688 249.629 127.691 249.693 127.611C249.776 127.573 249.761 127.43 249.68 127.366ZM246.446 130.509C246.365 130.445 246.264 130.442 246.199 130.521C246.135 130.601 246.132 130.703 246.212 130.767C246.292 130.831 246.393 130.834 246.458 130.755C246.522 130.675 246.525 130.573 246.446 130.509ZM233.907 120.461C233.91 120.359 233.83 120.295 233.728 120.292C233.626 120.289 233.562 120.369 233.559 120.471C233.555 120.573 233.635 120.637 233.696 120.659C233.839 120.643 233.903 120.563 233.907 120.461ZM252.708 130.656C252.67 130.573 252.568 130.57 252.485 130.608C252.402 130.645 252.399 130.748 252.437 130.83C252.475 130.913 252.578 130.917 252.66 130.879C252.724 130.8 252.747 130.739 252.708 130.656ZM249.535 133.168C249.497 133.085 249.394 133.081 249.312 133.119C249.229 133.157 249.226 133.26 249.264 133.342C249.302 133.425 249.404 133.428 249.487 133.391C249.611 133.334 249.615 133.232 249.535 133.168ZM237.875 122.516C237.879 122.413 237.799 122.35 237.738 122.327C237.636 122.323 237.553 122.362 237.55 122.464C237.546 122.566 237.584 122.649 237.687 122.652C237.747 122.675 237.831 122.636 237.875 122.516ZM251.065 140.314C251.028 140.231 250.947 140.167 250.865 140.205C250.781 140.243 250.718 140.323 250.756 140.405C250.794 140.489 250.874 140.552 250.956 140.514C251.039 140.476 251.103 140.396 251.065 140.314ZM245.406 127.162C245.47 127.082 245.413 126.958 245.352 126.935C245.272 126.871 245.19 126.909 245.125 126.989C245.061 127.069 245.099 127.151 245.179 127.215C245.259 127.28 245.384 127.222 245.406 127.162ZM243.449 130.675C243.514 130.595 243.475 130.513 243.396 130.449C243.315 130.384 243.233 130.423 243.168 130.502C243.104 130.582 243.143 130.665 243.222 130.729C243.302 130.793 243.386 130.755 243.449 130.675ZM251.498 138.304C251.479 138.263 251.377 138.259 251.335 138.278C251.294 138.297 251.291 138.399 251.31 138.441C251.329 138.483 251.431 138.486 251.472 138.467C251.556 138.428 251.537 138.387 251.498 138.304ZM241.58 132.74C241.603 132.679 241.542 132.657 241.481 132.635C241.42 132.612 241.356 132.692 241.376 132.733C241.354 132.795 241.433 132.858 241.475 132.839C241.535 132.86 241.558 132.8 241.58 132.74ZM252.747 144.07C252.727 144.029 252.648 143.965 252.606 143.984C252.564 144.003 252.501 144.083 252.52 144.124C252.539 144.166 252.619 144.23 252.66 144.211C252.743 144.172 252.766 144.111 252.747 144.07ZM254.231 126.638C254.295 126.558 254.238 126.434 254.158 126.369C254.078 126.305 253.953 126.363 253.889 126.442C253.825 126.522 253.882 126.646 253.962 126.711C254.042 126.775 254.167 126.718 254.231 126.638ZM251.989 130.734C252.053 130.654 251.996 130.531 251.916 130.466C251.835 130.402 251.711 130.459 251.647 130.539C251.583 130.619 251.64 130.742 251.72 130.807C251.842 130.852 251.925 130.814 251.989 130.734ZM249.788 134.811C249.853 134.731 249.795 134.608 249.715 134.543C249.635 134.479 249.511 134.536 249.446 134.616C249.382 134.696 249.44 134.819 249.52 134.884C249.6 134.949 249.725 134.892 249.788 134.811ZM253.118 140.177C253.038 140.113 252.917 140.068 252.853 140.148C252.788 140.228 252.744 140.348 252.824 140.412C252.904 140.476 253.024 140.521 253.089 140.442C253.153 140.363 253.198 140.241 253.118 140.177ZM244.775 125.792C244.778 125.69 244.679 125.584 244.577 125.581C244.474 125.577 244.368 125.676 244.366 125.778C244.362 125.88 244.42 126.005 244.522 126.008C244.666 125.992 244.729 125.913 244.775 125.792ZM244.297 130.438C244.3 130.335 244.243 130.211 244.099 130.226C243.996 130.223 243.932 130.303 243.868 130.382C243.865 130.484 243.922 130.609 244.025 130.612C244.189 130.638 244.252 130.559 244.297 130.438ZM253.501 143.523C253.421 143.458 253.301 143.414 253.236 143.493C253.172 143.573 253.127 143.694 253.207 143.757C253.245 143.841 253.367 143.885 253.472 143.787C253.556 143.75 253.601 143.628 253.501 143.523ZM247.943 125.345C247.947 125.243 247.89 125.118 247.787 125.115C247.684 125.112 247.56 125.169 247.556 125.271C247.553 125.373 247.591 125.455 247.713 125.501C247.815 125.504 247.94 125.448 247.943 125.345ZM247.242 129.943C247.246 129.841 247.189 129.716 247.086 129.713C246.984 129.709 246.9 129.748 246.856 129.869C246.852 129.971 246.909 130.096 247.012 130.099C247.155 130.083 247.239 130.045 247.242 129.943ZM246.582 134.521C246.586 134.419 246.528 134.294 246.425 134.291C246.323 134.287 246.198 134.345 246.195 134.447C246.191 134.549 246.249 134.674 246.352 134.677C246.473 134.722 246.579 134.623 246.582 134.521ZM253.798 134.986C253.862 134.906 253.805 134.783 253.725 134.718C253.645 134.654 253.52 134.711 253.456 134.79C253.392 134.87 253.449 134.994 253.529 135.059C253.65 135.104 253.733 135.066 253.798 134.986ZM251.415 138.996C251.48 138.916 251.422 138.793 251.342 138.728C251.262 138.664 251.138 138.721 251.073 138.801C251.009 138.881 251.067 139.004 251.147 139.069C251.268 139.114 251.351 139.076 251.415 138.996ZM245.161 132.858C245.165 132.756 245.104 132.733 245.001 132.731C244.899 132.727 244.877 132.788 244.873 132.89C244.869 132.993 244.93 133.015 245.033 133.018C245.116 132.98 245.158 132.96 245.161 132.858ZM252.055 135.684C252.077 135.623 252.039 135.541 251.978 135.519C251.917 135.496 251.834 135.534 251.812 135.595C251.79 135.656 251.828 135.739 251.889 135.761C251.949 135.783 252.032 135.745 252.055 135.684ZM250.904 138.979C250.926 138.918 250.888 138.835 250.808 138.772C250.747 138.749 250.664 138.787 250.642 138.848C250.62 138.909 250.658 138.992 250.719 139.013C250.817 139.12 250.9 139.081 250.904 138.979Z" fill="white"/>
<path d="M79.5994 173.227L79.5732 280.746L82.2652 280.747L82.291 175.936H220.404V280.747H222.933V175.936V173.68V173.227H79.5994Z" fill="url(#paint3_linear_23:1235)"/>
<path d="M153.6 242.773C164.557 242.773 173.44 233.891 173.44 222.933C173.44 211.976 164.557 203.093 153.6 203.093C142.643 203.093 133.76 211.976 133.76 222.933C133.76 233.891 142.643 242.773 153.6 242.773Z" fill="#F4F4F4"/>
<path d="M129.593 89.3944L103.893 87.0026C105.602 85.3025 106.53 81.48 106.814 75.9132V71.5645H129.593V89.3944Z" fill="url(#paint4_linear_23:1235)"/>
<path d="M129.593 71.5645H106.814V75.4784H129.593V71.5645Z" fill="#C2D8FD"/>
<path d="M139.774 112.853L115.556 106.103C117.489 104.722 119.039 101.116 120.277 95.6835L121.031 91.4014L142.864 95.2969L139.774 112.853Z" fill="url(#paint5_linear_23:1235)"/>
<path d="M121.031 91.4031L142.865 95.2988L142.187 99.1527L120.353 95.257L121.031 91.4031Z" fill="#C2D8FD"/>
<path d="M156.374 73.7387C150.969 76.2048 146.015 82.147 133.402 81.8378C132.185 77.6931 131.726 73.8063 131.093 68.2692L130.388 63.9787L152.031 60.3733L152.819 65.1672C152.472 69.1185 153.426 72.1408 156.374 73.7387Z" fill="url(#paint6_linear_23:1235)"/>
<path d="M130.388 63.9798L152.031 60.3752L152.666 64.2367L131.023 67.8413L130.388 63.9798Z" fill="#A1C3FC"/>
<path d="M122.331 78.8956C121.642 78.8956 121.172 78.3619 120.887 77.9072L120.331 78.4295C120.236 78.5183 120.107 78.5597 119.979 78.5425C119.851 78.525 119.737 78.4509 119.669 78.3401C119.341 77.8059 118.903 77.199 118.383 77.2248C118.131 77.2384 117.871 77.4072 117.596 77.5856C117.254 77.8077 116.866 78.0592 116.384 78.084C116.159 78.0932 115.967 77.9347 115.935 77.7131L115.843 77.0839C115.737 77.1624 115.625 77.2288 115.51 77.2808C114.943 77.5384 114.315 77.5212 113.809 77.5067L108.691 77.3638C108.452 77.3573 108.264 77.1572 108.271 76.9168C108.277 76.6767 108.47 76.4873 108.715 76.4943L113.834 76.6372C114.272 76.6496 114.769 76.6633 115.155 76.488C115.42 76.3675 115.672 76.0835 115.657 75.8124L115.644 75.7262C115.61 75.4938 115.765 75.2761 115.995 75.2345C116.224 75.1936 116.445 75.3429 116.494 75.5727C116.504 75.6225 116.512 75.672 116.516 75.7211L116.719 77.1003C116.852 77.0338 116.988 76.9452 117.128 76.8543C117.47 76.633 117.856 76.3822 118.336 76.3559C119.12 76.3129 119.685 76.8484 120.114 77.4435L120.706 76.8875C120.806 76.7932 120.945 76.7527 121.08 76.7781C121.215 76.8035 121.33 76.8921 121.39 77.0166C121.72 77.7072 122.027 78.0336 122.35 78.0248C122.497 78.0191 122.671 77.9339 122.84 77.8514L124.468 77.0541C124.683 76.9494 124.941 77.0388 125.046 77.255C125.15 77.4712 125.061 77.7311 124.846 77.8363L123.217 78.6336C122.991 78.7438 122.71 78.8813 122.383 78.8939C122.366 78.8949 122.348 78.8956 122.331 78.8956Z" fill="#E94A47"/>
<path d="M120.665 85.4135C120.615 85.4135 120.565 85.4049 120.516 85.387C118.91 84.7959 117.527 83.5849 116.723 82.0649C116.657 81.9391 116.569 81.7735 116.51 81.75C116.493 81.7428 116.395 81.7237 116.078 81.9882L113.744 83.9333C113.619 84.0375 113.327 84.2827 112.953 84.2075C112.526 84.1219 112.36 83.7014 112.297 83.5433L111.615 81.8127C110.535 82.3459 109.61 83.2314 109.038 84.2921C108.924 84.5031 108.662 84.5818 108.453 84.467C108.243 84.3523 108.165 84.0885 108.279 83.8773C109.014 82.513 110.258 81.4015 111.691 80.8282C111.797 80.7854 111.916 80.7873 112.021 80.833C112.126 80.8788 112.209 80.9647 112.251 81.0717L113.1 83.2223C113.114 83.2587 113.127 83.2868 113.137 83.3086C113.153 83.2967 113.171 83.282 113.193 83.2637L115.526 81.3186C115.724 81.1532 116.252 80.7138 116.825 80.9407C117.182 81.0816 117.353 81.4047 117.477 81.6408C118.116 82.8474 119.153 83.8246 120.373 84.3885C120.578 83.7008 120.871 83.0448 121.248 82.4326C121.374 82.2286 121.64 82.166 121.843 82.2926C122.046 82.4194 122.108 82.6875 121.982 82.8915C121.565 83.567 121.264 84.3026 121.085 85.0774C121.057 85.1987 120.979 85.3022 120.87 85.3616C120.807 85.3959 120.736 85.4135 120.665 85.4135Z" fill="#E94A47"/>
<path d="M143.115 73.7427C142.309 73.7427 141.705 73.028 141.56 72.2901C140.746 72.5468 139.91 72.7536 139.041 72.8222C137.391 72.9518 135.922 72.526 134.902 71.6228C134.723 71.4643 134.706 71.1893 134.863 71.0089C135.021 70.8286 135.294 70.811 135.473 70.9697C136.304 71.7057 137.579 72.0651 138.973 71.9548C139.85 71.8858 140.715 71.6551 141.562 71.3755C141.638 70.9204 141.805 70.4951 141.949 70.1271C142.011 69.9707 142.156 69.864 142.323 69.8529C142.491 69.8416 142.648 69.9285 142.729 70.0754L143.318 71.1412C143.38 71.2527 143.39 71.386 143.345 71.5056C143.301 71.6253 143.206 71.7189 143.087 71.7619C142.857 71.8451 142.625 71.929 142.392 72.0109C142.394 72.0279 142.396 72.0449 142.398 72.0615C142.452 72.4706 142.793 72.9043 143.162 72.8709C143.439 72.8464 143.706 72.5878 143.952 72.3121C144.711 71.4636 145.38 70.5301 145.94 69.5382C146.034 69.3726 146.224 69.2874 146.409 69.3285C146.595 69.3699 146.731 69.528 146.747 69.7181C146.755 69.8181 146.814 69.906 146.922 69.9791C147.102 70.1004 147.37 70.1397 147.573 70.0744C148.003 69.9356 148.342 69.5315 148.709 69.0565C148.856 68.8669 149.127 68.8329 149.316 68.9803C149.504 69.1276 149.538 69.401 149.391 69.5907C149.039 70.0467 148.556 70.671 147.836 70.9027C147.379 71.0505 146.844 70.9733 146.442 70.7016C146.397 70.6712 146.354 70.6386 146.313 70.6044C145.807 71.4151 145.231 72.1828 144.595 72.894C144.23 73.3017 143.813 73.6865 143.238 73.7373C143.196 73.7406 143.155 73.7427 143.115 73.7427Z" fill="#23286B"/>
<path d="M124.139 104.264C124.116 104.264 124.092 104.262 124.068 104.258C123.886 104.228 123.744 104.084 123.713 103.901C123.429 102.199 123.306 100.471 123.344 98.7464C122.717 99.8953 122.317 101.193 121.951 102.377C121.881 102.606 121.638 102.735 121.411 102.663C121.183 102.592 121.056 102.348 121.126 102.118C121.657 100.398 122.259 98.4479 123.524 96.9342C123.645 96.7894 123.845 96.7402 124.019 96.8118C124.192 96.8838 124.3 97.0606 124.285 97.2489C124.147 98.986 124.18 100.735 124.382 102.465L125.696 100.024C125.779 99.8699 125.946 99.7786 126.119 99.799C126.293 99.8166 126.439 99.9377 126.489 100.106C126.581 100.414 126.857 100.663 127.227 100.773C127.597 100.883 127.963 100.823 128.206 100.615C128.319 100.519 128.471 100.486 128.612 100.53C128.753 100.573 128.862 100.686 128.902 100.829L129.429 102.725C129.598 102.617 129.825 102.64 129.97 102.791C130.135 102.963 130.131 103.239 129.959 103.405L129.505 103.847C129.395 103.953 129.238 103.995 129.091 103.954C128.945 103.913 128.83 103.798 128.789 103.651L128.217 101.591C127.839 101.723 127.407 101.732 126.983 101.607C126.638 101.505 126.337 101.325 126.104 101.091L124.519 104.036C124.442 104.178 124.295 104.264 124.139 104.264Z" fill="#23286B"/>
<path d="M135.149 105.8C135.133 105.8 135.117 105.799 135.101 105.797C134.924 105.778 134.778 105.651 134.732 105.479L133.771 101.913C133.709 101.681 133.845 101.442 134.075 101.38C134.306 101.318 134.543 101.454 134.605 101.685L135.279 104.188L137.728 99.5285C137.84 99.3163 138.101 99.235 138.312 99.3475C138.523 99.4601 138.603 99.7231 138.492 99.9353L135.531 105.569C135.455 105.712 135.307 105.8 135.149 105.8Z" fill="#23286B"/>
<path d="M153.813 169.916H120.941V174.72H153.813V169.916Z" fill="#89B3F4"/>
<path d="M80.8533 140.8H121.704L131.122 174.72H90.2715L80.8533 140.8Z" fill="#A1C3FC"/>
<path d="M104.767 161.854C106.705 161.854 108.275 160.282 108.275 158.344C108.275 156.405 106.705 154.833 104.767 154.833C102.829 154.833 101.258 156.405 101.258 158.344C101.258 160.282 102.829 161.854 104.767 161.854Z" fill="#89B3F4"/>
<path d="M47.62 188.344C47.6995 188.248 47.7791 188.153 47.8586 188.058C47.8059 188.054 47.7526 188.054 47.6995 188.051C48.4596 184.945 46.9631 181.656 44.853 179.235C43.9175 178.162 42.8112 177.17 41.4524 176.745C40.0343 176.302 38.4953 176.523 37.0551 176.888C32.8527 177.955 28.9675 180.243 25.9973 183.402C25.0324 184.428 24.1076 185.747 24.3817 187.128C24.688 188.672 26.4279 190.075 25.7152 191.477C24.9801 192.922 22.4737 192.397 21.5734 193.746C20.1859 195.823 24.4836 198.315 23.3804 200.557C22.8146 201.706 21.2562 201.802 20.0831 202.315C17.8327 203.3 16.9311 206.507 18.3393 208.52C19.5923 210.31 22.3667 211.583 21.8431 213.705C21.6594 214.449 21.076 215.015 20.5396 215.562C18.7761 217.358 17.2282 219.439 16.4691 221.839C15.7097 224.238 15.8222 226.995 17.1803 229.115C17.8761 230.2 18.8559 231.071 19.8559 231.885C24.8392 235.945 26.7695 240.21 30.7677 245.242C33.2664 248.386 38.8215 268.531 40.1803 274.198C41.2109 265.95 43.584 241.42 44.5814 240.059C45.5785 238.698 46.0973 236.784 45.2491 235.326C44.6306 234.263 43.4517 233.688 42.4473 232.977C41.4432 232.267 40.4946 231.149 40.7365 229.943C40.848 229.386 41.201 228.911 41.5601 228.471C42.7022 227.074 44.029 225.798 44.8603 224.196C45.6916 222.595 45.9293 220.517 44.8648 219.059C43.8661 217.692 41.9463 217.091 40.4483 216.252C41.7269 215.272 43.6032 214.603 44.6664 213.338C45.4775 212.373 45.7743 210.999 45.4338 209.786C45.0747 208.505 44.1038 207.516 43.3259 206.428C43.4862 205.797 43.4386 205.162 43.0632 204.589C42.8639 204.285 42.5958 204.045 42.2891 203.843C42.2479 203.202 42.3917 202.584 42.8169 202.094C43.4651 201.346 44.5616 201.146 45.2798 200.465C46.4184 199.385 46.0341 197.173 44.5983 196.54C43.7722 196.176 42.554 196.082 42.4198 195.189C42.4042 195.085 42.4102 194.984 42.4281 194.885C44.5562 192.91 46.8309 191.05 47.62 188.344Z" fill="url(#paint7_linear_23:1235)"/>
<path d="M58.6893 235.608C58.0996 234.132 56.7296 232.994 56.4552 231.428C56.0571 229.154 58.058 227.275 59.3458 225.36C61.287 222.473 61.7343 218.637 60.5094 215.382C59.2845 212.127 56.4197 209.536 53.0572 208.644C50.918 208.077 48.5615 208.138 46.66 207.005C44.0703 205.463 42.0035 201.763 39.1618 202.768C37.1749 203.471 36.7082 206.176 37.365 208.179C38.0219 210.181 39.4231 211.881 40.0365 213.896C41.2093 217.749 39.3241 221.777 37.8254 225.515C36.3267 229.252 35.2967 233.867 37.797 237.023C39.0161 238.563 40.9668 239.564 41.6742 241.396C42.6367 243.887 40.8787 246.498 40.0138 249.025C38.404 253.727 40.2422 259.387 44.3083 262.247C44.446 256.263 47.2321 250.389 51.7793 246.495C53.538 244.989 55.5527 243.758 57.0699 242.009C58.5874 240.259 59.5481 237.759 58.6893 235.608Z" fill="url(#paint8_linear_23:1235)"/>
<path d="M37.8904 271.346C37.8776 271.346 37.8648 271.345 37.8524 271.343C37.7038 271.322 37.6003 271.185 37.6214 271.037C38.9153 261.851 40.8641 253.231 43.4139 245.416C43.4602 245.273 43.6142 245.196 43.7564 245.242C43.8988 245.288 43.9768 245.441 43.9301 245.584C41.3896 253.369 39.4482 261.958 38.1587 271.112C38.1396 271.248 38.0233 271.346 37.8904 271.346Z" fill="#23286B"/>
<path d="M40.4905 241.748C41.2697 240.601 43.3987 240.688 45.2453 241.943C47.0922 243.197 47.9577 245.144 47.1785 246.291C46.3993 247.438 44.2703 247.35 42.4237 246.096C40.5768 244.842 39.7113 242.895 40.4905 241.748Z" fill="#C6DDFE"/>
<path d="M44.253 244.034C44.2239 244.034 44.1942 244.029 44.1648 244.019C44.0229 243.971 43.9475 243.816 43.9958 243.674C45.3066 239.849 46.7947 236.133 48.418 232.629C48.4809 232.493 48.6426 232.434 48.7784 232.496C48.9142 232.559 48.9739 232.721 48.911 232.856C47.295 236.343 45.8143 240.042 44.5095 243.849C44.4712 243.963 44.3657 244.034 44.253 244.034Z" fill="#23286B"/>
<path d="M44.292 227.904C45.0712 226.757 47.9625 227.362 50.75 229.255C53.5374 231.148 55.1652 233.613 54.3859 234.76C53.6067 235.907 50.7154 235.302 47.928 233.409C45.1408 231.516 43.5128 229.051 44.292 227.904Z" fill="#C6DDFE"/>
<path d="M49.2353 231.804C49.1957 231.804 49.1561 231.795 49.1181 231.777C48.9829 231.713 48.9261 231.551 48.9903 231.415C49.482 230.389 49.9928 229.365 50.5088 228.372C51.9269 225.642 53.4796 222.97 55.1246 220.428C55.2058 220.302 55.3741 220.266 55.5 220.347C55.6259 220.429 55.662 220.596 55.5805 220.722C53.9454 223.25 52.401 225.908 50.9905 228.621C50.4771 229.61 49.9688 230.628 49.4797 231.649C49.4337 231.747 49.3363 231.804 49.2353 231.804Z" fill="#23286B"/>
<path d="M50.754 214.51C51.6757 213.592 54.5936 215.025 57.2714 217.712C59.9493 220.398 61.3729 223.32 60.4515 224.238C59.5298 225.156 56.612 223.723 53.9341 221.037C51.2563 218.35 49.8327 215.428 50.754 214.51Z" fill="#C6DDFE"/>
<path d="M56.2078 219.548C56.1557 219.548 56.1033 219.533 56.0567 219.502C55.9321 219.418 55.8988 219.25 55.9822 219.125C58.1841 215.843 60.5866 212.719 63.1223 209.842C63.2216 209.729 63.3925 209.719 63.5056 209.818C63.6178 209.917 63.629 210.088 63.5299 210.201C61.0099 213.061 58.6224 216.165 56.4333 219.428C56.3809 219.506 56.2953 219.548 56.2078 219.548Z" fill="#23286B"/>
<path d="M60.7049 200.522C62.3323 199.813 65.3281 203.084 67.3964 207.827C69.4647 212.571 69.8219 216.991 68.1948 217.701C66.5674 218.41 63.5716 215.139 61.5033 210.396C59.435 205.652 59.0778 201.232 60.7049 200.522Z" fill="#C6DDFE"/>
<path d="M64.6602 208.815C64.594 208.815 64.5279 208.791 64.4758 208.743C64.3659 208.641 64.3589 208.469 64.4608 208.359C67.0684 205.539 69.8533 202.921 72.7388 200.581C72.8554 200.487 73.0261 200.505 73.1209 200.621C73.2155 200.737 73.1976 200.908 73.081 201.003C70.2156 203.327 67.4499 205.925 64.8595 208.728C64.8062 208.786 64.7333 208.815 64.6602 208.815Z" fill="#23286B"/>
<path d="M67.1727 191.302C68.541 190.171 72.7594 193.016 76.5951 197.655C80.4304 202.295 82.4307 206.972 81.0624 208.103C79.694 209.234 75.4756 206.389 71.64 201.75C67.8043 197.111 65.8043 192.433 67.1727 191.302Z" fill="#C6DDFE"/>
<path d="M74.3406 199.932C74.2592 199.932 74.179 199.896 74.1253 199.826C74.0339 199.707 74.0556 199.537 74.1748 199.446C76.077 197.978 78.0558 196.602 80.0571 195.354C80.1839 195.275 80.3516 195.314 80.4312 195.441C80.5104 195.568 80.4721 195.736 80.3446 195.815C78.3587 197.053 76.3942 198.42 74.5067 199.876C74.4572 199.914 74.3984 199.932 74.3406 199.932Z" fill="#23286B"/>
<path d="M42.7128 276.54L41.7313 273.558C41.6847 273.415 41.762 273.262 41.9045 273.215C41.9412 273.202 41.9793 273.198 42.0154 273.202C41.3694 258.749 41.0231 241.806 42.945 224.578C43.0364 223.759 43.1335 222.935 43.2342 222.13C43.2527 221.981 43.3898 221.878 43.5374 221.894C43.6859 221.913 43.792 222.048 43.7735 222.197C43.6735 223.001 43.5763 223.822 43.485 224.639C41.5051 242.379 41.9371 259.827 42.6204 274.555L42.7128 276.54Z" fill="#1D72D8"/>
<path d="M39.8751 222.234C39.6706 221.493 41.1076 220.451 43.0846 219.906C45.0615 219.361 46.8295 219.519 47.034 220.26C47.2385 221 45.8014 222.043 43.8245 222.588C41.8476 223.133 40.0792 222.975 39.8751 222.234Z" fill="#23286B"/>
<path d="M43.6562 221.242C43.6444 221.242 43.6325 221.242 43.6207 221.24C43.4722 221.22 43.3674 221.084 43.3869 220.936C44.0463 215.892 44.9018 210.955 45.9293 206.262C45.9612 206.116 46.1056 206.023 46.2526 206.055C46.3989 206.087 46.4919 206.232 46.4596 206.378C45.4354 211.056 44.5827 215.978 43.9252 221.007C43.907 221.143 43.7904 221.242 43.6562 221.242Z" fill="#1D72D8"/>
<path d="M41.5027 206.761C41.2982 206.021 43.155 204.863 45.6496 204.175C48.1441 203.487 50.3319 203.529 50.5363 204.27C50.7408 205.01 48.884 206.169 46.3895 206.856C43.895 207.544 41.7072 207.502 41.5027 206.761Z" fill="#23286B"/>
<path d="M46.4528 205.432C46.4326 205.432 46.4125 205.43 46.392 205.426C46.2457 205.392 46.154 205.247 46.1876 205.101C47.1562 200.829 48.2955 196.645 49.5734 192.665C49.6191 192.522 49.7721 192.443 49.9146 192.489C50.0577 192.535 50.136 192.688 50.0903 192.831C48.8172 196.796 47.6821 200.965 46.7166 205.221C46.6892 205.347 46.577 205.432 46.4528 205.432Z" fill="#1D72D8"/>
<path d="M49.9554 189.486C46.7011 189.205 43.9777 189.964 43.8725 191.181C43.7672 192.398 46.32 193.611 49.5742 193.891C52.8285 194.172 55.5519 193.413 55.6571 192.196C55.7624 190.979 53.2096 189.766 49.9554 189.486Z" fill="#23286B"/>
<path d="M50.3401 191.469C50.3117 191.469 50.2826 191.464 50.2542 191.455C50.1117 191.407 50.0353 191.253 50.0826 191.111C51.0321 188.271 52.0771 185.465 53.1889 182.772C53.2464 182.634 53.4046 182.568 53.5435 182.625C53.6822 182.682 53.748 182.841 53.6908 182.98C52.5838 185.661 51.5433 188.455 50.5976 191.283C50.5596 191.397 50.4538 191.469 50.3401 191.469Z" fill="#1D72D8"/>
<path d="M47.587 180.719C47.7621 179.618 50.631 179.157 53.9951 179.691C57.3592 180.225 59.9445 181.551 59.7694 182.653C59.5943 183.755 56.7254 184.215 53.3613 183.681C49.9975 183.147 47.4122 181.821 47.587 180.719Z" fill="#23286B"/>
<path d="M53.9914 181.832C53.9559 181.832 53.9198 181.825 53.885 181.81C53.747 181.751 53.6827 181.592 53.7415 181.454C54.4632 179.762 55.2274 178.078 56.0127 176.449C56.2507 175.956 56.4919 175.464 56.7367 174.974C56.8038 174.84 56.9661 174.786 57.1009 174.853C57.2354 174.92 57.2897 175.083 57.2226 175.217C56.9788 175.704 56.7386 176.194 56.5022 176.685C55.7204 178.306 54.96 179.983 54.2412 181.667C54.1971 181.77 54.0971 181.832 53.9914 181.832Z" fill="#1D72D8"/>
<path d="M50.1047 172.769C50.3162 171.437 53.6024 170.851 57.4442 171.461C61.2859 172.071 64.2289 173.645 64.0171 174.978C63.8056 176.31 60.5195 176.896 56.6777 176.286C52.836 175.676 49.8929 174.102 50.1047 172.769Z" fill="#23286B"/>
<path d="M57.9201 173.528C57.8779 173.528 57.8345 173.518 57.7948 173.497C57.6616 173.427 57.6105 173.263 57.6798 173.13C58.3214 171.904 58.9868 170.69 59.6574 169.522C59.7322 169.392 59.8983 169.348 60.0283 169.422C60.1584 169.497 60.2034 169.663 60.1286 169.793C59.4616 170.955 58.7996 172.162 58.1613 173.382C58.1127 173.475 58.0178 173.528 57.9201 173.528Z" fill="#1D72D8"/>
<path d="M51.5082 254.072H30.2063V280.96H51.5082V254.072Z" fill="url(#paint9_linear_23:1235)"/>
<defs>
<linearGradient id="paint0_linear_23:1235" x1="251.039" y1="204.806" x2="278.895" y2="204.806" gradientUnits="userSpaceOnUse">
<stop stop-color="#23286B"/>
<stop offset="1" stop-color="#151A4F"/>
</linearGradient>
<linearGradient id="paint1_linear_23:1235" x1="214.043" y1="133.76" x2="293.623" y2="123.736" gradientUnits="userSpaceOnUse">
<stop stop-color="#A1C3FC"/>
<stop offset="1" stop-color="#78A9EF"/>
</linearGradient>
<linearGradient id="paint2_linear_23:1235" x1="218.902" y1="124.17" x2="233.637" y2="146.823" gradientUnits="userSpaceOnUse">
<stop stop-color="#A1C3FC"/>
<stop offset="1" stop-color="#78A9EF"/>
</linearGradient>
<linearGradient id="paint3_linear_23:1235" x1="79.5732" y1="226.987" x2="222.933" y2="226.987" gradientUnits="userSpaceOnUse">
<stop stop-color="#EEEEEE"/>
<stop offset="0.6955" stop-color="#CED9E4"/>
<stop offset="1" stop-color="#C5D4E1"/>
</linearGradient>
<linearGradient id="paint4_linear_23:1235" x1="114.728" y1="76.4584" x2="128.724" y2="96.0758" gradientUnits="userSpaceOnUse">
<stop stop-color="#C8DCFD"/>
<stop offset="1" stop-color="#9ABEF3"/>
</linearGradient>
<linearGradient id="paint5_linear_23:1235" x1="127.894" y1="97.4445" x2="139.648" y2="118.593" gradientUnits="userSpaceOnUse">
<stop stop-color="#C8DCFD"/>
<stop offset="1" stop-color="#9ABEF3"/>
</linearGradient>
<linearGradient id="paint6_linear_23:1235" x1="138.774" y1="66.5974" x2="155.756" y2="81.4598" gradientUnits="userSpaceOnUse">
<stop stop-color="#A1C3FC"/>
<stop offset="1" stop-color="#78A9EF"/>
</linearGradient>
<linearGradient id="paint7_linear_23:1235" x1="15.9998" y1="225.348" x2="47.9002" y2="225.348" gradientUnits="userSpaceOnUse">
<stop stop-color="#B9D3FD"/>
<stop offset="1" stop-color="#89B3F4"/>
</linearGradient>
<linearGradient id="paint8_linear_23:1235" x1="36.2862" y1="232.422" x2="61.1913" y2="232.422" gradientUnits="userSpaceOnUse">
<stop stop-color="#DEEAFE"/>
<stop offset="1" stop-color="#E9F1FE"/>
</linearGradient>
<linearGradient id="paint9_linear_23:1235" x1="30.2064" y1="267.516" x2="51.5084" y2="267.516" gradientUnits="userSpaceOnUse">
<stop stop-color="#EEEEEE"/>
<stop offset="1" stop-color="#D6D7D8"/>
</linearGradient>
</defs>
</svg>
