<svg width="240" height="320" viewBox="0 0 240 320" fill="none" xmlns="http://www.w3.org/2000/svg">
<g clip-path="url(#clip0_23:1488)">
<path d="M77.6001 144.344C85.4202 144.378 92.5043 147.019 97.7287 151.284C102.69 141.185 105.78 127.393 105.85 112.171C105.992 81.1345 78.004 55.8522 78.004 55.8522C78.004 55.8522 49.7867 80.8912 49.6455 111.928C49.576 127.15 52.5403 140.968 57.4092 151.11C62.672 146.89 69.78 144.311 77.6001 144.344Z" fill="url(#paint0_linear_23:1488)"/>
<path d="M85.0962 99.3832C87.1683 99.392 89.1269 99.8736 90.8723 100.725C88.7395 96.2515 84.1847 93.1517 78.8961 93.1288C71.536 93.0973 65.5423 99.0369 65.5081 106.396C65.4839 111.684 68.5437 116.265 72.9984 118.438C72.163 116.685 71.6991 114.723 71.7083 112.651C71.742 105.292 77.7366 99.3515 85.0962 99.3832Z" fill="#EFEFEF"/>
<path d="M92.1626 106.512C92.1719 104.44 91.7083 102.477 90.8726 100.725C89.1276 99.8734 87.1683 99.3922 85.0965 99.3832C77.7365 99.3518 71.7419 105.292 71.7086 112.651C71.6993 114.723 72.1629 116.686 72.9986 118.438C74.7436 119.289 76.703 119.77 78.7747 119.779C86.1354 119.811 92.1293 113.871 92.1626 106.512Z" fill="white"/>
<path d="M100.619 115.817L95.2453 150.556L112.572 162.797C114.343 141.999 110.075 126.592 100.619 115.817Z" fill="#FF4945"/>
<path d="M56.3544 115.626L61.4104 150.41L43.9719 162.501C42.3923 141.689 46.8003 126.318 56.3544 115.626Z" fill="#FF4945"/>
<path d="M78.5367 59.595C78.4304 59.657 78.3075 59.6923 78.1759 59.6919C77.7846 59.6902 77.4686 59.3713 77.4704 58.9801L77.5767 35.8059C77.5793 35.4142 77.8993 35.0981 78.2889 35.0997C78.6802 35.1014 78.9963 35.4202 78.9945 35.8115L78.8882 58.9856C78.8865 59.2466 78.7455 59.473 78.5367 59.595Z" fill="#FF4945"/>
<path d="M100.427 195.821C100.408 195.832 100.387 195.841 100.364 195.846C100.237 195.877 100.11 195.801 100.079 195.674C97.5157 185.323 94.6233 176.065 90.7 165.656C90.6543 165.535 90.7158 165.399 90.8377 165.352C90.96 165.306 91.0963 165.367 91.1426 165.489C95.0728 175.916 97.97 185.19 100.537 195.559C100.563 195.664 100.516 195.769 100.427 195.821Z" fill="#5BABF2"/>
<path d="M57.365 195.635C57.3133 195.665 57.2497 195.676 57.1867 195.66C57.0602 195.627 56.984 195.499 57.0166 195.372C59.6794 185.024 62.6615 175.775 66.6866 165.385C66.7329 165.262 66.8706 165.202 66.9926 165.249C67.1143 165.296 67.1746 165.433 67.1272 165.555C63.11 175.928 60.133 185.16 57.4747 195.49C57.4581 195.553 57.4176 195.604 57.365 195.635Z" fill="#5BABF2"/>
<path d="M97.9863 202.804L102.247 206.296L105.74 202.036L101.48 198.544L97.9863 202.804Z" fill="#FF4945"/>
<path d="M72.2213 211.78L70.5469 217.029L75.796 218.702L77.4704 213.453L72.2213 211.78Z" fill="#1B236D"/>
<path d="M53.1645 181.413L56.0679 183.793L58.4488 180.889L55.5454 178.509L53.1645 181.413Z" fill="#5BABF2"/>
<path d="M75.2414 208.136C75.2063 208.157 75.165 208.168 75.122 208.168C74.9912 208.167 74.8859 208.062 74.8865 207.931L75.037 174.876C75.0379 174.746 75.1446 174.641 75.2744 174.641C75.4051 174.642 75.5104 174.748 75.5099 174.878L75.3593 207.933C75.3578 208.02 75.3105 208.096 75.2414 208.136Z" fill="#5BABF2"/>
<path d="M88.4815 194.061C88.4574 194.075 88.431 194.085 88.4024 194.089C88.2735 194.112 88.1515 194.025 88.1292 193.896L86.7289 185.746C86.7068 185.617 86.793 185.494 86.9222 185.473C87.0511 185.451 87.1731 185.537 87.1954 185.666L88.5957 193.817C88.612 193.916 88.564 194.012 88.4815 194.061Z" fill="#5BABF2"/>
<path d="M86.7383 120.007C84.3271 121.416 81.5698 122.154 78.7636 122.141C74.5725 122.123 70.6398 120.474 67.69 117.498C64.7404 114.523 63.1259 110.576 63.1451 106.386C63.1701 100.859 66.154 95.6913 70.9319 92.9C73.3431 91.4913 76.1004 90.753 78.9064 90.7651C87.5582 90.8022 94.5642 97.8703 94.5251 106.52C94.4999 112.049 91.5162 117.216 86.7383 120.007ZM73.3158 96.9806C69.9748 98.9325 67.8888 102.544 67.8713 106.407C67.8581 109.335 68.9863 112.093 71.0476 114.172C73.1091 116.252 75.8573 117.404 78.786 117.417C80.7478 117.425 82.6737 116.91 84.3561 115.927C87.6972 113.976 89.7833 110.363 89.8009 106.501C89.8283 100.456 84.9322 95.5172 78.8866 95.4913C76.9237 95.4828 74.9978 95.998 73.3158 96.9806Z" fill="#FF4945"/>
<path d="M63.0458 84.5425C78.7471 84.6105 93.0793 89.6915 104.049 98.0346C97.883 73.8091 78.0048 55.852 78.0048 55.852C78.0048 55.852 64.8507 67.5277 56.4601 84.8131C58.625 84.6263 60.8221 84.5334 63.0458 84.5425Z" fill="#5BABF2"/>
<path d="M96.8626 78.7221C88.7258 63.9892 78.0114 54.3073 78.0114 54.3073C78.0114 54.3073 67.2094 63.8962 58.9384 78.5583L96.8626 78.7221Z" fill="url(#paint1_linear_23:1488)"/>
<path d="M122.737 170.183L123.886 167.7L126.375 168.846L125.226 171.33L122.737 170.183Z" fill="#A1C3FC"/>
<path d="M119.602 189.093L122.731 182.331L129.51 185.453L126.381 192.215L119.602 189.093Z" fill="#E94A47"/>
<path d="M129.392 212.18L132.521 205.417L139.3 208.539L136.171 215.301L129.392 212.18Z" fill="#1D72D8"/>
<path d="M126.297 200.78C126.297 200.683 126.345 200.587 126.434 200.53C133.213 196.213 136.512 187.183 134.11 179.526C134.06 179.369 134.148 179.204 134.304 179.155C134.461 179.106 134.627 179.193 134.676 179.35C137.157 187.253 133.751 196.573 126.753 201.03C126.615 201.118 126.432 201.078 126.344 200.94C126.312 200.89 126.297 200.835 126.297 200.78Z" fill="#23286B"/>
<path d="M99.0999 169.678C99.0999 169.671 99.0999 169.665 99.1005 169.659C99.1112 169.496 99.2518 169.371 99.415 169.382C105.379 169.76 110.7 175.107 111.036 181.058C111.058 181.224 110.92 181.361 110.757 181.37C110.594 181.379 110.453 181.254 110.444 181.091C110.124 175.424 105.056 170.332 99.3781 169.972C99.2203 169.962 99.0999 169.832 99.0999 169.678Z" fill="#23286B"/>
<path d="M31.0607 173.336L29.7832 171.342L27.7827 172.618L29.0603 174.612L31.0607 173.336Z" fill="#A1C3FC"/>
<path d="M35.9726 189.184L32.4939 183.753L27.0471 187.227L30.5258 192.657L35.9726 189.184Z" fill="#E94A47"/>
<path d="M30.2895 210.131L26.811 204.701L21.364 208.174L24.8427 213.605L30.2895 210.131Z" fill="#1D72D8"/>
<path d="M31.6036 199.992C31.5922 199.909 31.5392 199.832 31.4567 199.794C25.1347 196.889 21.2441 189.534 22.4046 182.685C22.4284 182.544 22.3342 182.413 22.1941 182.39C22.054 182.366 21.9216 182.46 21.8983 182.6C20.6994 189.669 24.7165 197.261 31.2415 200.26C31.3704 200.319 31.5229 200.263 31.5822 200.135C31.6038 200.088 31.6101 200.039 31.6036 199.992Z" fill="#23286B"/>
<path d="M51.2735 170.124C51.2728 170.118 51.2721 170.113 51.2708 170.107C51.2425 169.969 51.1073 169.879 50.9686 169.907C45.8983 170.932 41.9626 176.143 42.374 181.286C42.3748 181.431 42.5094 181.532 42.6504 181.521C42.7915 181.51 42.8974 181.386 42.8858 181.245C42.4945 176.347 46.2421 171.385 51.0696 170.409C51.2037 170.382 51.2917 170.256 51.2735 170.124Z" fill="#23286B"/>
<path d="M57.392 219.4L53.1997 224.008L57.8069 228.2L61.9992 223.593L57.392 219.4Z" fill="#EEEEEE"/>
<path d="M46.135 207.277L42.0767 209.865L44.6648 213.923L48.7231 211.335L46.135 207.277Z" fill="#EEEEEE"/>
<path d="M15.5629 183.8L12.7998 186.837L15.8363 189.6L18.5994 186.563L15.5629 183.8Z" fill="#EEEEEE"/>
<path d="M178.917 138.655C179.19 138.612 179.528 138.829 179.63 139.14C179.697 139.347 179.633 139.563 179.537 139.73C179.201 140.312 178.537 140.497 177.924 140.646C176.296 141.041 174.668 141.437 173.04 141.832C172.281 142.016 171.499 142.201 170.699 142.036C170.629 141.675 170.559 141.314 170.489 140.952C170.474 140.872 170.459 140.785 170.487 140.716C170.525 140.624 170.625 140.596 170.715 140.577C172.065 140.287 173.428 140.025 174.728 139.573C176.085 139.101 177.408 138.888 178.917 138.655Z" fill="#F2A19C"/>
<path d="M208.13 132.968C208.207 132.968 208.279 132.918 208.303 132.841C208.334 132.746 208.281 132.644 208.185 132.613C206.12 131.955 204.289 130.626 203.026 128.87C202.509 128.151 202.08 127.352 201.666 126.58C201.413 126.108 201.151 125.622 200.871 125.154C199.942 123.605 198.94 122.591 197.808 122.053C197.099 121.716 196.182 121.65 195.729 122.259C195.669 122.34 195.686 122.454 195.767 122.514C195.849 122.574 195.962 122.557 196.023 122.476C196.351 122.035 197.097 122.118 197.652 122.381C198.732 122.894 199.655 123.835 200.558 125.341C200.834 125.801 201.094 126.284 201.345 126.752C201.765 127.534 202.2 128.343 202.731 129.081C204.038 130.9 205.936 132.277 208.075 132.959C208.093 132.965 208.112 132.968 208.13 132.968Z" fill="#23286B"/>
<path d="M190.553 269.96C187.997 264.773 189.807 258.522 188.667 252.856C187.584 247.476 183.909 242.94 182.47 237.644C181.768 235.06 181.617 232.363 181.469 229.69C181.142 223.752 180.815 217.794 181.267 211.864C181.627 207.137 182.481 202.438 182.437 197.697C182.394 192.956 181.352 188.034 178.36 184.348C174.519 186.784 169.84 187.878 165.312 187.401C169.239 221.867 175.444 256.075 183.874 289.73C188.39 289.77 192.905 289.811 197.421 289.851C198.33 284.98 197.258 279.771 194.497 275.65C193.211 273.73 191.574 272.032 190.553 269.96Z" fill="#D62929"/>
<path d="M186.732 143.747C186.436 145.626 186.938 147.265 188.883 147.265C190.829 147.265 194.111 145.004 194.111 143.565C194.111 142.846 194.065 142.388 193.308 141.844C192.717 141.42 191.428 141.475 190.455 141.475C188.51 141.475 186.956 142.326 186.732 143.747Z" fill="#1D72D8"/>
<path d="M195.968 256.098C196.528 259.09 196.206 262.215 196.716 265.217C198.169 273.78 206.181 281.173 203.832 289.486C199.077 289.938 194.327 290.451 189.582 291.024C177.775 256.172 164.392 200.478 165.561 183.138C170.043 182.48 173.36 182.331 177.88 182.196C179.151 182.158 180.487 182.158 181.603 182.835C182.895 183.618 183.328 183.736 184.149 185.124C188.069 191.748 186.535 195.144 185.342 200.239C183.964 206.125 185.469 214.673 186.194 220.959C187.149 229.233 187.952 237.575 190.986 244.415C192.708 248.295 195.175 251.862 195.968 256.098Z" fill="url(#paint2_linear_23:1488)"/>
<path d="M169.69 170.944C172.067 169.249 175.123 168.899 178.032 168.603C181.543 168.246 185.055 167.889 188.566 167.531C188.638 163.622 189.322 159.751 189.639 155.854C189.956 151.957 191.535 148.325 186.422 144.475C182.048 148.381 180.649 149.579 177.277 154.043C173.903 158.507 170.478 165.412 169.69 170.944Z" fill="#1D72D8"/>
<path d="M189.552 136.413C188.312 136.736 186.996 136.765 185.744 136.497C186.994 139.323 187.777 142.354 188.05 145.431C189.641 144.36 191.56 143.781 193.48 143.792C191.56 142.65 190.675 140.389 189.92 138.291C189.702 137.685 189.48 137.053 189.552 136.413Z" fill="#F4AFAB"/>
<path d="M170.368 140.053C168.575 140.581 168.418 141.229 167.933 143.03C166.216 149.41 164.094 157.426 161.611 163.551C163.945 164.678 165.708 165.212 168.23 165.818C168.587 158.118 168.952 150.355 170.875 142.89C171.135 141.881 171.289 140.542 170.368 140.053Z" fill="url(#paint3_linear_23:1488)"/>
<path d="M165.915 149.431L170.758 150.414L170.012 154.069L165.097 153.703L165.915 149.431Z" fill="#428DFC"/>
<path d="M168.784 141.557C169.163 142.504 170.179 142.788 171.834 142.347C172.209 142.248 173.203 141.524 173.457 141.102C174.351 139.607 175.685 138.906 176.281 137.498C176.545 136.875 176.186 136.495 175.609 136.052C175.485 135.914 175.079 135.817 174.933 135.932C173.722 136.894 172.51 137.855 171.299 138.816C170.506 139.445 169.713 140.075 168.969 140.76C168.862 140.858 168.75 140.966 168.714 141.106C168.674 141.256 168.726 141.413 168.784 141.557Z" fill="url(#paint4_linear_23:1488)"/>
<path d="M184.406 133.714C184.588 134.231 183.981 134.75 183.498 134.983C181.506 135.947 179.489 136.919 177.419 137.31C176.424 137.497 175.299 137.624 174.596 138.555C174.752 137.684 174.908 136.814 175.063 135.943C177.779 135.89 180.564 135.11 183.15 133.677C183.596 133.43 184.236 133.228 184.406 133.714Z" fill="url(#paint5_linear_23:1488)"/>
<path d="M165.288 151.039C164.285 156.143 162.445 159.921 160.802 164.857C159.159 169.792 161.256 178.67 162.62 179.802C164.706 180.399 167.002 177.681 168.755 176.405C172.435 173.728 171.068 173.441 174.047 170.006C173.347 166.423 174.627 162.919 174.824 159.275C172.293 163.051 171.059 162.438 168.528 166.216C168.695 160.602 170.508 151.758 170.508 151.758C170.508 151.758 166.723 150.998 165.288 151.039Z" fill="#D62929"/>
<path d="M188.529 127.332C187.789 127.433 187.079 126.884 186.336 126.811C185.384 126.718 185.451 128.519 185.583 129.464C185.787 130.917 185.215 132.45 184.909 133.886C184.547 135.587 184.422 135.913 185.342 137.059C186.351 138.315 189.707 139.305 191.307 139.097C192.907 138.89 193.743 138.57 195.168 137.815C196.884 136.907 198.682 135.875 199.571 134.153C200.932 131.517 199.571 128.135 197.263 126.264C196.67 125.784 196.001 125.365 195.251 125.218C193.582 124.888 191.997 125.933 190.426 126.587C189.556 126.949 189.463 127.203 188.529 127.332Z" fill="url(#paint6_linear_23:1488)"/>
<path d="M195.898 133.303C195.758 132.697 195.33 132.196 194.79 131.885C193.834 131.335 192.726 131.36 191.668 131.488C193.1 129.798 193.53 127.601 192.55 125.616C193.491 124.074 195.659 121.546 196.651 122.047C200.049 123.763 201.063 128.238 203.269 131.333C204.182 132.615 205.118 132.935 206.936 133.992C208.568 134.941 204.956 136.429 203.673 136.862C201.831 137.483 191.565 139.183 191.565 139.183C191.213 138.738 191.362 138.053 191.738 137.628C192.114 137.204 192.658 136.974 193.176 136.743C194.632 136.093 196.268 134.893 195.898 133.303Z" fill="url(#paint7_linear_23:1488)"/>
<path d="M189.32 129.824C189.746 129.824 190.194 129.721 190.618 129.528C191.81 128.982 192.464 127.855 192.078 127.016C191.839 126.498 191.253 126.188 190.511 126.188C190.086 126.188 189.638 126.291 189.214 126.484C188.648 126.744 188.183 127.14 187.906 127.599C187.615 128.081 187.561 128.577 187.754 128.996C187.993 129.514 188.578 129.824 189.32 129.824ZM190.511 126.552C191.107 126.552 191.568 126.782 191.746 127.167C192.049 127.824 191.474 128.735 190.465 129.197C190.089 129.369 189.693 129.46 189.32 129.46C188.724 129.46 188.263 129.23 188.085 128.845C187.944 128.538 187.991 128.163 188.218 127.787C188.458 127.389 188.865 127.044 189.366 126.814C189.742 126.643 190.138 126.552 190.511 126.552Z" fill="#5E9EFC"/>
<path d="M179.174 154.939C179.174 154.939 184.659 145.524 183.297 147.024C182.052 148.394 175.401 153.761 171.605 162.733C167.145 173.277 163.585 184.403 165.561 194.008C167.469 192.666 172.443 191.937 175.559 191.161C181.344 189.72 180.777 191.442 186.365 189.37C184.774 185.633 184.032 183.943 185.172 181.387C186.311 178.832 189.751 174.858 191.551 172.712C194.308 169.425 196.127 165.475 197.913 161.577C199.454 158.215 200.564 148.97 200.013 148.247C197.611 145.098 197.422 145.35 194.893 143.901C190.597 148.053 179.174 154.939 179.174 154.939Z" fill="url(#paint8_linear_23:1488)"/>
<path d="M175.679 137.981C175.203 138.506 174.728 139.03 174.253 139.555C173.937 139.903 173.588 140.271 173.127 140.359C172.665 140.447 172.099 140.082 172.184 139.621C172.215 139.452 172.322 139.309 172.427 139.173C172.945 138.498 173.463 137.824 173.982 137.149C174.133 136.951 174.29 136.749 174.505 136.623C174.719 136.497 174.971 136.459 175.216 136.427C175.924 136.336 176.637 136.288 177.35 136.282C177.28 136.926 177.373 137.588 177.617 138.188C177.685 138.353 177.765 138.532 177.716 138.703C177.694 138.78 177.648 138.847 177.603 138.913C176.98 139.816 176.358 140.719 175.735 141.622C175.664 141.725 175.585 141.835 175.466 141.877C175.34 141.921 175.198 141.877 175.086 141.804C174.705 141.554 174.608 141.016 174.736 140.58C174.865 140.144 175.168 139.783 175.457 139.431C175.745 139.079 176.035 138.704 176.129 138.259C175.979 138.167 175.829 138.074 175.679 137.981Z" fill="url(#paint9_linear_23:1488)"/>
<path d="M189.684 150.143C189.761 149.747 192.879 145.457 195.905 144.404C195.285 143.931 193.956 142.166 193.352 141.842C191.077 142.92 189.813 144.435 186.649 145.664C187.776 147.952 188.41 148.835 189.684 150.143Z" fill="#428DFC"/>
<path d="M186.706 145.664C185.076 146.955 183.427 147.947 181.764 148.721L184.377 145.495L187.445 142.438C186.87 143.687 186.549 144.802 186.706 145.664Z" fill="#428DFC"/>
<path d="M187.794 193.258C187.312 195.005 186.83 196.752 186.348 198.498C186.252 198.849 185.931 199.292 185.631 199.084C185.486 198.983 185.467 198.778 185.464 198.601C185.452 197.766 185.5 196.929 185.606 196.1C185.762 194.884 186.045 193.68 186.067 192.455C186.109 190.139 185.219 187.812 185.704 185.546C185.739 185.383 185.785 185.215 185.898 185.092C186.013 184.967 186.18 184.908 186.341 184.853C186.993 184.632 186.594 185.819 187.246 185.598C186.197 187.472 186.991 188.361 187.602 190.418C187.771 190.986 188.004 191.55 187.999 192.142C187.996 192.522 187.895 192.893 187.794 193.258Z" fill="#F2A19C"/>
<path d="M180.339 182.731C180.427 182.671 180.54 182.665 180.646 182.665C181.686 182.659 182.716 183.041 183.748 182.911C184.221 182.851 184.672 182.458 185.286 182.576C185.374 182.592 186.19 182.537 186.375 182.531C188.646 182.454 190.886 181.639 192.674 180.24C193.063 180.956 193.451 181.672 193.84 182.388C193.91 182.517 193.982 182.656 193.961 182.801C193.931 183.015 193.718 183.147 193.526 183.248C192.589 183.736 191.628 184.178 190.647 184.571C189.8 184.912 188.929 185.22 188.173 185.731C187.417 186.242 186.774 186.994 186.623 187.892C186.493 188.661 186.733 189.441 186.996 190.175C187.856 192.577 188.997 194.879 190.388 197.02C190.642 197.409 190.821 198.072 190.378 198.216C190.116 198.302 189.856 198.092 189.668 197.891C187.572 195.646 186.689 192.566 185.204 189.88C184.843 189.227 184.435 188.57 184.343 187.83C184.294 187.435 184.337 187.035 184.381 186.638C184.459 185.937 184.537 185.236 184.614 184.535C183.972 184.361 183.295 184.292 182.628 184.231C181.832 184.158 180.959 184.051 180.413 183.468C180.221 183.262 180.105 182.89 180.339 182.731Z" fill="url(#paint10_linear_23:1488)"/>
<path d="M190.774 186.471L189.078 182.071L192.754 180.257L194.908 184.484L190.774 186.471Z" fill="#428DFC"/>
<path d="M206.333 171.722C207.381 171.555 210.379 169.851 208.833 170.071C207.3 170.43 206.541 171.13 205.007 171.489C203.026 168.583 200.271 165.337 198.29 162.431C195.218 157.925 192.899 154.335 194.704 149.254C195.271 147.659 196.447 146.958 198.23 147.167C199.381 147.302 200.242 148.571 200.582 149.129C206.834 159.36 211.226 164.767 217.478 174.999C217.844 175.598 218.214 176.333 217.851 176.94C217.648 177.28 217.259 177.488 216.883 177.668C209.577 181.178 200.013 183.079 193.566 186.544C192.309 184.387 191.757 183.431 190.5 181.275C195.056 178.313 199.846 175.653 204.82 173.323C205.53 172.99 206.29 172.654 207.084 172.704C208.997 172.824 210.202 175.074 212.119 174.969C210.631 173.371 208.576 172.218 206.333 171.722Z" fill="url(#paint11_linear_23:1488)"/>
<path d="M170.191 175.085C170.273 175.085 170.347 175.03 170.368 174.948C171.072 172.152 172.269 169.45 173.335 167.136C174.599 164.394 176.033 161.571 178.439 159.841C180.872 158.091 182.624 157.847 185.525 157.443C185.586 157.435 185.638 157.396 185.664 157.34C185.69 157.284 185.687 157.219 185.654 157.167L183.81 154.222C186.202 153.024 188.72 152.054 191.298 151.337L191.707 151.225C192.953 150.884 194.242 150.532 195.29 149.742C197.13 148.354 197.834 145.623 196.892 143.523C196.851 143.431 196.743 143.39 196.651 143.431C196.559 143.472 196.517 143.58 196.559 143.672C197.435 145.623 196.78 148.163 195.07 149.453C194.078 150.201 192.824 150.543 191.611 150.875L191.201 150.988C188.535 151.73 185.933 152.739 183.468 153.989C183.422 154.011 183.388 154.053 183.375 154.102C183.361 154.151 183.368 154.203 183.396 154.246L185.197 157.123C182.404 157.514 180.654 157.802 178.226 159.548C175.749 161.33 174.289 164.2 173.005 166.986C171.932 169.315 170.728 172.035 170.015 174.861C169.991 174.958 170.05 175.057 170.147 175.081C170.161 175.083 170.176 175.085 170.191 175.085Z" fill="#428DFC"/>
<path d="M167.183 298.119C165.537 297.409 171.386 292.718 175.847 291.015C178.54 289.987 179.687 289.285 182.327 289.218C185.314 289.143 191.512 289.265 194.499 289.189C194.581 292.252 195.094 298.119 194.655 298.065C191.602 298.365 167.566 298.064 167.183 298.119Z" fill="url(#paint12_linear_23:1488)"/>
<path d="M176.726 298.119C175.081 297.409 180.929 292.718 185.39 291.015C188.083 289.987 189.231 289.285 191.87 289.218C194.857 289.143 201.055 289.265 204.042 289.189C204.124 292.252 204.637 298.119 204.199 298.065C201.146 298.365 177.11 298.064 176.726 298.119Z" fill="url(#paint13_linear_23:1488)"/>
<path d="M192.65 148.037C192.714 148.064 192.749 148.124 192.722 148.188C192.695 148.252 192.635 148.287 192.571 148.26C192.506 148.233 192.471 148.173 192.498 148.109C192.525 148.045 192.586 148.01 192.65 148.037ZM202.721 153.941C202.781 153.906 202.845 153.933 202.88 153.994C202.915 154.054 202.889 154.118 202.828 154.153C202.768 154.188 202.703 154.161 202.668 154.1C202.602 154.042 202.66 153.976 202.721 153.941ZM199.981 155.112C200.042 155.077 200.106 155.104 200.141 155.164C200.176 155.224 200.149 155.288 200.088 155.323C200.028 155.358 199.964 155.331 199.929 155.271C199.896 155.242 199.921 155.147 199.981 155.112ZM198.065 149.594C198.1 149.654 198.104 149.716 198.077 149.78C198.017 149.815 197.954 149.819 197.89 149.792C197.855 149.732 197.851 149.67 197.88 149.637C197.936 149.54 197.999 149.536 198.065 149.594ZM195.983 151.751C196.018 151.811 196.022 151.874 195.995 151.938C195.935 151.973 195.872 151.977 195.808 151.95C195.773 151.89 195.769 151.828 195.798 151.795C195.854 151.697 195.948 151.692 195.983 151.751ZM202.634 159.929C202.697 159.925 202.763 159.983 202.767 160.045C202.771 160.108 202.712 160.174 202.65 160.177C202.588 160.181 202.521 160.123 202.518 160.061C202.514 159.999 202.572 159.933 202.634 159.929ZM199.637 159.995C199.7 159.991 199.766 160.049 199.77 160.111C199.773 160.174 199.715 160.24 199.653 160.243C199.59 160.247 199.524 160.189 199.521 160.127C199.516 160.065 199.575 159.999 199.637 159.995ZM195.908 147.643C195.941 147.672 195.978 147.763 195.918 147.798C195.888 147.832 195.797 147.869 195.762 147.808C195.729 147.779 195.691 147.688 195.752 147.653C195.779 147.589 195.842 147.585 195.908 147.643ZM194.227 149.713C194.26 149.742 194.297 149.833 194.237 149.868C194.207 149.901 194.147 149.936 194.081 149.878C194.048 149.849 194.013 149.789 194.071 149.723C194.132 149.688 194.193 149.684 194.227 149.713ZM201.251 157.368C201.314 157.365 201.378 157.392 201.382 157.453C201.385 157.516 201.357 157.549 201.296 157.584C201.234 157.588 201.17 157.56 201.166 157.499C201.162 157.437 201.189 157.373 201.251 157.368ZM198.612 157.661C198.674 157.657 198.739 157.684 198.743 157.746C198.746 157.808 198.717 157.841 198.657 157.876C198.595 157.88 198.531 157.852 198.527 157.791C198.523 157.729 198.55 157.664 198.612 157.661ZM198.215 152.42C198.275 152.385 198.339 152.412 198.374 152.472C198.409 152.532 198.382 152.596 198.322 152.631C198.261 152.666 198.197 152.639 198.162 152.579C198.127 152.519 198.154 152.455 198.215 152.42ZM198.532 146.635C198.593 146.6 198.657 146.627 198.692 146.687C198.727 146.747 198.7 146.812 198.64 146.846C198.579 146.881 198.515 146.855 198.48 146.794C198.445 146.734 198.472 146.67 198.532 146.635ZM195.844 148.114C195.904 148.08 195.969 148.106 196.004 148.167C196.039 148.227 196.012 148.291 195.951 148.326C195.891 148.361 195.826 148.334 195.792 148.274C195.757 148.214 195.784 148.15 195.844 148.114ZM193.123 149.565C193.183 149.53 193.248 149.557 193.283 149.617C193.317 149.677 193.291 149.742 193.23 149.776C193.17 149.811 193.105 149.785 193.07 149.724C193.066 149.662 193.094 149.598 193.123 149.565ZM200.008 159.442C200.072 159.469 200.108 159.529 200.08 159.593C200.053 159.657 199.993 159.692 199.929 159.665C199.865 159.638 199.829 159.578 199.857 159.514C199.852 159.452 199.944 159.415 200.008 159.442ZM189.42 147.401C189.478 147.335 189.54 147.331 189.607 147.389L189.42 147.401ZM199.085 152.832C199.147 152.828 199.214 152.886 199.217 152.949C199.221 153.011 199.163 153.077 199.101 153.08C199.038 153.084 198.972 153.026 198.968 152.964C198.964 152.902 199.023 152.836 199.085 152.832ZM199.39 150.756C199.452 150.752 199.519 150.81 199.522 150.872C199.526 150.934 199.468 151.001 199.405 151.004C199.343 151.008 199.279 150.981 199.273 150.888C199.269 150.826 199.328 150.76 199.39 150.756ZM196.354 151.198C196.416 151.194 196.483 151.252 196.486 151.315C196.49 151.377 196.463 151.441 196.37 151.447C196.307 151.451 196.241 151.393 196.206 151.333C196.233 151.268 196.292 151.202 196.354 151.198ZM193.016 146.923C193.076 146.888 193.141 146.915 193.176 146.975C193.211 147.035 193.184 147.099 193.125 147.165C193.065 147.2 193.001 147.174 192.935 147.115C192.929 147.023 192.956 146.958 193.016 146.923ZM192.558 148.074C192.621 148.07 192.654 148.099 192.687 148.128C192.691 148.19 192.662 148.223 192.633 148.257C192.57 148.261 192.537 148.232 192.504 148.203C192.5 148.14 192.527 148.076 192.558 148.074Z" fill="white"/>
</g>
<defs>
<linearGradient id="paint0_linear_23:1488" x1="49.6845" y1="103.403" x2="105.889" y2="103.661" gradientUnits="userSpaceOnUse">
<stop stop-color="#92C4FE"/>
<stop offset="1" stop-color="#5BABF2"/>
</linearGradient>
<linearGradient id="paint1_linear_23:1488" x1="58.9941" y1="66.3918" x2="96.9183" y2="66.5661" gradientUnits="userSpaceOnUse">
<stop stop-color="#FF4945"/>
<stop offset="1" stop-color="#F92424"/>
</linearGradient>
<linearGradient id="paint2_linear_23:1488" x1="196.088" y1="246.098" x2="166.581" y2="219.841" gradientUnits="userSpaceOnUse">
<stop stop-color="#E94A47"/>
<stop offset="1" stop-color="#D62929"/>
</linearGradient>
<linearGradient id="paint3_linear_23:1488" x1="181.755" y1="152.935" x2="162.505" y2="152.935" gradientUnits="userSpaceOnUse">
<stop stop-color="#FFBEB6"/>
<stop offset="1" stop-color="#F2A19C"/>
</linearGradient>
<linearGradient id="paint4_linear_23:1488" x1="181.254" y1="139.215" x2="167.366" y2="139.215" gradientUnits="userSpaceOnUse">
<stop stop-color="#FFBEB6"/>
<stop offset="1" stop-color="#F2A19C"/>
</linearGradient>
<linearGradient id="paint5_linear_23:1488" x1="184.439" y1="135.986" x2="174.596" y2="135.986" gradientUnits="userSpaceOnUse">
<stop stop-color="#FFBEB6"/>
<stop offset="1" stop-color="#F2A19C"/>
</linearGradient>
<linearGradient id="paint6_linear_23:1488" x1="187.139" y1="138.654" x2="195.94" y2="125.962" gradientUnits="userSpaceOnUse">
<stop stop-color="#FFBEB6"/>
<stop offset="1" stop-color="#F2A19C"/>
</linearGradient>
<linearGradient id="paint7_linear_23:1488" x1="207.352" y1="130.582" x2="191.366" y2="130.582" gradientUnits="userSpaceOnUse">
<stop stop-color="#23286B"/>
<stop offset="1" stop-color="#151A4F"/>
</linearGradient>
<linearGradient id="paint8_linear_23:1488" x1="192.058" y1="178.961" x2="164.492" y2="154.798" gradientUnits="userSpaceOnUse">
<stop stop-color="#E94A47"/>
<stop offset="1" stop-color="#D62929"/>
</linearGradient>
<linearGradient id="paint9_linear_23:1488" x1="181.707" y1="139.088" x2="167.846" y2="139.088" gradientUnits="userSpaceOnUse">
<stop stop-color="#FFBEB6"/>
<stop offset="1" stop-color="#F2A19C"/>
</linearGradient>
<linearGradient id="paint10_linear_23:1488" x1="193.965" y1="189.238" x2="180.209" y2="189.238" gradientUnits="userSpaceOnUse">
<stop stop-color="#FFBEB6"/>
<stop offset="1" stop-color="#F2A19C"/>
</linearGradient>
<linearGradient id="paint11_linear_23:1488" x1="213.94" y1="159.404" x2="188.591" y2="170.233" gradientUnits="userSpaceOnUse">
<stop stop-color="#E94A47"/>
<stop offset="1" stop-color="#D62929"/>
</linearGradient>
<linearGradient id="paint12_linear_23:1488" x1="166.899" y1="293.695" x2="194.83" y2="293.695" gradientUnits="userSpaceOnUse">
<stop stop-color="#428DFC"/>
<stop offset="1" stop-color="#1D72D8"/>
</linearGradient>
<linearGradient id="paint13_linear_23:1488" x1="176.442" y1="293.695" x2="204.374" y2="293.695" gradientUnits="userSpaceOnUse">
<stop stop-color="#428DFC"/>
<stop offset="1" stop-color="#1D72D8"/>
</linearGradient>
<clipPath id="clip0_23:1488">
<rect width="240" height="320" fill="white"/>
</clipPath>
</defs>
</svg>
