<svg width="320" height="240" viewBox="0 0 320 240" fill="none" xmlns="http://www.w3.org/2000/svg">
<path d="M215.682 81.3978C217.067 81.0766 218.489 80.7534 219.899 80.9346C222.009 81.2058 223.808 82.5618 225.399 83.975C227.352 85.7094 229.174 87.6186 230.6 89.8074C233.991 95.0126 234.935 101.477 234.723 107.688C234.512 113.899 233.238 120.02 232.561 126.198C231.859 132.599 231.799 139.07 232.381 145.483C218.128 143.434 203.518 143.896 189.423 146.843C198.73 133.3 204.209 116.361 200.931 100.251C199.958 95.471 198.453 89.833 201.743 86.2366C203.545 84.2662 206.31 83.5702 208.909 82.9678C211.167 82.4446 213.424 81.9214 215.682 81.3978Z" fill="#151A4F"/>
<path d="M216.469 106.998C216.334 107.016 216.194 107.036 216.076 107.116C215.707 107.367 215.752 108.006 215.84 108.502C217.416 117.38 216.781 126.799 214.033 135.264C219.181 131.428 226.001 135.248 231.937 133.726C230.235 129.81 230.625 125.145 230.644 120.736C230.667 115.545 231.758 108.566 230.649 103.545C226.47 104.101 220.648 106.442 216.469 106.998Z" fill="#F2A19C"/>
<path d="M206.442 91.4148C206.006 95.9528 207.067 99.8892 208.799 104.106C210.812 109.006 214.481 113.486 219.485 115.205C224.49 116.925 229.658 116.274 232.107 111.577C233.117 109.638 233.602 106.462 233.565 104.276C233.465 98.2792 232.049 92.0108 227.675 87.9136C225.08 85.4824 222.379 82.0412 218.839 81.7376C215.299 81.434 210.313 83.0168 208.285 85.9396C206.625 88.332 206.72 88.5148 206.442 91.4148Z" fill="#FFBEB6"/>
<path d="M227.19 106.477C226.482 107.269 225.455 107.696 224.435 107.988C222.854 108.439 221.168 108.626 219.562 108.276C217.956 107.927 216.436 106.998 215.589 105.587C216.559 105.739 217.551 105.757 218.526 105.64C223.224 105.077 226.988 101.527 229.943 97.8264C229.775 99.7556 229.552 101.007 229.075 102.875C228.798 103.959 227.935 105.643 227.19 106.477Z" fill="white"/>
<path d="M201.864 99.1039C206.703 91.2563 215.031 85.6579 224.116 84.1455C225.649 85.5255 227.183 86.9059 228.716 88.2855C218.463 89.6959 209.958 97.0227 203.606 105.206C202.332 103.406 201.011 101.08 202.057 99.1371C201.611 102.219 202.972 96.1959 201.864 99.1039Z" fill="#E94A47"/>
<path d="M204.278 151.617C208.256 134.947 207.63 131.71 207.538 114.571C207.518 110.758 209.178 95.4061 211.913 90.7521C215.747 84.2253 219.197 83.1425 222.791 81.8829C214.316 74.7645 203.825 82.5325 201.343 86.9237C198.861 91.3149 198.514 96.5517 198.142 101.585C196.915 118.227 194.809 134.804 191.836 151.224C195.986 151.1 200.143 151.232 204.278 151.617Z" fill="#23286B"/>
<path d="M210.126 109.919C210.126 109.919 210.125 109.919 210.125 109.919C209.974 109.917 209.852 109.793 209.853 109.643C209.891 103.767 211.112 98.2373 213.811 91.7133C215.514 87.5993 219.247 83.1849 221.447 81.9861C221.58 81.9145 221.745 81.9633 221.818 82.0957C221.89 82.2285 221.841 82.3953 221.707 82.4677C219.631 83.5989 215.949 87.9761 214.316 91.9237C211.644 98.3789 210.437 103.845 210.398 109.647C210.399 109.797 210.277 109.919 210.126 109.919Z" fill="#23286B"/>
<path d="M212.08 107.475C212.068 107.475 212.056 107.475 212.043 107.473C211.893 107.453 211.789 107.315 211.809 107.165C213.011 98.189 216.974 88.5446 222.152 81.9934C222.247 81.8762 222.418 81.8546 222.537 81.949C222.655 82.0426 222.675 82.2146 222.581 82.3334C217.46 88.811 213.54 98.3538 212.351 107.237C212.333 107.375 212.215 107.475 212.08 107.475Z" fill="#23286B"/>
<path d="M188.636 150.527C188.63 150.527 188.624 150.527 188.619 150.527C188.468 150.517 188.353 150.387 188.363 150.237C189.436 132.94 191.781 117.95 196.206 100.109L196.311 99.6845C197.37 95.4013 198.971 88.928 202.055 86.0512C202.166 85.9484 202.34 85.954 202.441 86.0648C202.544 86.1756 202.538 86.3492 202.428 86.452C199.463 89.218 197.885 95.5957 196.842 99.8157L196.736 100.24C192.32 118.047 189.979 133.009 188.909 150.27C188.899 150.416 188.779 150.527 188.636 150.527Z" fill="#23286B"/>
<path d="M234.417 124.565C234.256 127.625 234.095 130.684 233.934 133.744C233.928 133.875 233.908 134.027 233.793 134.09C233.722 134.13 233.634 134.12 233.553 134.109C230.368 133.683 228.52 148.561 225.308 148.519C221.906 148.474 217.138 133.531 213.759 133.915C213.767 132.068 213.775 130.221 213.783 128.374C213.786 127.717 213.712 125.997 213.712 125.997C213.712 125.997 214.561 125.182 215.16 124.906C217.218 123.959 219.299 127.295 221.458 126.609C222.613 126.243 223.241 124.823 224.432 124.593C226.104 124.269 227.189 126.423 228.816 126.928C229.819 127.239 230.914 126.874 231.811 126.33C232.709 125.787 233.494 125.067 234.417 124.565Z" fill="white"/>
<path d="M225.764 145.529C228.537 140.894 231.309 136.259 234.082 131.624C240.09 132.973 245.913 135.142 251.341 138.051C254.186 139.575 256.961 141.333 259.133 143.722C262.315 147.221 263.989 151.827 265.183 156.405C268.674 169.786 267.958 191.332 264.437 204.705C260.048 203.983 256.191 203.216 251.777 203.765C246.813 204.384 240.824 205.535 235.835 205.174C218.026 203.886 207.137 203.389 189.883 207.991C189.138 198.103 182.837 181.717 183.338 171.813C183.83 162.105 185.102 151.933 190.788 144.055C195.669 137.293 213.826 132.092 213.826 132.092C213.826 132.092 222.786 141.858 225.764 145.529Z" fill="url(#paint0_linear_23:1376)"/>
<path d="M162.941 125.266C161.588 119.868 159.387 119.653 155.423 115.683C154.783 115.042 154.09 114.035 153.373 114.589C152.673 116.564 157.61 119.927 158.041 124.544C151.581 120.803 141.966 118.991 136.15 119.38C134.1 119.517 137.654 121.159 142.301 121.844C146.544 122.469 149.136 124.171 152.943 126.139C153.168 126.791 150.625 125.701 149.956 125.541C143.612 124.016 139.157 122.803 132.402 122.291C130.409 122.529 133.845 125.923 135.672 126.635C140.213 128.404 145.307 129.729 149.849 131.498C148.657 133.685 136.697 126.293 139.051 129.222C143.236 133.933 149.604 136.613 155.892 136.309C156.929 136.26 158.005 136.139 158.976 136.505C160.116 136.935 161.182 138.052 161.507 139.229C166.169 156.144 171.289 172.15 175.245 182.897C176.407 181.277 180.561 166.243 182.409 165.499C178.837 155.81 172.269 150.742 168.82 141.008C167.316 136.765 165.415 133.624 164.172 130.468C163.905 129.793 162.691 124.584 162.941 125.266Z" fill="url(#paint1_linear_23:1376)"/>
<path d="M169.42 139.082C177.332 151.275 178.341 156.294 185.814 169.8C189.685 176.796 195.375 186.196 196.75 194.075C197.105 196.112 196.015 207.416 194.38 208.677C193.087 209.676 189.602 208.072 188.268 207.128C186.934 206.185 186.067 204.731 185.248 203.316C174.268 184.356 164.619 164.623 156.395 144.312C161.099 143.781 165.653 141.954 169.42 139.082Z" fill="url(#paint2_linear_23:1376)"/>
<path d="M272.203 204.912H179.782V209.4H272.203V204.912Z" fill="#EEEEEE"/>
<path d="M224.115 93.3365C223.968 93.3365 223.847 93.2197 223.842 93.0725C223.837 92.9217 223.955 92.7945 224.106 92.7885C227.73 92.663 231.064 89.5018 231.384 85.8846C231.397 85.7346 231.536 85.6282 231.68 85.6362C231.831 85.6494 231.942 85.783 231.928 85.933C231.579 89.8794 228.078 93.2001 224.126 93.3365C224.122 93.3365 224.118 93.3365 224.115 93.3365Z" fill="#23286B"/>
<path d="M272.203 152.583H193.899V209.401H272.203V152.583Z" fill="url(#paint3_linear_23:1376)"/>
<path d="M239.301 177.235H227.579V188.975H239.301V177.235Z" fill="white"/>
<path d="M258.535 192.251C259.96 194.748 270.416 188.686 272.386 186.593C272.327 189.388 268.194 191.339 267.823 192.406C267.498 193.342 269.759 192.634 270.59 192.096C274.676 189.454 276.5 183.835 276.396 178.927C276.361 177.291 275.815 176.452 275.302 174.912C273.662 169.984 273.48 159.033 272.343 161.469C271.123 164.706 270.024 170.199 271.657 173.087C265.743 177.298 262.063 181.777 258.135 187.887C257.564 188.778 257.112 190.165 258.013 190.718C260.825 188.06 263.637 185.402 266.449 182.743C268.223 181.067 269.925 178.874 271.839 180.388C269.305 183.34 257.806 190.973 258.535 192.251Z" fill="url(#paint4_linear_23:1376)"/>
<path d="M200.95 174.821C200.991 174.974 201.115 175.071 201.267 175.03C201.419 174.989 201.517 174.865 201.476 174.712C201.435 174.559 201.311 174.462 201.159 174.503C201.006 174.544 200.909 174.668 200.95 174.821ZM211.115 199.255C211.017 199.38 211.059 199.532 211.183 199.63C211.307 199.728 211.46 199.686 211.557 199.562C211.654 199.438 211.613 199.285 211.489 199.187C211.378 199.02 211.212 199.13 211.115 199.255ZM214.595 193.471C214.497 193.596 214.539 193.748 214.663 193.846C214.787 193.944 214.94 193.902 215.037 193.778C215.134 193.654 215.093 193.501 214.969 193.403C214.914 193.32 214.692 193.346 214.595 193.471ZM202.778 187.457C202.902 187.554 203.04 187.582 203.192 187.541C203.29 187.417 203.318 187.278 203.277 187.126C203.152 187.028 203.014 187 202.931 187.055C202.696 187.152 202.667 187.291 202.778 187.457ZM208.273 183.454C208.397 183.552 208.535 183.58 208.687 183.539C208.785 183.414 208.813 183.276 208.772 183.123C208.647 183.026 208.509 182.998 208.426 183.052C208.191 183.149 208.149 183.357 208.273 183.454ZM224.608 200.921C224.58 201.06 224.69 201.227 224.828 201.255C224.967 201.283 225.133 201.172 225.161 201.034C225.189 200.896 225.079 200.729 224.941 200.701C224.802 200.672 224.636 200.782 224.608 200.921ZM225.682 194.214C225.654 194.353 225.764 194.52 225.902 194.548C226.041 194.576 226.207 194.466 226.235 194.328C226.263 194.189 226.152 194.022 226.014 193.994C225.876 193.965 225.709 194.076 225.682 194.214ZM199.058 182.01C199.113 182.093 199.307 182.205 199.403 182.081C199.487 182.026 199.598 181.832 199.474 181.734C199.419 181.651 199.225 181.539 199.128 181.663C198.975 181.705 198.947 181.843 199.058 182.01ZM204.231 178.88C204.286 178.963 204.48 179.075 204.577 178.951C204.66 178.896 204.758 178.771 204.648 178.604C204.593 178.521 204.468 178.424 204.302 178.533C204.204 178.658 204.176 178.797 204.231 178.88ZM219.276 197.022C219.248 197.16 219.289 197.313 219.428 197.341C219.566 197.369 219.649 197.314 219.746 197.189C219.774 197.05 219.733 196.898 219.594 196.87C219.457 196.842 219.304 196.883 219.276 197.022ZM220.749 191.19C220.721 191.328 220.762 191.481 220.901 191.509C221.039 191.537 221.122 191.482 221.219 191.357C221.247 191.218 221.206 191.066 221.067 191.038C220.929 191.01 220.777 191.051 220.749 191.19ZM209.086 188.67C208.989 188.794 209.03 188.947 209.154 189.045C209.278 189.142 209.431 189.101 209.528 188.977C209.625 188.852 209.584 188.7 209.46 188.602C209.337 188.504 209.184 188.546 209.086 188.67ZM195.979 187.587C195.882 187.712 195.923 187.864 196.047 187.962C196.172 188.06 196.324 188.018 196.421 187.894C196.519 187.77 196.478 187.617 196.353 187.519C196.229 187.422 196.077 187.463 195.979 187.587ZM200.137 182.014C200.04 182.138 200.081 182.291 200.205 182.388C200.329 182.486 200.482 182.445 200.579 182.32C200.677 182.196 200.635 182.043 200.511 181.946C200.387 181.848 200.235 181.889 200.137 182.014ZM204.24 176.357C204.142 176.482 204.183 176.634 204.307 176.732C204.432 176.83 204.584 176.788 204.681 176.664C204.779 176.54 204.738 176.387 204.613 176.289C204.476 176.26 204.323 176.302 204.24 176.357ZM224.323 194.876C224.364 195.028 224.488 195.126 224.64 195.085C224.792 195.044 224.89 194.92 224.849 194.767C224.808 194.614 224.684 194.517 224.532 194.558C224.393 194.529 224.281 194.722 224.323 194.876ZM200.517 167.375C200.35 167.486 200.322 167.624 200.432 167.79L200.517 167.375ZM209.744 190.752C209.716 190.89 209.826 191.057 209.964 191.085C210.102 191.113 210.269 191.003 210.296 190.865C210.324 190.727 210.214 190.559 210.076 190.531C209.938 190.503 209.772 190.613 209.744 190.752ZM204.981 190.792C204.953 190.93 205.064 191.097 205.201 191.125C205.34 191.153 205.507 191.043 205.534 190.905C205.562 190.766 205.521 190.614 205.314 190.571C205.176 190.543 205.01 190.653 204.981 190.792ZM206.914 184.116C206.886 184.254 206.996 184.421 207.134 184.449C207.273 184.477 207.425 184.436 207.467 184.229C207.495 184.09 207.384 183.923 207.26 183.826C207.108 183.866 206.942 183.977 206.914 184.116ZM198.331 175.298C198.234 175.422 198.275 175.575 198.399 175.673C198.523 175.77 198.676 175.729 198.843 175.618C198.94 175.494 198.899 175.341 198.788 175.174C198.581 175.132 198.429 175.173 198.331 175.298ZM201.06 174.627C201.032 174.766 201.087 174.849 201.143 174.933C201.281 174.961 201.364 174.906 201.448 174.85C201.476 174.712 201.421 174.629 201.366 174.545C201.227 174.517 201.075 174.558 201.06 174.627Z" fill="white"/>
<path d="M161.229 132.186C162.122 131.95 162.88 131.39 162.967 131.064C163.173 130.3 163.38 129.528 163.409 128.736C163.437 127.97 163.297 127.209 163.148 126.457C162.59 123.645 161.774 120.96 159.544 119.164C158.155 118.044 156.739 116.964 155.513 115.667C155.025 115.151 154.2 113.86 153.588 114.22C152.519 114.848 154.048 116.764 154.671 117.837C155.661 119.544 156.508 120.411 157.498 122.118C157.725 122.508 157.873 123.658 157.919 124.107C157.96 124.497 157.71 125.247 157.627 125.631C157.41 126.643 157.329 127.686 157.39 128.72C157.431 129.413 157.545 130.131 157.943 130.7C158.728 131.823 159.905 132.536 161.229 132.186Z" fill="url(#paint5_linear_23:1376)"/>
<path d="M50.0533 84.3174H124.632C129.78 84.3174 133.954 80.1497 133.954 75.0089V44.5448C133.954 39.404 129.78 35.2363 124.632 35.2363H50.0533C44.9048 35.2363 40.731 39.404 40.731 44.5448V75.0089C40.731 80.1497 44.9048 84.3174 50.0533 84.3174Z" fill="#1B236D"/>
<path d="M133.551 159.4C133.208 159.4 132.925 159.127 132.916 158.782C132.76 152.848 130.358 146.941 126.327 142.577C124.895 141.027 123.234 139.632 121.627 138.282C120.113 137.011 118.547 135.696 117.147 134.234C115.067 132.064 111.698 127.665 112.496 122.589C112.624 121.778 113.063 120.94 113.688 120.129C110.859 119.269 108.202 117.217 107.844 114.399C107.704 113.296 107.932 112.263 108.424 111.329C105.603 110.311 103.036 109.019 101.115 107.63C99.5571 106.502 98.3824 105.284 97.6197 104.018C83.5803 105.933 71.7995 105.308 59.1313 99.8575C50.529 96.1557 42.9533 89.2742 38.3469 80.9778C33.4039 72.0734 32.4552 62.6291 35.676 54.3852C42.2876 37.4619 62.5081 31.6661 73.9733 29.7173C100.26 25.2488 123.817 30.7569 138.603 44.8283C138.857 45.0699 138.867 45.4719 138.624 45.7258C138.382 45.9796 137.979 45.9885 137.726 45.7473C123.234 31.9551 100.074 26.5693 74.186 30.9684C62.9865 32.872 43.244 38.5058 36.8604 54.8464C30.1504 72.0222 43.4775 91.7384 59.6352 98.691C71.9148 103.976 83.3914 104.627 97.0261 102.816C96.7782 102.177 96.6332 101.529 96.5947 100.878C96.2718 95.403 104.362 91.5281 108.684 90.2444C111.127 89.5183 120.267 87.8902 122.782 89.0229C125.012 90.0273 125.351 91.3948 125.244 92.3654C124.8 96.3499 116.26 100.584 110.577 101.748C106.525 102.578 102.686 103.283 99.007 103.821C99.8028 104.954 100.889 105.897 101.862 106.601C103.767 107.98 106.332 109.259 109.138 110.253C110.503 108.566 112.745 107.317 115.056 106.745C117.555 106.126 127.324 104.328 129.443 106.849C129.796 107.27 130.115 108 129.63 109.09C128.781 110.998 127.051 112.314 124.487 113.003C120.339 114.117 114.685 113.385 109.636 111.744C109.2 112.506 108.993 113.347 109.106 114.238C109.418 116.691 112.008 118.45 114.624 119.068C116.482 117.192 119.109 115.63 120.737 115.173C121.683 114.907 122.354 114.996 122.728 115.437C123.077 115.847 123.076 116.435 122.726 117.183C121.524 119.751 118.615 121.005 115.135 120.461C115.113 120.458 115.09 120.454 115.068 120.45C114.361 121.252 113.867 122.064 113.753 122.786C113.039 127.322 116.149 131.356 118.066 133.356C119.419 134.769 120.958 136.062 122.446 137.311C124.083 138.686 125.776 140.108 127.262 141.717C131.499 146.304 134.023 152.511 134.188 158.749C134.197 159.099 133.92 159.391 133.569 159.4C133.562 159.4 133.557 159.4 133.551 159.4ZM116.225 119.306C118.739 119.454 120.706 118.497 121.573 116.647C121.652 116.479 121.688 116.362 121.704 116.288C121.359 116.262 120.447 116.498 118.98 117.338C118.039 117.878 117.07 118.564 116.225 119.306ZM110.427 110.684C115.138 112.167 120.331 112.805 124.156 111.777C126.331 111.194 127.782 110.116 128.468 108.575C128.732 107.98 128.547 107.76 128.468 107.666C127.221 106.182 119.872 106.86 115.361 107.978C113.468 108.447 111.623 109.407 110.427 110.684ZM119.998 89.8957C116.761 89.8957 111.412 90.7589 109.047 91.4608C104.411 92.8376 97.6074 96.4616 97.8638 100.804C97.9015 101.448 98.0689 102.06 98.3261 102.637C102.132 102.094 106.109 101.368 110.321 100.505C116.655 99.2076 123.676 94.9515 123.98 92.2254C124.013 91.9263 124.115 91.0161 122.259 90.1801C121.816 89.9804 121.01 89.8957 119.998 89.8957Z" fill="#1B236D"/>
<defs>
<linearGradient id="paint0_linear_23:1376" x1="183.31" y1="169.807" x2="267.468" y2="169.807" gradientUnits="userSpaceOnUse">
<stop stop-color="#428DFC"/>
<stop offset="1" stop-color="#1D72D8"/>
</linearGradient>
<linearGradient id="paint1_linear_23:1376" x1="149.206" y1="138.375" x2="129.991" y2="125.607" gradientUnits="userSpaceOnUse">
<stop stop-color="#FFBEB6"/>
<stop offset="1" stop-color="#F2A19C"/>
</linearGradient>
<linearGradient id="paint2_linear_23:1376" x1="156.395" y1="174.037" x2="196.817" y2="174.037" gradientUnits="userSpaceOnUse">
<stop stop-color="#428DFC"/>
<stop offset="1" stop-color="#1D72D8"/>
</linearGradient>
<linearGradient id="paint3_linear_23:1376" x1="193.899" y1="180.992" x2="272.203" y2="180.992" gradientUnits="userSpaceOnUse">
<stop stop-color="#D6D7D8"/>
<stop offset="1" stop-color="#EEEEEE"/>
</linearGradient>
<linearGradient id="paint4_linear_23:1376" x1="257.502" y1="176.991" x2="276.4" y2="176.991" gradientUnits="userSpaceOnUse">
<stop stop-color="#FFBEB6"/>
<stop offset="1" stop-color="#F2A19C"/>
</linearGradient>
<linearGradient id="paint5_linear_23:1376" x1="156.697" y1="123.496" x2="162.98" y2="121.013" gradientUnits="userSpaceOnUse">
<stop stop-color="#FFBEB6"/>
<stop offset="1" stop-color="#F2A19C"/>
</linearGradient>
</defs>
</svg>
