<svg width="480" height="320" viewBox="0 0 480 320" fill="none" xmlns="http://www.w3.org/2000/svg">
<path d="M336.944 120.696C336.317 136.012 328.913 160.241 317.603 177.956C309.352 190.888 299.025 200.348 287.734 200.348C277.678 200.348 268.254 192.836 260.354 182.054C247.231 164.154 238.301 137.229 237.626 120.696H336.944Z" fill="url(#paint0_linear_23:1349)"/>
<path d="M237.625 280.02C238.709 253.527 260.975 200.369 287.735 200.369C314.494 200.369 335.861 253.526 336.946 280.02H237.625Z" fill="url(#paint1_linear_23:1349)"/>
<path d="M317.603 177.957C309.352 190.888 299.025 200.349 287.734 200.349C277.678 200.349 268.254 192.837 260.354 182.054C271.504 181.024 296.277 179.342 317.603 177.957Z" fill="url(#paint2_linear_23:1349)"/>
<path d="M335.57 278.331L335.892 278.325L331.918 274.133C331.106 273.246 330.295 272.391 329.485 271.566L288.413 228.244H286.788L245.641 271.576C242.766 274.191 240.087 277.012 237.625 280.019H336.945C336.487 279.445 336.028 278.884 335.57 278.331Z" fill="url(#paint3_linear_23:1349)"/>
<path d="M288.445 200.445H286.667V252.445H288.445V200.445Z" fill="url(#paint4_linear_23:1349)"/>
<path d="M222.06 263.518H208.583C208.583 263.518 201.559 270.14 194.025 273.369C186.491 276.598 184.231 280.957 184.231 280.957L228.308 280.956L222.064 263.54" fill="url(#paint5_linear_23:1349)"/>
<path d="M194.648 263.518L180.458 263.517C180.458 263.517 174.355 270.182 166.821 273.41C159.286 276.639 157.027 280.998 157.027 280.998L201.103 280.997L194.648 263.518Z" fill="#428DFC"/>
<path d="M178.399 120.199C178.399 120.199 174.273 118.058 173.817 115.748C173.43 113.793 169.729 111.796 169.729 111.796L172.813 117.949L174.439 121.396C174.439 121.396 179.442 127.912 178.399 120.199Z" fill="url(#paint6_linear_23:1349)"/>
<path d="M165.07 119.713L172.905 117.928C173.369 117.822 173.66 117.361 173.554 116.897C173.527 116.777 173.474 116.664 173.4 116.566L163.076 103.012C162.867 102.738 162.517 102.615 162.183 102.697L154.301 104.653C153.84 104.767 153.558 105.234 153.673 105.697C153.701 105.813 153.754 105.922 153.828 106.017L164.197 119.401C164.403 119.665 164.743 119.787 165.07 119.713Z" fill="#23286B"/>
<path d="M176.258 120.994C176.258 120.994 173.773 119.587 172.813 117.95C172.813 117.95 171.341 118.291 170.423 118.44C170.423 118.44 170.303 116.104 165.694 115.71C161.537 115.354 162.085 114.451 159.513 113.61C156.941 112.769 155.893 113.528 155.748 114.386C155.748 114.386 158.454 115.365 159.078 116.367C159.701 117.369 160.446 119.821 162.701 120.614C164.957 121.407 172.893 122.379 174.515 127.602L176.258 120.994Z" fill="url(#paint7_linear_23:1349)"/>
<path d="M174.847 134.425C174.847 134.425 176.435 137.713 181.989 137.941C187.543 138.168 188.792 139.073 192.874 141.684C196.956 144.294 204.664 145.31 212.378 133.293C219.457 122.253 221.854 110.07 220.609 103.586C220.028 99.6993 219.861 98.2926 219.277 97.0713C219.197 96.905 216.784 98.5233 216.149 98.9481C215.171 99.6024 212.223 101.918 211.496 101.962C210.184 106.301 207.954 124.481 197.79 124.504C187.106 124.528 178.812 118.553 178.812 118.553L174.847 134.425Z" fill="url(#paint8_linear_23:1349)"/>
<path d="M206.719 154.321C206.719 154.321 191.489 186.164 188.033 200.069C185.097 211.879 203.031 263.518 203.031 263.518H222.061C222.061 263.518 225.419 255.643 221.837 248.217C218.254 240.791 220.269 238.991 220.045 233.141C219.821 227.29 219.374 218.289 214.896 208.389C210.418 198.488 224.299 187.687 227.881 180.936C231.463 174.185 236.836 160.459 234.149 153.034C234.149 153.034 220.752 153.748 219.857 153.973C218.961 154.197 206.719 154.321 206.719 154.321Z" fill="url(#paint9_linear_23:1349)"/>
<path d="M238.613 146.559C238.346 146.704 237.489 147.13 236.428 147.652C232.684 149.495 228.478 150.185 224.343 149.634L208.527 147.522C208.032 154.62 200.8 175.531 200.8 175.531C197.635 183.532 193.938 198.582 190.504 210.136C186.97 222.022 179.044 258.053 177.723 263.518H194.647C201.914 257.437 203.768 249.846 207.795 237.7C212.725 222.832 213.703 228.327 216.997 213.771C220.289 199.219 219.849 202.19 230.229 183.037C240.344 164.375 238.968 147.293 238.613 146.559Z" fill="#A1C3FC"/>
<path d="M141.756 83.7222L128.56 87.2262C128.252 87.3076 128.07 87.6227 128.152 87.9294C128.171 88.0018 128.204 88.0694 128.249 88.1294L133.835 95.4974C133.976 95.6831 134.215 95.7658 134.44 95.7058L144.864 92.9378C144.971 92.9094 145.085 92.9125 145.191 92.9476L150.533 94.7062L142.361 83.9307C142.22 83.7445 141.981 83.6622 141.756 83.7222Z" fill="url(#paint10_linear_23:1349)"/>
<path d="M158.497 96.4766L167.878 93.9855C168.356 93.8583 168.641 93.3677 168.514 92.8895C168.484 92.7766 168.433 92.6712 168.362 92.5783L163.195 85.7632C162.976 85.4735 162.603 85.3455 162.251 85.4388L149.726 88.765C149.248 88.8921 148.963 89.3828 149.09 89.861C149.12 89.9739 149.171 90.0792 149.242 90.1721L154.772 97.4663L154.798 97.4592L158.427 102.221L157.837 97.453C157.782 97.0081 158.064 96.5912 158.497 96.4766Z" fill="url(#paint11_linear_23:1349)"/>
<path opacity="0.86" d="M226.996 159.877C226.939 159.854 226.875 159.882 226.852 159.939C226.827 159.993 226.851 160.056 226.904 160.081C226.906 160.081 226.907 160.081 226.908 160.082C226.965 160.105 227.029 160.077 227.052 160.019C227.052 160.019 227.052 160.019 227.052 160.019C227.074 159.965 227.05 159.902 226.996 159.877ZM224.536 158.867C224.479 158.845 224.415 158.873 224.392 158.93C224.369 158.987 224.398 159.051 224.455 159.074C224.511 159.096 224.576 159.068 224.599 159.011C224.619 158.954 224.591 158.891 224.536 158.867ZM222.083 157.859C222.026 157.837 221.961 157.865 221.939 157.921C221.916 157.978 221.944 158.043 222.001 158.065C222.055 158.087 222.115 158.061 222.136 158.008C222.137 158.006 222.137 158.004 222.138 158.002C222.164 157.952 222.145 157.891 222.096 157.865C222.091 157.862 222.087 157.861 222.083 157.859ZM219.622 156.849C219.563 156.831 219.5 156.863 219.482 156.922C219.465 156.975 219.49 157.033 219.54 157.056C219.597 157.078 219.662 157.05 219.684 156.993C219.707 156.937 219.679 156.872 219.622 156.849ZM217.168 155.841C217.111 155.819 217.047 155.847 217.024 155.904C217.002 155.961 217.03 156.025 217.087 156.048C217.144 156.07 217.208 156.042 217.231 155.985C217.254 155.928 217.226 155.864 217.168 155.841ZM219.172 167.865C219.148 167.81 219.085 167.785 219.03 167.808C218.975 167.832 218.949 167.895 218.972 167.95C218.996 168.005 219.059 168.031 219.115 168.008C219.17 167.984 219.195 167.921 219.172 167.865ZM218.151 165.417C218.131 165.363 218.073 165.335 218.019 165.354C218.015 165.356 218.012 165.357 218.008 165.359C217.951 165.381 217.923 165.444 217.943 165.501C217.971 165.556 218.036 165.581 218.093 165.559C218.148 165.536 218.174 165.472 218.151 165.417ZM217.129 162.968C217.103 162.911 217.039 162.883 216.98 162.902C216.925 162.929 216.9 162.994 216.922 163.052C216.946 163.107 217.009 163.133 217.064 163.109C217.121 163.088 217.15 163.025 217.129 162.968ZM216.101 160.511C216.078 160.456 216.014 160.43 215.959 160.453C215.903 160.48 215.878 160.546 215.901 160.603C215.924 160.658 215.988 160.684 216.043 160.661C216.099 160.634 216.124 160.568 216.101 160.511ZM207.932 167.835C207.877 167.815 207.816 167.844 207.796 167.899C207.77 167.949 207.789 168.01 207.838 168.036C207.842 168.038 207.847 168.04 207.851 168.042C207.908 168.064 207.972 168.036 207.995 167.979C208.018 167.922 207.99 167.858 207.932 167.835ZM222.932 163.561C222.89 163.519 222.823 163.52 222.781 163.562C222.74 163.605 222.741 163.672 222.783 163.713C222.825 163.754 222.892 163.753 222.934 163.711C222.975 163.673 222.978 163.609 222.94 163.568C222.937 163.565 222.935 163.563 222.932 163.561ZM221.05 161.684C221.007 161.644 220.94 161.644 220.899 161.686C220.883 161.703 220.871 161.725 220.868 161.749C220.862 161.784 220.874 161.819 220.9 161.844C220.905 161.85 220.913 161.854 220.921 161.854L220.928 161.855C220.967 161.881 221.019 161.875 221.051 161.841C221.094 161.8 221.095 161.731 221.054 161.688C221.052 161.687 221.051 161.685 221.05 161.684ZM219.166 159.815C219.124 159.774 219.057 159.775 219.015 159.817C218.974 159.859 218.975 159.926 219.017 159.968C219.057 160.01 219.124 160.013 219.167 159.973C219.21 159.932 219.211 159.863 219.17 159.82C219.169 159.818 219.167 159.817 219.166 159.815ZM217.284 157.939C217.242 157.898 217.175 157.899 217.133 157.941C217.09 157.982 217.088 158.051 217.13 158.094C217.131 158.096 217.132 158.097 217.134 158.098C217.171 158.14 217.235 158.142 217.277 158.105C217.279 158.102 217.282 158.1 217.284 158.097C217.328 158.055 217.329 157.985 217.287 157.942C217.286 157.941 217.285 157.94 217.284 157.939ZM213.515 167.518C213.453 167.518 213.403 167.569 213.403 167.631C213.403 167.693 213.453 167.743 213.515 167.744C213.577 167.744 213.627 167.693 213.627 167.631C213.627 167.569 213.577 167.519 213.515 167.518ZM213.507 164.864C213.445 164.865 213.395 164.915 213.394 164.976C213.393 165.034 213.439 165.081 213.498 165.082C213.501 165.082 213.504 165.082 213.507 165.082C213.567 165.084 213.617 165.037 213.619 164.977C213.616 164.917 213.567 164.868 213.507 164.864ZM233.561 168.376C233.477 168.3 233.347 168.305 233.271 168.39C233.269 168.392 233.267 168.393 233.266 168.396C233.191 168.48 233.2 168.609 233.285 168.683C233.285 168.683 233.286 168.684 233.286 168.684C233.37 168.761 233.5 168.755 233.577 168.67C233.579 168.669 233.58 168.667 233.582 168.665C233.656 168.58 233.647 168.452 233.563 168.377C233.563 168.377 233.562 168.377 233.561 168.376ZM229.758 165.069C229.673 164.995 229.544 165.003 229.471 165.088C229.47 165.089 229.47 165.089 229.469 165.089C229.393 165.177 229.401 165.309 229.488 165.385C229.575 165.461 229.708 165.453 229.784 165.366C229.856 165.276 229.844 165.145 229.758 165.069ZM225.96 161.77C225.873 161.693 225.741 161.702 225.664 161.789C225.588 161.876 225.597 162.009 225.683 162.085C225.77 162.161 225.903 162.153 225.979 162.066C226.055 161.982 226.05 161.852 225.966 161.775C225.964 161.773 225.962 161.772 225.96 161.77ZM222.163 158.471C222.079 158.395 221.949 158.401 221.872 158.485C221.871 158.487 221.869 158.489 221.867 158.491C221.82 158.541 221.802 158.613 221.819 158.68L221.827 158.681C221.835 158.721 221.856 158.759 221.887 158.787C221.907 158.805 221.931 158.816 221.958 158.819C222.063 158.861 222.182 158.809 222.223 158.704C222.255 158.621 222.231 158.528 222.163 158.471ZM218.251 181.086C218.137 181.094 218.05 181.192 218.055 181.307C218.061 181.417 218.155 181.502 218.266 181.496C218.27 181.496 218.274 181.496 218.277 181.495C218.392 181.487 218.479 181.389 218.473 181.274C218.464 181.161 218.365 181.077 218.251 181.086C218.252 181.086 218.252 181.086 218.251 181.086ZM217.895 176.061C217.782 176.07 217.697 176.169 217.707 176.283C217.707 176.283 217.707 176.283 217.707 176.283C217.714 176.398 217.812 176.486 217.927 176.479C218.043 176.472 218.13 176.373 218.123 176.258C218.11 176.143 218.011 176.057 217.895 176.061ZM217.545 171.037C217.43 171.05 217.344 171.149 217.348 171.265C217.354 171.376 217.448 171.461 217.559 171.455C217.563 171.455 217.567 171.454 217.57 171.454C217.683 171.449 217.771 171.353 217.767 171.241C217.767 171.238 217.766 171.236 217.766 171.233C217.759 171.118 217.66 171.031 217.545 171.037ZM217.187 166.02C217.074 166.029 216.99 166.128 216.999 166.241C216.999 166.241 216.999 166.241 216.999 166.242C217.007 166.357 217.107 166.444 217.221 166.436C217.336 166.428 217.423 166.329 217.415 166.214C217.407 166.099 217.308 166.012 217.193 166.02C217.191 166.02 217.19 166.02 217.187 166.02ZM216.838 160.996C216.723 161.007 216.639 161.11 216.65 161.225C216.661 161.337 216.759 161.42 216.871 161.414C216.981 161.408 217.066 161.314 217.06 161.203C217.06 161.2 217.059 161.196 217.059 161.192C217.051 161.077 216.953 160.99 216.838 160.996ZM235.75 159.728C235.641 159.691 235.523 159.748 235.484 159.856C235.447 159.965 235.504 160.084 235.613 160.122C235.722 160.16 235.841 160.102 235.879 159.993C235.917 159.885 235.859 159.766 235.75 159.728ZM230.973 158.135C230.869 158.097 230.755 158.151 230.718 158.255C230.716 158.258 230.715 158.261 230.715 158.264C230.675 158.37 230.729 158.488 230.835 158.527C230.941 158.567 231.059 158.513 231.098 158.407C231.1 158.402 231.101 158.397 231.103 158.393C231.14 158.289 231.086 158.175 230.982 158.138C230.979 158.137 230.976 158.136 230.973 158.135ZM228.137 176.073C228.088 175.967 227.962 175.921 227.856 175.97C227.75 176.02 227.704 176.145 227.753 176.252C227.803 176.358 227.928 176.404 228.035 176.354C228.036 176.354 228.037 176.353 228.039 176.353C228.142 176.301 228.185 176.177 228.137 176.073ZM225.89 171.568C225.84 171.462 225.715 171.416 225.608 171.465C225.502 171.515 225.456 171.641 225.506 171.747C225.555 171.853 225.681 171.899 225.787 171.849C225.788 171.849 225.79 171.848 225.791 171.848C225.894 171.797 225.938 171.673 225.89 171.568ZM223.642 167.064C223.586 166.962 223.459 166.921 223.354 166.971C223.251 167.026 223.211 167.154 223.266 167.257C223.318 167.357 223.44 167.398 223.542 167.35C223.645 167.296 223.689 167.17 223.642 167.064ZM221.386 162.565C221.339 162.461 221.216 162.416 221.112 162.464C221.009 162.511 220.963 162.634 221.011 162.737C221.012 162.741 221.014 162.744 221.015 162.746C221.065 162.848 221.188 162.89 221.29 162.841C221.292 162.84 221.294 162.839 221.296 162.838C221.395 162.793 221.438 162.675 221.392 162.577C221.39 162.573 221.388 162.569 221.386 162.565ZM219.139 158.06C219.086 157.959 218.961 157.92 218.86 157.973C218.763 158.024 218.722 158.142 218.768 158.242C218.819 158.345 218.943 158.388 219.047 158.341C219.15 158.29 219.191 158.166 219.141 158.064C219.14 158.063 219.139 158.061 219.139 158.06ZM208.807 177.479C208.703 177.442 208.59 177.497 208.553 177.601C208.551 177.605 208.549 177.611 208.548 177.616C208.512 177.722 208.569 177.838 208.675 177.874C208.676 177.874 208.676 177.874 208.677 177.875C208.786 177.912 208.904 177.854 208.943 177.746C208.974 177.635 208.915 177.519 208.807 177.479ZM210.407 172.71C210.299 172.671 210.181 172.727 210.143 172.835C210.142 172.836 210.142 172.837 210.141 172.838C210.104 172.947 210.162 173.065 210.27 173.104C210.38 173.135 210.496 173.076 210.536 172.968C210.572 172.862 210.515 172.746 210.409 172.71C210.409 172.71 210.408 172.71 210.407 172.71ZM212 167.933C211.891 167.896 211.773 167.953 211.735 168.061C211.696 168.169 211.753 168.286 211.86 168.325C211.863 168.326 211.867 168.327 211.871 168.328C211.974 168.365 212.089 168.311 212.126 168.208C212.127 168.205 212.128 168.201 212.129 168.198C212.166 168.089 212.108 167.971 212 167.933ZM213.593 163.155C213.484 163.122 213.369 163.183 213.334 163.292C213.296 163.395 213.35 163.51 213.454 163.547C213.457 163.548 213.46 163.549 213.463 163.55C213.572 163.587 213.69 163.529 213.729 163.421C213.763 163.311 213.703 163.193 213.593 163.155ZM238.763 157.349C238.74 157.369 238.723 157.396 238.715 157.425C238.706 157.474 238.718 157.525 238.748 157.565C238.751 157.49 238.754 157.415 238.763 157.349ZM232.453 173.777C232.399 173.69 232.285 173.664 232.199 173.717C232.112 173.771 232.085 173.885 232.139 173.972C232.139 173.973 232.14 173.973 232.14 173.974C232.195 174.06 232.31 174.085 232.396 174.03C232.481 173.976 232.507 173.863 232.453 173.777ZM230.072 169.968C230.018 169.881 229.903 169.855 229.817 169.91C229.731 169.964 229.704 170.078 229.759 170.165C229.814 170.252 229.927 170.277 230.014 170.223C230.1 170.171 230.127 170.06 230.076 169.974C230.075 169.972 230.073 169.97 230.072 169.968ZM227.691 166.151C227.677 166.119 227.651 166.093 227.619 166.081L227.611 166.08C227.555 166.055 227.489 166.06 227.437 166.093C227.348 166.149 227.321 166.265 227.377 166.354C227.377 166.354 227.378 166.355 227.378 166.356C227.433 166.441 227.546 166.467 227.633 166.413C227.673 166.39 227.701 166.35 227.708 166.304C227.729 166.253 227.723 166.196 227.691 166.151ZM225.31 162.341C225.255 162.256 225.142 162.23 225.055 162.284C224.967 162.338 224.939 162.454 224.994 162.542C225.048 162.63 225.163 162.657 225.251 162.604C225.339 162.548 225.367 162.431 225.311 162.343C225.311 162.342 225.311 162.342 225.31 162.341ZM222.936 158.533C222.878 158.447 222.763 158.421 222.674 158.474C222.587 158.531 222.562 158.647 222.619 158.734C222.673 158.818 222.783 158.844 222.87 158.795C222.957 158.738 222.987 158.624 222.936 158.533ZM213.688 176.809C213.588 176.786 213.489 176.848 213.466 176.948C213.466 176.949 213.466 176.95 213.465 176.951C213.439 177.047 213.496 177.145 213.592 177.171C213.595 177.172 213.597 177.172 213.6 177.173C213.702 177.194 213.803 177.132 213.83 177.032C213.848 176.932 213.786 176.835 213.688 176.809ZM214.699 172.432C214.6 172.409 214.5 172.471 214.478 172.571C214.477 172.572 214.477 172.573 214.477 172.574C214.451 172.67 214.508 172.769 214.604 172.794C214.607 172.795 214.609 172.795 214.611 172.796C214.71 172.819 214.808 172.759 214.833 172.661C214.858 172.561 214.799 172.46 214.699 172.432ZM215.711 168.055C215.611 168.032 215.512 168.094 215.489 168.194C215.489 168.195 215.489 168.196 215.488 168.197C215.461 168.289 215.514 168.387 215.606 168.414C215.612 168.416 215.617 168.417 215.623 168.418C215.723 168.441 215.822 168.379 215.845 168.28C215.845 168.278 215.845 168.277 215.846 168.276C215.867 168.179 215.808 168.081 215.711 168.055ZM216.715 163.677C216.615 163.659 216.518 163.721 216.492 163.819C216.471 163.92 216.535 164.02 216.636 164.041C216.734 164.062 216.83 164.003 216.856 163.907C216.878 163.805 216.816 163.705 216.715 163.677ZM217.734 159.301C217.632 159.28 217.531 159.342 217.504 159.442C217.482 159.543 217.545 159.643 217.646 159.665C217.746 159.688 217.846 159.625 217.869 159.524C217.869 159.524 217.869 159.523 217.869 159.523C217.887 159.425 217.829 159.33 217.734 159.301ZM234.235 163.021C234.152 162.961 234.037 162.979 233.977 163.061C233.975 163.063 233.974 163.065 233.973 163.067C233.913 163.144 233.927 163.254 234.003 163.313C234.007 163.316 234.01 163.318 234.013 163.32C234.092 163.382 234.207 163.368 234.269 163.288C234.271 163.285 234.272 163.283 234.274 163.281C234.333 163.198 234.316 163.083 234.235 163.021ZM230.575 160.409C230.489 160.354 230.375 160.374 230.314 160.456C230.255 160.541 230.275 160.658 230.36 160.717C230.447 160.774 230.564 160.749 230.62 160.662C230.674 160.579 230.655 160.469 230.575 160.409ZM226.915 157.806C226.832 157.745 226.716 157.762 226.655 157.845C226.655 157.845 226.654 157.845 226.654 157.845C226.599 157.932 226.619 158.045 226.7 158.107C226.786 158.166 226.903 158.145 226.962 158.061C227.02 157.981 227.002 157.869 226.923 157.811C226.92 157.809 226.918 157.808 226.915 157.806ZM223.244 174.825C223.144 174.847 223.079 174.943 223.094 175.044C223.111 175.144 223.206 175.211 223.306 175.194C223.407 175.178 223.477 175.084 223.463 174.983C223.445 174.879 223.348 174.809 223.244 174.825ZM222.505 170.393C222.405 170.416 222.339 170.512 222.354 170.613C222.371 170.713 222.467 170.78 222.567 170.763C222.664 170.749 222.732 170.659 222.718 170.561C222.718 170.558 222.717 170.554 222.716 170.55C222.7 170.449 222.606 170.38 222.505 170.393ZM221.764 165.969C221.667 165.983 221.599 166.073 221.613 166.171C221.613 166.174 221.614 166.178 221.615 166.182C221.632 166.282 221.727 166.349 221.827 166.331C221.927 166.313 221.994 166.219 221.977 166.119C221.963 166.022 221.873 165.954 221.775 165.968C221.771 165.968 221.768 165.969 221.764 165.969ZM221.025 161.538C220.924 161.554 220.854 161.648 220.868 161.749C220.875 161.789 220.894 161.825 220.921 161.854L220.928 161.855C220.971 161.895 221.031 161.911 221.087 161.899C221.187 161.882 221.255 161.787 221.238 161.687C221.221 161.587 221.126 161.52 221.026 161.537C221.025 161.538 221.025 161.538 221.025 161.538ZM220.285 157.106C220.252 157.11 220.221 157.124 220.197 157.147C220.188 157.186 220.164 157.221 220.131 157.243C220.127 157.267 220.125 157.293 220.128 157.317C220.144 157.418 220.238 157.488 220.339 157.474C220.443 157.457 220.513 157.359 220.498 157.256C220.48 157.156 220.385 157.09 220.285 157.106ZM206.605 171.131C206.521 171.072 206.407 171.089 206.344 171.17C206.284 171.253 206.302 171.369 206.385 171.429C206.387 171.43 206.388 171.431 206.39 171.432C206.467 171.492 206.577 171.478 206.637 171.401C206.639 171.398 206.641 171.395 206.643 171.392C206.705 171.313 206.691 171.198 206.611 171.136C206.609 171.135 206.607 171.133 206.605 171.131ZM209.208 167.471C209.121 167.414 209.004 167.439 208.947 167.527C208.894 167.609 208.913 167.72 208.992 167.779C209.078 167.837 209.194 167.817 209.254 167.733C209.315 167.652 209.298 167.537 209.217 167.477C209.214 167.475 209.211 167.473 209.208 167.471ZM217.04 156.5C216.954 156.444 216.84 156.465 216.778 156.546C216.719 156.632 216.74 156.749 216.825 156.808C216.912 156.865 217.029 156.84 217.085 156.752C217.138 156.669 217.119 156.559 217.04 156.5ZM232.109 162.741C232.068 162.696 231.998 162.693 231.952 162.735C231.907 162.776 231.904 162.846 231.946 162.892C231.987 162.937 232.057 162.94 232.103 162.898C232.146 162.856 232.149 162.787 232.109 162.741ZM230.303 160.808C230.261 160.762 230.191 160.76 230.146 160.801C230.1 160.842 230.098 160.913 230.139 160.958C230.18 161.003 230.251 161.006 230.296 160.965C230.339 160.922 230.342 160.853 230.303 160.808ZM228.489 158.866C228.449 158.823 228.383 158.821 228.34 158.86C228.295 158.894 228.287 158.959 228.321 159.004C228.324 159.009 228.329 159.013 228.333 159.017C228.373 159.06 228.44 159.062 228.483 159.023C228.527 158.988 228.535 158.923 228.5 158.878C228.497 158.873 228.493 158.869 228.489 158.866ZM221.584 166.621C221.524 166.618 221.474 166.665 221.472 166.725C221.47 166.785 221.517 166.836 221.577 166.837C221.637 166.839 221.687 166.793 221.689 166.733C221.691 166.673 221.644 166.623 221.584 166.621ZM221.672 163.973C221.615 163.968 221.565 164.011 221.56 164.069C221.56 164.072 221.56 164.074 221.56 164.077C221.558 164.137 221.605 164.188 221.664 164.189C221.726 164.193 221.778 164.147 221.784 164.086C221.785 164.025 221.736 163.974 221.675 163.973C221.674 163.973 221.673 163.973 221.672 163.973ZM221.768 161.325C221.711 161.321 221.66 161.364 221.656 161.421C221.656 161.424 221.655 161.427 221.655 161.43C221.653 161.49 221.7 161.54 221.76 161.542C221.82 161.544 221.871 161.497 221.872 161.437C221.874 161.377 221.828 161.327 221.768 161.325ZM221.856 158.677C221.846 158.674 221.835 158.676 221.826 158.68L221.818 158.679C221.775 158.696 221.746 158.736 221.744 158.782C221.742 158.842 221.789 158.892 221.848 158.894C221.896 158.893 221.939 158.863 221.956 158.819L221.96 158.789C221.965 158.732 221.922 158.682 221.864 158.677C221.862 158.677 221.859 158.677 221.856 158.677ZM217.318 156.606C217.278 156.563 217.211 156.561 217.169 156.6C217.125 156.642 217.123 156.711 217.162 156.757C217.205 156.8 217.273 156.803 217.319 156.764C217.363 156.721 217.363 156.652 217.321 156.609C217.32 156.608 217.319 156.607 217.318 156.606ZM226.897 164.395C226.88 164.34 226.821 164.309 226.766 164.326C226.763 164.327 226.759 164.329 226.756 164.33C226.7 164.349 226.67 164.409 226.689 164.465C226.69 164.467 226.691 164.469 226.691 164.471C226.716 164.525 226.776 164.553 226.833 164.536C226.889 164.515 226.918 164.452 226.897 164.395ZM225.964 161.906C225.943 161.852 225.883 161.825 225.829 161.846C225.827 161.847 225.824 161.848 225.822 161.849C225.767 161.871 225.738 161.933 225.758 161.99C225.782 162.044 225.843 162.071 225.899 162.054C225.957 162.034 225.987 161.971 225.967 161.913C225.966 161.91 225.965 161.908 225.964 161.906ZM225.037 159.425C225.013 159.372 224.952 159.344 224.896 159.361C224.839 159.382 224.811 159.445 224.831 159.502C224.849 159.557 224.908 159.588 224.963 159.571C224.967 159.57 224.97 159.569 224.973 159.567C225.029 159.548 225.059 159.488 225.039 159.432C225.039 159.429 225.038 159.427 225.037 159.425ZM224.111 156.945C224.086 156.891 224.026 156.863 223.969 156.88C223.913 156.902 223.884 156.965 223.905 157.021C223.922 157.077 223.981 157.107 224.036 157.09C224.04 157.089 224.043 157.088 224.046 157.086C224.103 157.064 224.131 157.001 224.111 156.945ZM216.699 164.066C216.65 164.04 216.588 164.059 216.562 164.108C216.559 164.113 216.558 164.117 216.556 164.121C216.532 164.176 216.556 164.24 216.611 164.265C216.667 164.289 216.73 164.264 216.755 164.209C216.779 164.154 216.754 164.09 216.699 164.066ZM217.799 161.655C217.75 161.629 217.688 161.648 217.662 161.697C217.66 161.702 217.658 161.706 217.656 161.711C217.63 161.763 217.651 161.826 217.703 161.852C217.704 161.852 217.704 161.853 217.704 161.853C217.761 161.878 217.827 161.854 217.855 161.798C217.879 161.745 217.856 161.681 217.803 161.657C217.802 161.656 217.8 161.656 217.799 161.655ZM218.899 159.245C218.845 159.218 218.779 159.239 218.75 159.292C218.723 159.348 218.748 159.416 218.804 159.442C218.861 159.469 218.928 159.444 218.955 159.388C218.977 159.333 218.952 159.27 218.899 159.245ZM220.045 156.885L220.046 156.878C220.035 156.855 220.016 156.837 219.993 156.825C219.939 156.804 219.876 156.828 219.85 156.881C219.84 156.899 219.837 156.92 219.842 156.94C219.846 156.979 219.87 157.013 219.905 157.031C219.958 157.056 220.021 157.033 220.046 156.979C220.047 156.978 220.047 156.977 220.048 156.976C220.065 156.948 220.064 156.912 220.045 156.885ZM234.032 165.353C233.998 165.296 233.924 165.278 233.868 165.312C233.867 165.313 233.866 165.313 233.865 165.314C233.807 165.348 233.787 165.423 233.82 165.481C233.822 165.484 233.823 165.487 233.825 165.489C233.859 165.546 233.933 165.564 233.99 165.53C233.991 165.529 233.992 165.529 233.993 165.528C234.051 165.489 234.069 165.412 234.032 165.353ZM232.401 162.804C232.367 162.748 232.293 162.729 232.237 162.764C232.235 162.764 232.235 162.765 232.234 162.766C232.175 162.803 232.157 162.882 232.195 162.941C232.232 163 232.311 163.018 232.37 162.98C232.427 162.944 232.443 162.869 232.407 162.812C232.405 162.809 232.403 162.807 232.401 162.804ZM230.777 160.257C230.739 160.198 230.661 160.18 230.602 160.217C230.543 160.254 230.525 160.333 230.562 160.392C230.562 160.392 230.563 160.392 230.563 160.393C230.562 160.4 230.569 160.401 230.575 160.409C230.618 160.453 230.685 160.462 230.738 160.432C230.796 160.394 230.813 160.317 230.777 160.257ZM229.145 157.709L229.12 157.675C229.112 157.674 229.106 157.666 229.091 157.664C229.053 157.643 229.007 157.645 228.971 157.669C228.911 157.707 228.894 157.785 228.931 157.845C228.969 157.904 229.047 157.921 229.107 157.884C229.165 157.846 229.183 157.768 229.145 157.709ZM221.42 167.53C221.353 167.521 221.289 167.564 221.271 167.629C221.257 167.696 221.298 167.761 221.364 167.777C221.425 167.796 221.49 167.761 221.509 167.699C221.51 167.695 221.511 167.69 221.512 167.685C221.53 167.617 221.489 167.548 221.421 167.53C221.421 167.53 221.421 167.53 221.42 167.53ZM222.07 164.576C222.002 164.567 221.939 164.61 221.921 164.676C221.906 164.742 221.947 164.808 222.013 164.824C222.081 164.841 222.15 164.801 222.168 164.733C222.168 164.733 222.168 164.733 222.168 164.733C222.18 164.663 222.138 164.595 222.07 164.576ZM222.719 161.622C222.651 161.613 222.588 161.656 222.57 161.721C222.555 161.788 222.596 161.853 222.662 161.869C222.725 161.887 222.79 161.851 222.807 161.789C222.809 161.782 222.811 161.776 222.811 161.77C222.826 161.704 222.785 161.638 222.719 161.622ZM223.368 158.668C223.3 158.657 223.235 158.7 223.219 158.768C223.204 158.834 223.246 158.9 223.311 158.916C223.374 158.933 223.439 158.897 223.457 158.835C223.459 158.829 223.46 158.822 223.46 158.816C223.475 158.75 223.435 158.684 223.368 158.668ZM237.411 159.785C237.356 159.744 237.278 159.755 237.237 159.81C237.236 159.811 237.235 159.812 237.235 159.813C237.197 159.871 237.209 159.947 237.263 159.99C237.319 160.03 237.397 160.017 237.437 159.96C237.438 159.958 237.439 159.957 237.44 159.955C237.479 159.899 237.466 159.824 237.411 159.785ZM234.93 158.051C234.873 158.012 234.795 158.024 234.753 158.079C234.714 158.136 234.727 158.214 234.783 158.253C234.785 158.255 234.787 158.256 234.789 158.257C234.844 158.295 234.919 158.282 234.958 158.228C234.998 158.171 234.986 158.093 234.93 158.051ZM227.762 166.183C227.752 166.116 227.69 166.07 227.623 166.08C227.621 166.08 227.62 166.081 227.618 166.081L227.611 166.08C227.547 166.096 227.505 166.159 227.516 166.225C227.526 166.292 227.588 166.338 227.655 166.328C227.657 166.328 227.658 166.327 227.66 166.327C227.677 166.322 227.694 166.314 227.708 166.303C227.75 166.279 227.771 166.231 227.762 166.183ZM227.084 163.098C227.016 163.114 226.972 163.18 226.981 163.249C226.999 163.316 227.065 163.357 227.133 163.345C227.199 163.332 227.241 163.268 227.228 163.202C227.228 163.201 227.228 163.201 227.228 163.2C227.216 163.133 227.152 163.087 227.084 163.098ZM226.556 160.124C226.488 160.135 226.443 160.2 226.454 160.268C226.465 160.336 226.529 160.381 226.597 160.37C226.665 160.359 226.711 160.295 226.7 160.227C226.69 160.16 226.627 160.114 226.56 160.124C226.559 160.124 226.558 160.124 226.556 160.124ZM226.021 157.149C225.955 157.162 225.913 157.226 225.926 157.292C225.926 157.293 225.926 157.293 225.926 157.294C225.935 157.357 225.995 157.401 226.058 157.392C226.063 157.391 226.067 157.39 226.071 157.389C226.139 157.377 226.184 157.313 226.173 157.245C226.158 157.177 226.091 157.134 226.022 157.149C226.022 157.149 226.022 157.149 226.021 157.149ZM216.38 163.706C216.327 163.668 216.252 163.681 216.215 163.735C216.213 163.737 216.211 163.74 216.21 163.742C216.172 163.797 216.185 163.873 216.239 163.912C216.295 163.953 216.372 163.942 216.414 163.887C216.415 163.885 216.415 163.885 216.416 163.883C216.455 163.825 216.439 163.746 216.38 163.706ZM218.114 161.225C218.055 161.187 217.976 161.203 217.936 161.261C217.899 161.315 217.912 161.389 217.966 161.427C217.968 161.429 217.971 161.43 217.973 161.431C218.023 161.471 218.096 161.461 218.136 161.411C218.138 161.408 218.14 161.405 218.142 161.402C218.183 161.345 218.171 161.267 218.115 161.225C218.115 161.225 218.115 161.225 218.114 161.225ZM219.848 158.745C219.791 158.705 219.713 158.718 219.674 158.775C219.672 158.777 219.671 158.778 219.67 158.78C219.632 158.837 219.647 158.915 219.705 158.953C219.761 158.991 219.837 158.977 219.876 158.921C219.914 158.864 219.901 158.788 219.848 158.745ZM238.455 158.11C238.358 158.042 238.225 158.064 238.155 158.159C238.086 158.257 238.109 158.392 238.206 158.461C238.3 158.528 238.431 158.509 238.502 158.417C238.57 158.319 238.549 158.184 238.455 158.11ZM232.241 178.625C232.123 178.643 232.041 178.752 232.056 178.87C232.076 178.986 232.186 179.065 232.303 179.047C232.419 179.027 232.5 178.92 232.487 178.802C232.467 178.685 232.357 178.606 232.241 178.625ZM231.432 173.5C231.315 173.519 231.236 173.629 231.255 173.746C231.274 173.863 231.384 173.942 231.501 173.923C231.618 173.904 231.697 173.794 231.678 173.677C231.658 173.561 231.548 173.481 231.432 173.5ZM230.63 168.377C230.513 168.391 230.431 168.498 230.445 168.615C230.46 168.732 230.567 168.814 230.683 168.8C230.687 168.799 230.689 168.799 230.692 168.798C230.81 168.78 230.892 168.671 230.877 168.553C230.857 168.437 230.747 168.358 230.63 168.377ZM229.821 163.251C229.706 163.269 229.626 163.377 229.643 163.493C229.643 163.494 229.644 163.496 229.644 163.497C229.663 163.614 229.774 163.693 229.891 163.674C230.007 163.655 230.087 163.545 230.067 163.428C230.05 163.313 229.942 163.233 229.826 163.25C229.824 163.251 229.823 163.251 229.821 163.251ZM229.02 158.128C228.903 158.146 228.824 158.255 228.843 158.372C228.861 158.486 228.967 158.565 229.082 158.549C229.199 158.531 229.281 158.422 229.266 158.305C229.247 158.188 229.136 158.109 229.02 158.128ZM211.172 173.537C211.074 173.468 210.939 173.491 210.87 173.589C210.803 173.683 210.823 173.813 210.914 173.884C211.012 173.952 211.147 173.931 211.221 173.837C211.287 173.74 211.266 173.608 211.172 173.537ZM214.225 169.345C214.129 169.275 213.995 169.296 213.925 169.392C213.855 169.488 213.876 169.622 213.972 169.692C213.972 169.693 213.973 169.693 213.974 169.693C214.07 169.763 214.204 169.742 214.274 169.646C214.343 169.55 214.323 169.416 214.227 169.346C214.226 169.346 214.225 169.345 214.225 169.345ZM217.278 165.153C217.186 165.081 217.054 165.098 216.982 165.19C216.981 165.191 216.98 165.193 216.979 165.194C216.911 165.293 216.931 165.428 217.026 165.501C217.123 165.569 217.256 165.548 217.326 165.453C217.396 165.359 217.377 165.227 217.283 165.157C217.282 165.156 217.279 165.154 217.278 165.153ZM220.331 160.961C220.239 160.889 220.107 160.906 220.035 160.998C220.034 160.999 220.033 161.001 220.031 161.002C219.964 161.101 219.985 161.235 220.079 161.309C220.175 161.377 220.309 161.356 220.379 161.261C220.45 161.172 220.435 161.042 220.346 160.972C220.341 160.968 220.336 160.964 220.331 160.961ZM223.391 156.762C223.295 156.695 223.162 156.716 223.091 156.811C223.022 156.909 223.045 157.044 223.143 157.113C223.238 157.181 223.368 157.162 223.439 157.07C223.507 156.971 223.487 156.836 223.391 156.762ZM236.437 163.889C236.375 163.787 236.241 163.755 236.139 163.818C236.037 163.881 236.005 164.014 236.068 164.116C236.131 164.218 236.264 164.25 236.366 164.187C236.466 164.123 236.498 163.991 236.437 163.889ZM233.735 159.464C233.674 159.362 233.542 159.329 233.44 159.39C233.439 159.391 233.438 159.392 233.437 159.393C233.336 159.457 233.305 159.589 233.366 159.691C233.431 159.791 233.565 159.82 233.666 159.754C233.763 159.692 233.793 159.564 233.735 159.464ZM222.127 175.888C222.014 175.861 221.9 175.93 221.873 176.044C221.873 176.045 221.873 176.046 221.872 176.048C221.843 176.161 221.911 176.277 222.024 176.309C222.139 176.332 222.253 176.263 222.287 176.15C222.315 176.033 222.244 175.916 222.128 175.888C222.128 175.888 222.128 175.888 222.127 175.888ZM223.344 170.848C223.234 170.818 223.121 170.884 223.092 170.994C223.091 170.999 223.09 171.003 223.089 171.008C223.061 171.121 223.129 171.234 223.241 171.262C223.241 171.262 223.241 171.262 223.242 171.262C223.358 171.291 223.475 171.22 223.504 171.104V171.103C223.533 170.993 223.467 170.881 223.358 170.851C223.353 170.849 223.348 170.849 223.344 170.848ZM224.561 165.8C224.443 165.776 224.329 165.85 224.304 165.968C224.28 166.082 224.351 166.195 224.465 166.223C224.578 166.25 224.692 166.18 224.719 166.067C224.719 166.065 224.719 166.064 224.72 166.063C224.749 165.946 224.678 165.829 224.561 165.8C224.561 165.8 224.561 165.8 224.561 165.8ZM225.777 160.76C225.662 160.735 225.548 160.806 225.522 160.92C225.495 161.035 225.568 161.149 225.683 161.175C225.794 161.201 225.906 161.133 225.936 161.022C225.965 160.906 225.894 160.789 225.777 160.76C225.777 160.76 225.777 160.76 225.777 160.76ZM219.403 156.316C219.34 156.213 219.207 156.182 219.104 156.244C219.002 156.307 218.97 156.44 219.033 156.542C219.094 156.642 219.224 156.673 219.324 156.613C219.427 156.553 219.463 156.421 219.404 156.317C219.403 156.317 219.403 156.316 219.403 156.316ZM238.093 160.503C238.032 160.408 237.905 160.38 237.81 160.441C237.807 160.443 237.803 160.445 237.8 160.448C237.702 160.514 237.674 160.646 237.736 160.747C237.807 160.84 237.937 160.864 238.037 160.803C238.135 160.738 238.162 160.605 238.096 160.507C238.095 160.505 238.094 160.504 238.093 160.503ZM225.263 177.562C225.146 177.537 225.031 177.613 225.007 177.729C224.983 177.846 225.058 177.961 225.175 177.985C225.291 178.01 225.406 177.935 225.43 177.818C225.455 177.701 225.38 177.586 225.263 177.562ZM226.265 172.492C226.147 172.474 226.035 172.55 226.008 172.667C225.99 172.781 226.063 172.89 226.176 172.916C226.293 172.94 226.408 172.865 226.432 172.748C226.454 172.632 226.38 172.519 226.265 172.492ZM227.259 167.429C227.144 167.406 227.032 167.482 227.01 167.597C226.988 167.712 227.063 167.824 227.179 167.846C227.295 167.87 227.41 167.795 227.435 167.678C227.452 167.562 227.375 167.452 227.259 167.429ZM228.261 162.359C228.148 162.336 228.037 162.409 228.013 162.523C228.013 162.525 228.012 162.526 228.012 162.528C227.991 162.643 228.066 162.753 228.181 162.777C228.291 162.802 228.402 162.732 228.427 162.621C228.428 162.617 228.429 162.613 228.43 162.608C228.453 162.494 228.38 162.384 228.266 162.36C228.265 162.36 228.263 162.359 228.261 162.359ZM215.878 159.841C215.817 159.745 215.69 159.718 215.595 159.779C215.592 159.781 215.588 159.783 215.585 159.785C215.488 159.849 215.459 159.979 215.522 160.077C215.589 160.176 215.721 160.204 215.821 160.141C215.919 160.076 215.946 159.943 215.88 159.845C215.88 159.844 215.879 159.842 215.878 159.841ZM220.17 156.963C220.142 156.92 220.096 156.892 220.045 156.885L220.046 156.878C219.988 156.864 219.927 156.874 219.877 156.907C219.862 156.914 219.85 156.925 219.842 156.94C219.759 157.022 219.757 157.156 219.839 157.239C219.911 157.314 220.028 157.324 220.113 157.263C220.121 157.257 220.13 157.25 220.131 157.243C220.164 157.221 220.188 157.186 220.196 157.147C220.218 157.085 220.207 157.017 220.17 156.963ZM234.912 169.698C234.795 169.722 234.719 169.835 234.741 169.953C234.767 170.068 234.881 170.141 234.997 170.116C235.111 170.095 235.187 169.985 235.167 169.87C235.167 169.87 235.167 169.869 235.166 169.869C235.14 169.753 235.028 169.678 234.912 169.698ZM233.9 164.628C233.784 164.653 233.709 164.765 233.729 164.882C233.751 164.998 233.863 165.074 233.979 165.052C234.094 165.029 234.17 164.918 234.148 164.802C234.147 164.801 234.147 164.799 234.147 164.797C234.126 164.682 234.016 164.606 233.902 164.627C233.901 164.627 233.9 164.627 233.9 164.628ZM232.879 159.564C232.763 159.588 232.687 159.701 232.709 159.818C232.736 159.935 232.852 160.007 232.969 159.98C233.08 159.954 233.152 159.847 233.134 159.734C233.11 159.617 232.997 159.542 232.879 159.564ZM216.654 171.125C216.559 171.06 216.429 171.085 216.365 171.181C216.363 171.184 216.361 171.186 216.36 171.189C216.295 171.286 216.32 171.417 216.417 171.482C216.515 171.549 216.65 171.524 216.718 171.426C216.784 171.328 216.758 171.195 216.66 171.128C216.658 171.127 216.656 171.125 216.654 171.125ZM219.519 166.824C219.423 166.759 219.294 166.785 219.23 166.88C219.228 166.883 219.226 166.885 219.225 166.888C219.16 166.985 219.185 167.116 219.282 167.181C219.38 167.248 219.515 167.223 219.583 167.125C219.649 167.027 219.623 166.894 219.525 166.827C219.523 166.826 219.521 166.825 219.519 166.824ZM222.384 162.523C222.285 162.46 222.153 162.489 222.089 162.587C222.024 162.684 222.05 162.815 222.146 162.881C222.245 162.947 222.379 162.922 222.447 162.825C222.513 162.726 222.487 162.593 222.389 162.526C222.388 162.525 222.386 162.524 222.384 162.523ZM225.249 158.222C225.149 158.163 225.02 158.191 224.954 158.286C224.889 158.383 224.915 158.514 225.011 158.58C225.11 158.645 225.243 158.62 225.312 158.524C225.378 158.424 225.351 158.29 225.251 158.223C225.251 158.223 225.25 158.222 225.249 158.222ZM217.481 155.591C217.447 155.508 217.352 155.468 217.268 155.501C217.185 155.535 217.145 155.631 217.179 155.714C217.213 155.798 217.308 155.838 217.391 155.804C217.474 155.769 217.514 155.675 217.481 155.591ZM237.371 158.118C237.339 158.037 237.248 157.997 237.167 158.029C237.167 158.029 237.166 158.029 237.165 158.03C237.08 158.061 237.036 158.154 237.067 158.239C237.098 158.324 237.191 158.368 237.276 158.337C237.361 158.307 237.405 158.213 237.375 158.128C237.374 158.125 237.372 158.121 237.371 158.118ZM225.236 168.689C225.16 168.651 225.067 168.681 225.028 168.757C225.026 168.762 225.023 168.767 225.022 168.773C224.986 168.854 225.023 168.949 225.106 168.985C225.187 169.021 225.283 168.983 225.318 168.901C225.353 168.82 225.316 168.726 225.236 168.689ZM226.769 165.106C226.689 165.069 226.594 165.104 226.557 165.184C226.556 165.186 226.555 165.188 226.555 165.189C226.518 165.272 226.555 165.368 226.638 165.404C226.72 165.44 226.816 165.403 226.852 165.321C226.888 165.238 226.851 165.142 226.769 165.106ZM228.302 161.523C228.22 161.486 228.124 161.524 228.088 161.606C228.051 161.688 228.089 161.784 228.171 161.82C228.253 161.857 228.349 161.819 228.385 161.737C228.419 161.655 228.383 161.561 228.302 161.523ZM229.835 157.94C229.751 157.907 229.655 157.947 229.619 158.03C229.587 158.113 229.627 158.205 229.709 158.238C229.71 158.238 229.71 158.238 229.711 158.238C229.789 158.273 229.881 158.238 229.915 158.159C229.916 158.157 229.917 158.156 229.918 158.154C229.955 158.074 229.92 157.979 229.84 157.942C229.839 157.941 229.837 157.941 229.835 157.94ZM233.423 168.342C233.335 168.34 233.261 168.409 233.259 168.498C233.259 168.498 233.259 168.499 233.259 168.499C233.261 168.586 233.33 168.658 233.417 168.664C233.505 168.665 233.578 168.594 233.581 168.506C233.586 168.42 233.521 168.347 233.435 168.341C233.431 168.342 233.427 168.342 233.423 168.342ZM233.466 164.447C233.38 164.446 233.31 164.514 233.309 164.6C233.309 164.602 233.309 164.604 233.309 164.606C233.307 164.694 233.376 164.768 233.465 164.77C233.465 164.77 233.466 164.77 233.466 164.77C233.556 164.767 233.628 164.695 233.632 164.605C233.631 164.517 233.557 164.446 233.468 164.447C233.468 164.447 233.467 164.447 233.466 164.447ZM233.518 160.546C233.428 160.549 233.355 160.621 233.352 160.711C233.35 160.796 233.417 160.867 233.502 160.869C233.505 160.869 233.507 160.869 233.511 160.869C233.596 160.873 233.67 160.808 233.675 160.723C233.675 160.719 233.675 160.715 233.675 160.711C233.678 160.623 233.608 160.549 233.519 160.547C233.519 160.546 233.518 160.546 233.518 160.546ZM219.783 162.636C219.726 162.572 219.627 162.566 219.563 162.623C219.562 162.625 219.56 162.626 219.559 162.627C219.494 162.686 219.489 162.786 219.547 162.851C219.55 162.854 219.553 162.857 219.556 162.86C219.618 162.922 219.719 162.923 219.782 162.861C219.844 162.799 219.845 162.699 219.783 162.636ZM222.573 159.911C222.507 159.85 222.407 159.849 222.34 159.909C222.277 159.974 222.28 160.079 222.346 160.141C222.409 160.201 222.507 160.202 222.571 160.144C222.631 160.078 222.632 159.977 222.573 159.911ZM225.361 157.193C225.302 157.128 225.201 157.124 225.136 157.183C225.134 157.186 225.131 157.188 225.128 157.191C225.068 157.253 225.067 157.353 225.127 157.416C225.191 157.479 225.293 157.477 225.356 157.414C225.416 157.353 225.418 157.256 225.361 157.193ZM234.491 159.817C234.443 159.805 234.395 159.836 234.383 159.884C234.372 159.932 234.403 159.98 234.451 159.991C234.454 159.992 234.456 159.992 234.459 159.993C234.507 159.999 234.552 159.965 234.559 159.916C234.566 159.87 234.536 159.827 234.491 159.817ZM234.856 157.718C234.81 157.709 234.765 157.741 234.756 157.787C234.756 157.789 234.755 157.792 234.755 157.794C234.744 157.837 234.77 157.88 234.812 157.891C234.816 157.892 234.82 157.893 234.824 157.893C234.87 157.902 234.915 157.873 234.923 157.827C234.923 157.826 234.924 157.825 234.924 157.825C234.931 157.777 234.902 157.732 234.856 157.718ZM232.023 163.15C231.96 163.109 231.875 163.126 231.834 163.189C231.832 163.192 231.83 163.195 231.828 163.199C231.785 163.258 231.798 163.341 231.857 163.385C231.861 163.387 231.865 163.39 231.869 163.393C231.935 163.437 232.025 163.419 232.07 163.353C232.113 163.288 232.096 163.2 232.031 163.156C232.028 163.153 232.025 163.152 232.023 163.15ZM233.901 160.163C233.832 160.121 233.743 160.142 233.699 160.21C233.656 160.275 233.673 160.363 233.738 160.407C233.741 160.409 233.744 160.411 233.747 160.413C233.809 160.454 233.894 160.437 233.935 160.374C233.937 160.371 233.939 160.368 233.941 160.364C233.986 160.301 233.971 160.213 233.908 160.168C233.906 160.166 233.903 160.165 233.901 160.163Z" fill="white"/>
<path d="M219.328 96.2074C219.325 96.2069 219.322 96.2056 219.32 96.2034C216.373 97.6149 213.72 99.5687 211.496 101.962L205.09 148.416C221.616 160.52 236.76 157.306 239.731 156.507C240.078 156.411 240.258 156.351 240.258 156.351C243.649 113.52 219.863 96.5829 219.328 96.2074Z" fill="url(#paint12_linear_23:1349)"/>
<path d="M211.497 101.964C211.497 101.964 209.321 113.726 203.364 122.196C199.757 127.325 195.209 128.487 186.889 125.204C179.358 122.232 176.436 120.41 176.436 120.41L170.724 141.842C170.724 141.842 179.263 154.935 190.648 151.519C200.005 148.712 205.428 155.667 210.288 155.22C221.104 154.224 223.474 151.604 226.797 136.149C230.12 120.694 224.805 103.274 219.32 96.2056" fill="#23286B"/>
<path d="M209.576 94.7583C209.576 94.7583 211.818 100.042 211.498 101.964C213.814 99.6774 216.449 97.7379 219.32 96.2054C219.32 96.2054 215.581 91.1556 215.581 90.1147L209.576 94.7583Z" fill="url(#paint13_linear_23:1349)"/>
<path d="M205.88 95.272C202.722 94.372 200.88 91.5418 200.239 91.7031C199.596 91.8605 198.144 91.8707 197.904 91.2058C197.67 90.5422 198.769 88.0605 198.23 85.5351C198.176 85.3009 198.135 85.0765 198.098 84.8489C198.097 84.8378 198.094 84.8338 198.099 84.8236L198.081 84.7009C198.06 84.5489 198.029 84.2862 198.009 83.9418C199.837 84.6054 201.465 84.6618 202.187 84.1774C204.232 82.8085 204.65 84.2071 206.989 85.6982C209.333 87.1902 211.121 85.9911 213.883 84.9814C216.648 83.976 217.078 86.8196 216.1 87.9302C215.125 89.0449 214.34 89.5885 215.134 90.6609C215.262 90.8942 215.437 91.0982 215.649 91.2596L215.387 91.5316C215.304 91.6178 215.217 91.6996 215.126 91.7773L213.862 92.8587C211.584 94.788 208.84 96.12 205.88 95.272Z" fill="#FFBEB6"/>
<path d="M234.355 86.6218L197.494 82.0383L197.663 80.676L233.661 85.152C234.138 85.2111 234.477 85.6458 234.417 86.1227L234.355 86.6218Z" fill="#E94A47"/>
<path d="M221.584 83.6433L197.661 80.6686L197.99 78.0273C198.58 73.2788 202.908 69.9081 207.656 70.4988L214.026 71.2908C218.972 71.9059 222.483 76.4139 221.868 81.3601L221.584 83.6433Z" fill="url(#paint14_linear_23:1349)"/>
<path d="M215.649 91.2602C215.649 91.2602 217.477 91.9033 219.736 89.5344C221.994 87.1655 221.754 85.0033 221.754 85.0033C221.754 85.0033 199.04 82.1491 198.267 82.094C197.494 82.0389 197.775 81.9717 195.108 79.5726C192.441 77.1735 190.785 80.6837 192.551 83.298C194.317 85.9122 199.31 85.3442 201.387 84.5215C203.463 83.6989 204.297 83.4566 205.914 85.1971C207.531 86.9375 210.729 87.0735 213.183 85.3202C215.637 83.5669 217.63 86.1953 215.661 88.1846C213.692 90.174 215.649 91.2602 215.649 91.2602Z" fill="#23286B"/>
<path d="M200.286 87.0192C199.7 87.9009 198.51 88.1405 197.628 87.5543C197.309 87.3418 197.061 87.0387 196.915 86.6841C196.803 86.4147 197.203 86.1889 197.317 86.4618C197.594 87.2192 198.432 87.6085 199.189 87.3316C199.474 87.2272 199.72 87.0365 199.892 86.7854C200.061 86.5458 200.457 86.7778 200.286 87.0192Z" fill="#1C2868"/>
<defs>
<linearGradient id="paint0_linear_23:1349" x1="287.498" y1="114.457" x2="281.842" y2="280.584" gradientUnits="userSpaceOnUse">
<stop offset="0.0898" stop-color="#EEEEEE"/>
<stop offset="0.8178" stop-color="#D6D7D8"/>
</linearGradient>
<linearGradient id="paint1_linear_23:1349" x1="260.806" y1="217.908" x2="330.79" y2="355.048" gradientUnits="userSpaceOnUse">
<stop offset="0.0898" stop-color="#EEEEEE"/>
<stop offset="0.8178" stop-color="#D6D7D8"/>
</linearGradient>
<linearGradient id="paint2_linear_23:1349" x1="298.612" y1="257.758" x2="289.753" y2="186.261" gradientUnits="userSpaceOnUse">
<stop offset="0.0898" stop-color="#EEEEEE"/>
<stop offset="0.8178" stop-color="#D6D7D8"/>
</linearGradient>
<linearGradient id="paint3_linear_23:1349" x1="307.02" y1="439.307" x2="283.503" y2="249.49" gradientUnits="userSpaceOnUse">
<stop offset="0.0898" stop-color="#EEEEEE"/>
<stop offset="0.8178" stop-color="#D6D7D8"/>
</linearGradient>
<linearGradient id="paint4_linear_23:1349" x1="287.117" y1="207.122" x2="287.457" y2="222.072" gradientUnits="userSpaceOnUse">
<stop offset="0.0898" stop-color="#EEEEEE"/>
<stop offset="0.8178" stop-color="#D6D7D8"/>
</linearGradient>
<linearGradient id="paint5_linear_23:1349" x1="238.409" y1="294.33" x2="194.428" y2="266.776" gradientUnits="userSpaceOnUse">
<stop offset="0.1291" stop-color="#428DFC"/>
<stop offset="0.9987" stop-color="#1D72D8"/>
</linearGradient>
<linearGradient id="paint6_linear_23:1349" x1="178.12" y1="96.178" x2="175.047" y2="112.382" gradientUnits="userSpaceOnUse">
<stop stop-color="#FFBEB6"/>
<stop offset="1" stop-color="#F2A19C"/>
</linearGradient>
<linearGradient id="paint7_linear_23:1349" x1="166.361" y1="118.06" x2="175.386" y2="127.153" gradientUnits="userSpaceOnUse">
<stop stop-color="#FFBEB6"/>
<stop offset="1" stop-color="#F2A19C"/>
</linearGradient>
<linearGradient id="paint8_linear_23:1349" x1="203.761" y1="99.8766" x2="195.074" y2="133.814" gradientUnits="userSpaceOnUse">
<stop stop-color="#23286B"/>
<stop offset="0.361" stop-color="#1E2361"/>
<stop offset="1" stop-color="#151A4F"/>
</linearGradient>
<linearGradient id="paint9_linear_23:1349" x1="107.151" y1="156.594" x2="240.694" y2="218.527" gradientUnits="userSpaceOnUse">
<stop stop-color="#A1C3FC"/>
<stop offset="0.6955" stop-color="#81AEF2"/>
<stop offset="1" stop-color="#78A9EF"/>
</linearGradient>
<linearGradient id="paint10_linear_23:1349" x1="134.39" y1="85.9665" x2="198.191" y2="150.439" gradientUnits="userSpaceOnUse">
<stop offset="0.0898" stop-color="#EEEEEE"/>
<stop offset="0.8178" stop-color="#D6D7D8"/>
</linearGradient>
<linearGradient id="paint11_linear_23:1349" x1="143.729" y1="76.7247" x2="207.531" y2="141.198" gradientUnits="userSpaceOnUse">
<stop offset="0.0898" stop-color="#EEEEEE"/>
<stop offset="0.8178" stop-color="#D6D7D8"/>
</linearGradient>
<linearGradient id="paint12_linear_23:1349" x1="233.722" y1="108.173" x2="213.449" y2="162.402" gradientUnits="userSpaceOnUse">
<stop stop-color="#23286B"/>
<stop offset="0.361" stop-color="#1E2361"/>
<stop offset="1" stop-color="#151A4F"/>
</linearGradient>
<linearGradient id="paint13_linear_23:1349" x1="217.912" y1="97.2454" x2="211.52" y2="95.4821" gradientUnits="userSpaceOnUse">
<stop stop-color="#FFBEB6"/>
<stop offset="1" stop-color="#F29B94"/>
</linearGradient>
<linearGradient id="paint14_linear_23:1349" x1="209.792" y1="79.5854" x2="218.733" y2="102.422" gradientUnits="userSpaceOnUse">
<stop stop-color="#E94A47"/>
<stop offset="0.8467" stop-color="#A74A47"/>
</linearGradient>
</defs>
</svg>
