<svg width="320" height="320" viewBox="0 0 320 320" fill="none" xmlns="http://www.w3.org/2000/svg">
<path d="M132.054 180.267C153.85 180.267 171.52 162.597 171.52 140.8C171.52 119.003 153.85 101.333 132.054 101.333C110.257 101.333 92.5869 119.003 92.5869 140.8C92.5869 162.597 110.257 180.267 132.054 180.267Z" fill="#D6E5FE"/>
<path d="M141.711 119.521C141.711 115.103 145.327 111.521 149.788 111.521C154.25 111.521 157.865 115.103 157.865 119.521C158.02 119.366 141.711 119.521 141.711 119.521Z" fill="white"/>
<path d="M158.884 119.521H156.845C156.845 115.636 153.679 112.464 149.789 112.464C145.899 112.464 142.732 115.638 142.732 119.521H140.693C140.693 114.569 144.773 110.425 149.789 110.425C154.805 110.425 158.884 114.569 158.884 119.521Z" fill="#A1C3FC"/>
<path d="M144.107 157.477C148.526 157.477 152.108 161.092 152.108 165.554C152.108 170.015 148.526 173.631 144.107 173.631C144.107 173.631 144.123 157.461 144.107 157.477Z" fill="white"/>
<path d="M144.107 174.648V172.608C147.992 172.608 151.164 169.442 151.164 165.552C151.164 161.66 147.99 158.495 144.107 158.495V156.456C149.059 156.456 153.203 160.536 153.203 165.552C153.203 170.568 149.059 174.648 144.107 174.648Z" fill="#A1C3FC"/>
<path d="M104.663 132.3C100.245 132.3 96.9388 135.924 96.6628 140.377C96.3029 146.188 104.562 148.832 104.663 148.454V132.3Z" fill="white"/>
<path d="M104.663 149.471V147.432C100.779 147.432 97.6065 144.265 97.6065 140.375C97.6065 136.485 100.781 133.319 104.663 133.319V131.28C99.7111 131.28 95.5674 135.359 95.5674 140.375C95.5674 145.391 99.7111 149.471 104.663 149.471Z" fill="#A1C3FC"/>
<path d="M155.189 129.639H142.297L152.562 116.403L154.64 118.016L147.666 127.008H155.189V129.639Z" fill="#A1C3FC"/>
<path d="M100.396 156.33L102.476 157.942L111.095 146.826L109.016 145.214L100.396 156.33Z" fill="#A1C3FC"/>
<path d="M141.082 163.481H138.451V150.824H151.333V153.455H141.082V163.481Z" fill="#A1C3FC"/>
<path d="M137.299 162.896C137.274 162.812 137.321 162.724 137.406 162.697C137.486 162.675 137.571 162.724 137.593 162.804C137.593 162.806 137.595 162.808 137.595 162.808C137.62 162.896 137.573 162.985 137.488 163.009C137.406 163.028 137.323 162.977 137.299 162.896ZM140.984 161.857C140.959 161.773 141.006 161.682 141.093 161.658C141.177 161.634 141.267 161.681 141.292 161.767C141.316 161.851 141.269 161.942 141.183 161.966C141.1 161.987 141.012 161.94 140.984 161.857ZM139.204 146.754C139.245 146.678 139.341 146.65 139.416 146.691C139.492 146.733 139.52 146.829 139.478 146.904C139.437 146.979 139.341 147.007 139.266 146.966C139.189 146.924 139.161 146.83 139.204 146.754ZM145.894 150.493C145.936 150.418 146.031 150.39 146.107 150.431C146.184 150.476 146.212 150.572 146.174 150.653C146.125 150.728 146.028 150.753 145.947 150.711C145.874 150.664 145.849 150.568 145.894 150.493ZM149.236 152.367C149.277 152.292 149.373 152.263 149.448 152.305C149.525 152.35 149.555 152.448 149.516 152.526C149.474 152.602 149.378 152.63 149.303 152.589C149.224 152.544 149.196 152.446 149.236 152.367ZM151.861 136.885C151.836 136.801 151.884 136.711 151.97 136.686C152.047 136.662 152.13 136.703 152.154 136.778C152.156 136.784 152.158 136.791 152.158 136.799C152.184 136.88 152.141 136.966 152.06 136.993C151.976 137.019 151.885 136.972 151.861 136.885ZM138.691 155.035C138.7 154.951 138.775 154.891 138.86 154.898C138.945 154.908 139.005 154.983 138.997 155.068C138.99 155.152 138.913 155.212 138.828 155.205C138.747 155.201 138.685 155.131 138.691 155.05C138.689 155.047 138.691 155.041 138.691 155.035ZM146.298 155.928C146.311 155.845 146.39 155.789 146.473 155.802C146.557 155.811 146.619 155.885 146.61 155.969C146.601 156.054 146.527 156.116 146.443 156.106H146.441C146.352 156.097 146.289 156.022 146.298 155.935L146.3 155.932L146.298 155.928ZM150.108 156.385C150.111 156.304 150.181 156.242 150.262 156.248C150.265 156.248 150.273 156.248 150.277 156.249C150.363 156.257 150.427 156.334 150.42 156.421C150.42 156.422 150.42 156.426 150.418 156.428C150.408 156.513 150.333 156.573 150.249 156.565C150.162 156.556 150.098 156.479 150.106 156.392C150.108 156.388 150.108 156.385 150.108 156.385ZM145.772 142.296C145.723 142.222 145.736 142.125 145.802 142.066C145.871 142.012 145.975 142.023 146.031 142.096C146.087 142.168 146.074 142.269 146.001 142.326C145.928 142.375 145.83 142.361 145.772 142.296ZM148.146 145.302C148.095 145.233 148.11 145.135 148.179 145.083C148.242 145.026 148.337 145.03 148.394 145.092C148.395 145.096 148.399 145.1 148.403 145.103C148.456 145.175 148.443 145.274 148.373 145.332C148.302 145.381 148.204 145.368 148.146 145.302ZM122.184 158.89C122.189 158.726 122.328 158.599 122.492 158.604C122.495 158.604 122.499 158.604 122.503 158.604C122.665 158.612 122.791 158.749 122.783 158.912V158.914C122.777 159.08 122.638 159.207 122.475 159.202C122.471 159.202 122.467 159.202 122.464 159.202C122.302 159.194 122.176 159.057 122.184 158.893V158.89ZM129.435 159.256C129.445 159.089 129.588 158.961 129.755 158.971C129.922 158.98 130.05 159.123 130.041 159.29C130.033 159.452 129.896 159.578 129.733 159.57H129.731C129.563 159.561 129.434 159.422 129.435 159.256ZM136.695 159.617C136.705 159.45 136.848 159.322 137.015 159.331C137.182 159.341 137.31 159.484 137.3 159.651C137.291 159.818 137.148 159.946 136.981 159.936C136.818 159.931 136.69 159.792 136.695 159.628C136.695 159.625 136.695 159.621 136.695 159.617ZM128.118 131.112C128.009 130.986 128.021 130.798 128.145 130.687C128.259 130.577 128.442 130.579 128.554 130.691C128.558 130.695 128.562 130.699 128.566 130.702C128.675 130.826 128.663 131.016 128.539 131.127C128.419 131.24 128.231 131.232 128.118 131.112ZM132.984 136.498C132.873 136.376 132.88 136.184 133.005 136.072C133.127 135.961 133.318 135.968 133.431 136.093C133.433 136.094 133.435 136.096 133.437 136.098C133.547 136.218 133.54 136.406 133.42 136.517C133.29 136.626 133.102 136.619 132.984 136.498ZM137.862 141.89C137.752 141.77 137.759 141.582 137.881 141.473C137.883 141.471 137.887 141.469 137.889 141.465C138.003 141.354 138.186 141.356 138.298 141.469C138.302 141.472 138.306 141.476 138.31 141.48C138.417 141.608 138.407 141.798 138.289 141.916C138.163 142.025 137.975 142.012 137.862 141.89ZM147.608 152.666C147.497 152.545 147.505 152.359 147.623 152.248C147.743 152.138 147.93 152.145 148.041 152.263C148.042 152.265 148.046 152.269 148.048 152.271C148.161 152.389 148.153 152.575 148.035 152.686C148.033 152.688 148.031 152.688 148.03 152.69C147.907 152.803 147.719 152.79 147.608 152.666ZM127.293 170.786C127.239 170.628 127.321 170.457 127.479 170.402C127.635 170.348 127.808 170.43 127.863 170.588C127.863 170.588 127.863 170.59 127.864 170.592C127.917 170.75 127.833 170.921 127.677 170.975C127.521 171.03 127.351 170.949 127.295 170.793C127.295 170.789 127.293 170.787 127.293 170.786ZM134.145 168.35C134.085 168.198 134.158 168.027 134.311 167.967C134.461 167.906 134.634 167.98 134.694 168.132C134.696 168.14 134.7 168.145 134.702 168.153C134.756 168.305 134.675 168.474 134.521 168.529C134.367 168.581 134.201 168.502 134.145 168.35ZM121.637 145.22C121.712 145.073 121.89 145.015 122.039 145.092C122.185 145.167 122.244 145.346 122.167 145.494C122.093 145.637 121.919 145.697 121.774 145.628C121.625 145.549 121.563 145.368 121.637 145.22ZM128.199 148.336C128.274 148.189 128.453 148.131 128.601 148.208C128.748 148.283 128.806 148.461 128.729 148.61C128.656 148.753 128.481 148.813 128.335 148.742C128.188 148.667 128.128 148.486 128.199 148.336ZM134.76 151.442C134.837 151.292 135.021 151.234 135.171 151.311C135.316 151.384 135.378 151.559 135.312 151.707C135.244 151.861 135.062 151.931 134.908 151.861C134.754 151.792 134.684 151.611 134.754 151.457C134.756 151.453 134.756 151.448 134.76 151.442ZM142.089 126.634C142.036 126.476 142.121 126.305 142.277 126.251C142.429 126.194 142.596 126.273 142.653 126.425L142.654 126.429C142.717 126.576 142.649 126.745 142.502 126.807C142.494 126.809 142.489 126.812 142.479 126.816C142.322 126.867 142.153 126.788 142.089 126.634ZM144.532 133.48C144.481 133.322 144.562 133.151 144.714 133.089C144.872 133.037 145.043 133.121 145.097 133.277C145.152 133.433 145.071 133.602 144.915 133.659C144.913 133.659 144.911 133.66 144.91 133.66C144.757 133.717 144.59 133.638 144.534 133.486C144.532 133.482 144.532 133.482 144.532 133.48ZM146.969 140.317C146.911 140.168 146.984 140.001 147.133 139.945C147.136 139.943 147.142 139.941 147.146 139.941C147.298 139.881 147.473 139.956 147.533 140.108C147.535 140.114 147.536 140.118 147.538 140.122C147.593 140.279 147.51 140.45 147.352 140.505C147.194 140.559 147.023 140.477 146.969 140.319C146.971 140.321 146.971 140.319 146.969 140.317ZM149.405 147.169C149.352 147.011 149.437 146.84 149.593 146.785C149.741 146.729 149.908 146.802 149.965 146.951C149.967 146.955 149.968 146.96 149.968 146.964C150.025 147.118 149.95 147.289 149.796 147.351C149.638 147.406 149.465 147.325 149.405 147.169ZM118.752 151.735C118.803 151.598 118.955 151.525 119.094 151.574C119.233 151.623 119.304 151.775 119.255 151.916C119.206 152.055 119.054 152.126 118.913 152.077C118.776 152.025 118.705 151.874 118.752 151.735ZM124.848 153.944C124.899 153.807 125.051 153.733 125.19 153.782C125.331 153.827 125.406 153.978 125.361 154.119C125.316 154.26 125.166 154.335 125.025 154.29C125.019 154.288 125.015 154.286 125.01 154.284C124.873 154.239 124.799 154.09 124.844 153.953C124.846 153.951 124.848 153.945 124.848 153.944ZM130.958 156.342C130.924 156.283 130.92 156.214 130.947 156.15C130.997 156.013 131.149 155.939 131.289 155.988C131.431 156.039 131.507 156.193 131.456 156.336C131.456 156.338 131.456 156.338 131.454 156.339C131.424 156.424 131.354 156.488 131.268 156.51L131.259 156.516C131.21 156.531 131.157 156.525 131.114 156.501C131.039 156.479 130.98 156.417 130.958 156.342ZM137.043 158.356C137.095 158.215 137.251 158.144 137.39 158.196C137.531 158.249 137.603 158.405 137.55 158.544C137.499 158.681 137.347 158.754 137.208 158.705C137.065 158.655 136.99 158.5 137.041 158.358C137.043 158.36 137.043 158.358 137.043 158.356ZM137.172 131.796C137.114 131.657 137.172 131.497 137.308 131.432C137.437 131.369 137.592 131.424 137.653 131.554C137.655 131.557 137.655 131.561 137.657 131.565C137.723 131.696 137.668 131.858 137.535 131.922C137.533 131.922 137.531 131.924 137.53 131.924C137.398 131.982 137.242 131.926 137.172 131.796ZM139.924 137.654C139.864 137.52 139.924 137.364 140.055 137.304C140.185 137.242 140.339 137.297 140.401 137.426C140.403 137.43 140.403 137.434 140.405 137.438C140.471 137.569 140.416 137.731 140.283 137.795C140.281 137.795 140.279 137.796 140.277 137.796C140.142 137.853 139.986 137.789 139.924 137.654ZM142.677 143.538C142.611 143.407 142.666 143.245 142.799 143.181C142.801 143.181 142.803 143.179 142.805 143.179C142.929 143.115 143.081 143.164 143.145 143.288C143.149 143.296 143.152 143.303 143.156 143.311C143.222 143.442 143.167 143.604 143.034 143.668C143.032 143.668 143.03 143.67 143.029 143.67C142.895 143.726 142.741 143.668 142.677 143.538ZM145.421 149.401C145.363 149.264 145.426 149.106 145.564 149.046C145.695 148.99 145.851 149.046 145.913 149.178C145.971 149.311 145.917 149.469 145.787 149.536C145.646 149.597 145.487 149.537 145.421 149.401ZM148.174 155.283C148.11 155.15 148.164 154.988 148.298 154.923C148.431 154.859 148.593 154.915 148.659 155.047V155.048C148.717 155.188 148.659 155.347 148.523 155.413C148.39 155.468 148.239 155.411 148.174 155.283ZM126.19 165.621C126.182 165.477 126.293 165.353 126.44 165.345C126.444 165.345 126.448 165.345 126.453 165.345C126.594 165.336 126.714 165.441 126.724 165.58C126.724 165.585 126.726 165.591 126.724 165.597C126.735 165.743 126.624 165.871 126.478 165.883C126.474 165.883 126.47 165.883 126.468 165.883C126.32 165.884 126.198 165.768 126.19 165.621ZM145.622 164.74C145.62 164.592 145.735 164.469 145.885 164.464C146.033 164.458 146.157 164.577 146.161 164.727C146.165 164.875 146.048 165 145.898 165.003C145.75 165.007 145.625 164.888 145.622 164.74ZM128.053 142.702C127.947 142.598 127.942 142.429 128.043 142.322C128.143 142.213 128.308 142.205 128.417 142.303C128.524 142.405 128.535 142.572 128.441 142.687C128.338 142.797 128.165 142.803 128.053 142.702ZM132.848 147.071C132.739 146.979 132.726 146.817 132.818 146.708C132.822 146.705 132.826 146.701 132.828 146.697C132.927 146.588 133.093 146.58 133.202 146.678C133.309 146.78 133.32 146.947 133.226 147.062C133.125 147.169 132.957 147.172 132.848 147.071ZM137.635 151.448C137.526 151.348 137.518 151.183 137.616 151.074C137.716 150.965 137.881 150.957 137.99 151.055C138.099 151.155 138.107 151.32 138.009 151.429C137.909 151.538 137.744 151.546 137.635 151.448ZM150.358 131.806C150.348 131.665 150.453 131.544 150.592 131.535C150.598 131.535 150.604 131.533 150.609 131.535C150.756 131.524 150.884 131.635 150.895 131.781V131.791C150.895 131.937 150.78 132.059 150.632 132.067C150.487 132.075 150.363 131.964 150.356 131.817C150.358 131.813 150.358 131.809 150.358 131.806ZM150.651 138.287C150.645 138.139 150.758 138.011 150.906 138.001C151.056 138 151.181 138.118 151.184 138.268C151.186 138.411 151.079 138.531 150.936 138.544C150.791 138.556 150.664 138.449 150.65 138.304C150.651 138.297 150.651 138.293 150.651 138.287ZM128.998 164.124C129.013 164.037 129.095 163.977 129.182 163.992C129.268 164.007 129.328 164.09 129.313 164.176C129.298 164.263 129.216 164.323 129.129 164.308C129.045 164.291 128.986 164.21 128.998 164.124ZM136.56 165.304C136.573 165.221 136.652 165.164 136.735 165.178C136.815 165.183 136.878 165.255 136.87 165.336C136.868 165.343 136.868 165.352 136.866 165.362C136.853 165.444 136.774 165.501 136.692 165.488C136.609 165.48 136.549 165.409 136.556 165.328C136.558 165.319 136.56 165.311 136.56 165.304ZM137.415 150.493C137.364 150.424 137.379 150.326 137.449 150.273C137.518 150.222 137.616 150.237 137.669 150.307C137.722 150.377 137.705 150.474 137.635 150.527C137.563 150.58 137.466 150.565 137.415 150.493ZM146.426 162.855C146.375 162.786 146.39 162.688 146.46 162.635C146.53 162.584 146.629 162.601 146.68 162.671C146.729 162.74 146.714 162.836 146.646 162.887C146.575 162.94 146.477 162.925 146.426 162.855ZM131.369 172.169C131.352 172.086 131.401 172.003 131.482 171.979C131.569 171.962 131.655 172.015 131.678 172.101C131.7 172.182 131.651 172.267 131.571 172.289C131.569 172.289 131.567 172.291 131.565 172.291C131.478 172.306 131.392 172.253 131.369 172.169ZM135.087 171.272C135.066 171.19 135.117 171.105 135.199 171.083C135.278 171.058 135.363 171.103 135.387 171.182C135.389 171.186 135.389 171.19 135.389 171.19C135.415 171.271 135.372 171.353 135.297 171.38C135.292 171.382 135.284 171.383 135.276 171.383C135.195 171.406 135.111 171.357 135.088 171.276C135.088 171.276 135.088 171.274 135.087 171.272ZM133.527 157.571C133.576 157.501 133.67 157.478 133.745 157.518C133.818 157.559 133.845 157.655 133.801 157.728C133.799 157.732 133.799 157.732 133.796 157.736C133.756 157.809 133.664 157.836 133.591 157.796C133.587 157.794 133.581 157.793 133.581 157.793C133.504 157.742 133.482 157.646 133.527 157.571ZM136.799 159.557C136.848 159.487 136.941 159.465 137.017 159.504C137.09 159.551 137.113 159.647 137.069 159.722C137.032 159.798 136.94 159.828 136.866 159.788C136.863 159.786 136.861 159.784 136.857 159.783C136.78 159.739 136.752 159.642 136.793 159.564C136.793 159.564 136.797 159.561 136.799 159.557ZM140.065 161.56C140.104 161.487 140.196 161.46 140.27 161.5C140.274 161.502 140.279 161.504 140.283 161.508C140.358 161.555 140.381 161.652 140.336 161.726C140.287 161.795 140.193 161.818 140.117 161.778C140.044 161.737 140.018 161.641 140.059 161.568C140.061 161.564 140.063 161.562 140.065 161.56ZM145.267 148.967C145.246 148.883 145.297 148.798 145.379 148.777C145.464 148.757 145.549 148.807 145.569 148.89C145.594 148.967 145.552 149.05 145.477 149.074C145.472 149.076 145.464 149.078 145.456 149.078C145.376 149.101 145.291 149.052 145.268 148.971L145.267 148.967ZM146.165 152.686C146.146 152.598 146.201 152.511 146.287 152.491C146.37 152.474 146.448 152.526 146.467 152.607C146.492 152.684 146.451 152.767 146.375 152.791C146.37 152.793 146.362 152.795 146.355 152.795C146.274 152.818 146.189 152.769 146.167 152.688L146.165 152.686ZM147.059 156.405C147.041 156.317 147.095 156.231 147.181 156.21C147.27 156.191 147.356 156.246 147.375 156.332C147.39 156.422 147.33 156.505 147.24 156.52C147.163 156.533 147.084 156.484 147.059 156.405ZM124.508 162.821C124.538 162.731 124.638 162.682 124.728 162.714C124.73 162.714 124.732 162.714 124.732 162.714C124.826 162.744 124.878 162.842 124.85 162.936C124.848 162.94 124.847 162.945 124.845 162.949C124.815 163.039 124.715 163.088 124.625 163.056C124.623 163.056 124.621 163.056 124.621 163.056C124.525 163.019 124.476 162.915 124.508 162.821ZM128.622 164.268C128.656 164.174 128.761 164.124 128.855 164.158C128.951 164.191 129 164.297 128.966 164.391C128.936 164.481 128.836 164.53 128.746 164.498C128.746 164.498 128.742 164.498 128.74 164.496C128.646 164.471 128.59 164.376 128.616 164.28C128.618 164.276 128.62 164.272 128.622 164.268ZM136.767 149.255C136.722 149.174 136.753 149.071 136.832 149.027C136.838 149.024 136.845 149.022 136.851 149.018C136.939 148.977 137.046 149.016 137.088 149.104C137.125 149.197 137.091 149.3 137.007 149.351C136.917 149.39 136.808 149.349 136.767 149.255ZM138.65 153.194C138.608 153.102 138.651 152.993 138.744 152.953C138.832 152.912 138.939 152.951 138.98 153.04C139.018 153.132 138.984 153.235 138.9 153.286C138.807 153.323 138.699 153.284 138.65 153.194ZM142.452 161.066C142.403 160.987 142.427 160.882 142.508 160.833C142.515 160.829 142.525 160.823 142.532 160.82C142.621 160.778 142.728 160.818 142.769 160.906C142.812 160.997 142.777 161.105 142.688 161.153C142.598 161.194 142.493 161.154 142.452 161.066ZM125.555 172.22C125.545 172.12 125.617 172.032 125.716 172.022C125.72 172.022 125.722 172.022 125.726 172.022C125.826 172.024 125.906 172.099 125.916 172.199C125.921 172.298 125.846 172.383 125.746 172.388C125.745 172.388 125.743 172.388 125.741 172.388C125.643 172.391 125.561 172.317 125.555 172.22ZM129.911 171.971C129.907 171.874 129.981 171.793 130.078 171.787C130.178 171.778 130.266 171.849 130.276 171.949C130.276 171.949 130.276 171.954 130.276 171.958C130.28 172.06 130.199 172.142 130.097 172.146C130.001 172.148 129.917 172.071 129.911 171.971ZM134.275 171.733C134.265 171.641 134.333 171.558 134.425 171.55C134.43 171.549 134.434 171.55 134.442 171.55C134.536 171.539 134.622 171.605 134.635 171.699C134.635 171.703 134.635 171.706 134.637 171.712C134.647 171.812 134.575 171.9 134.476 171.909C134.376 171.919 134.288 171.847 134.278 171.748C134.275 171.742 134.275 171.736 134.275 171.733ZM130.958 156.342C130.965 156.317 130.976 156.293 130.992 156.272C131.056 156.199 131.168 156.193 131.242 156.257C131.244 156.259 131.245 156.259 131.247 156.261C131.319 156.327 131.326 156.434 131.268 156.509L131.259 156.514C131.195 156.588 131.082 156.593 131.009 156.529C131.007 156.528 131.005 156.526 131.005 156.526C130.952 156.482 130.933 156.407 130.958 156.342ZM134.267 159.438C134.194 159.376 134.183 159.266 134.245 159.19C134.245 159.19 134.245 159.188 134.246 159.188C134.312 159.113 134.425 159.104 134.506 159.162C134.577 159.233 134.585 159.346 134.523 159.425C134.455 159.5 134.34 159.506 134.267 159.438ZM137.515 162.348C137.441 162.28 137.436 162.165 137.503 162.094C137.571 162.021 137.686 162.015 137.757 162.083C137.83 162.15 137.836 162.265 137.768 162.336C137.704 162.41 137.592 162.415 137.518 162.351C137.516 162.351 137.516 162.349 137.515 162.348ZM145.941 149.037C145.936 148.937 146.011 148.853 146.11 148.847C146.112 148.847 146.114 148.847 146.116 148.847C146.214 148.843 146.295 148.917 146.3 149.014C146.311 149.108 146.246 149.195 146.152 149.208C146.148 149.208 146.144 149.208 146.139 149.21C146.039 149.213 145.951 149.138 145.941 149.037ZM146.189 153.393C146.18 153.301 146.247 153.218 146.34 153.211C146.345 153.209 146.349 153.211 146.356 153.211C146.45 153.199 146.537 153.265 146.548 153.359C146.548 153.363 146.548 153.367 146.55 153.372C146.558 153.474 146.481 153.562 146.381 153.571C146.28 153.573 146.193 153.494 146.189 153.393C146.189 153.395 146.189 153.393 146.189 153.393ZM146.428 157.755C146.422 157.655 146.499 157.571 146.597 157.565C146.695 157.56 146.779 157.635 146.787 157.732C146.796 157.832 146.725 157.92 146.625 157.93C146.622 157.93 146.62 157.93 146.616 157.93C146.52 157.929 146.437 157.854 146.428 157.755ZM114.399 146.398C114.279 146.276 114.276 146.083 114.39 145.955C114.507 145.829 114.702 145.821 114.826 145.936C114.948 146.056 114.952 146.254 114.835 146.38C114.721 146.505 114.525 146.513 114.399 146.398ZM119.883 151.498C119.757 151.382 119.75 151.186 119.865 151.063C119.981 150.936 120.177 150.929 120.301 151.044C120.427 151.16 120.434 151.356 120.319 151.48C120.204 151.608 120.009 151.615 119.883 151.498ZM125.356 156.607C125.234 156.486 125.23 156.289 125.346 156.163C125.466 156.043 125.662 156.043 125.782 156.161C125.902 156.281 125.902 156.477 125.784 156.597C125.666 156.715 125.478 156.719 125.356 156.607ZM136.312 166.817C136.19 166.696 136.186 166.499 136.302 166.373C136.421 166.251 136.614 166.247 136.738 166.365C136.859 166.482 136.864 166.673 136.75 166.798C136.631 166.924 136.438 166.931 136.312 166.817ZM142.981 133.102C142.98 132.929 143.115 132.785 143.288 132.775C143.461 132.775 143.602 132.914 143.6 133.087C143.6 133.255 143.47 133.392 143.303 133.399C143.134 133.403 142.991 133.271 142.981 133.102ZM143.245 140.584C143.241 140.415 143.372 140.272 143.542 140.26C143.713 140.253 143.857 140.387 143.865 140.558C143.873 140.729 143.739 140.873 143.568 140.881C143.398 140.884 143.256 140.753 143.245 140.584ZM143.51 148.063C143.506 147.894 143.636 147.749 143.807 147.74C143.979 147.738 144.124 147.873 144.134 148.046C144.134 148.219 143.993 148.358 143.82 148.358C143.656 148.36 143.519 148.231 143.51 148.063ZM123.007 166.456C123.067 166.294 123.247 166.211 123.409 166.272C123.57 166.332 123.653 166.512 123.593 166.674C123.533 166.836 123.353 166.918 123.191 166.858C123.031 166.794 122.95 166.617 123.007 166.456ZM130.022 169.085C130.075 168.923 130.249 168.835 130.411 168.888C130.415 168.889 130.417 168.889 130.419 168.889C130.578 168.951 130.659 169.13 130.603 169.292C130.545 169.453 130.368 169.538 130.206 169.478C130.205 169.478 130.203 169.476 130.203 169.476C130.045 169.419 129.964 169.243 130.022 169.085ZM137.041 171.701C137.099 171.539 137.278 171.456 137.439 171.515C137.441 171.515 137.443 171.517 137.443 171.517C137.593 171.575 137.667 171.74 137.612 171.89C137.618 171.9 137.618 171.9 137.614 171.915C137.561 172.063 137.402 172.144 137.249 172.103L137.219 172.095C137.065 172.042 136.981 171.873 137.035 171.717C137.037 171.712 137.039 171.706 137.041 171.701ZM128.349 140.328C128.285 140.17 128.355 139.99 128.505 139.913C128.663 139.849 128.842 139.921 128.911 140.074C128.985 140.227 128.921 140.409 128.768 140.48C128.767 140.48 128.765 140.482 128.763 140.482C128.607 140.555 128.423 140.486 128.349 140.328ZM131.461 147.146C131.39 146.988 131.46 146.804 131.617 146.731C131.77 146.661 131.948 146.731 132.018 146.883C132.091 147.037 132.027 147.22 131.873 147.293C131.719 147.366 131.536 147.302 131.463 147.148C131.463 147.148 131.461 147.148 131.461 147.146ZM134.568 153.955C134.495 153.803 134.558 153.62 134.709 153.549C134.711 153.549 134.713 153.547 134.715 153.547C134.869 153.472 135.057 153.534 135.134 153.69C135.209 153.844 135.147 154.032 134.991 154.109C134.837 154.184 134.649 154.122 134.572 153.966C134.572 153.964 134.568 153.959 134.568 153.955ZM137.674 160.763C137.607 160.607 137.68 160.425 137.836 160.359C137.988 160.294 138.165 160.361 138.236 160.512C138.307 160.664 138.242 160.848 138.089 160.921C137.932 160.991 137.746 160.921 137.674 160.763ZM124.121 171.787C124.179 171.629 124.35 171.541 124.514 171.584C124.675 171.643 124.76 171.819 124.707 171.981C124.662 172.139 124.499 172.229 124.341 172.184C124.335 172.182 124.33 172.18 124.326 172.178C124.162 172.127 124.07 171.956 124.121 171.793C124.121 171.791 124.121 171.789 124.121 171.787ZM123.294 141.232C123.221 141.08 123.289 140.896 123.441 140.822C123.593 140.749 123.777 140.817 123.85 140.969C123.92 141.117 123.86 141.296 123.713 141.373C123.557 141.45 123.371 141.386 123.294 141.232ZM126.669 147.885C126.594 147.73 126.656 147.543 126.812 147.466C126.962 147.394 127.145 147.452 127.226 147.599C127.299 147.755 127.239 147.943 127.09 148.027C126.932 148.099 126.748 148.035 126.669 147.885ZM130.045 154.536C129.969 154.381 130.031 154.194 130.187 154.116C130.338 154.039 130.524 154.098 130.601 154.25C130.678 154.4 130.619 154.586 130.467 154.663C130.315 154.74 130.129 154.686 130.045 154.536ZM133.429 161.183C133.348 161.038 133.401 160.859 133.546 160.778C133.551 160.775 133.557 160.773 133.562 160.769C133.713 160.692 133.897 160.752 133.976 160.902C134.053 161.053 133.993 161.237 133.842 161.314C133.69 161.391 133.506 161.333 133.429 161.183ZM149.948 152.758C150.006 152.596 150.183 152.511 150.344 152.564C150.502 152.619 150.587 152.793 150.532 152.951C150.487 153.109 150.324 153.199 150.166 153.154C150.16 153.152 150.154 153.15 150.151 153.148C149.987 153.098 149.895 152.927 149.946 152.763C149.948 152.763 149.948 152.761 149.948 152.758ZM119.31 158.933C119.182 158.822 119.171 158.63 119.28 158.503C119.28 158.503 119.28 158.501 119.282 158.501C119.391 158.369 119.585 158.35 119.716 158.459C119.844 158.574 119.859 158.77 119.75 158.901C119.637 159.027 119.444 159.042 119.31 158.933ZM124.985 163.785C124.856 163.676 124.839 163.483 124.948 163.351C125.057 163.221 125.25 163.205 125.382 163.313C125.384 163.313 125.384 163.315 125.386 163.317C125.512 163.432 125.527 163.625 125.42 163.759C125.309 163.887 125.117 163.898 124.989 163.789L124.985 163.785ZM130.644 168.636C130.516 168.519 130.509 168.322 130.625 168.192C130.736 168.07 130.924 168.057 131.052 168.16C131.183 168.273 131.196 168.47 131.086 168.602C130.973 168.735 130.774 168.749 130.644 168.636ZM138.883 140.736C138.873 140.565 139.003 140.417 139.174 140.403C139.341 140.392 139.488 140.518 139.499 140.685C139.518 140.851 139.402 140.999 139.234 141.02C139.231 141.02 139.225 141.021 139.221 141.021C139.05 141.04 138.898 140.914 138.881 140.745C138.881 140.741 138.881 140.738 138.881 140.738V140.736H138.883V140.736ZM139.458 148.172C139.448 148.001 139.578 147.853 139.749 147.84C139.918 147.828 140.063 147.954 140.074 148.121C140.093 148.287 139.977 148.435 139.809 148.456C139.806 148.456 139.8 148.458 139.796 148.458C139.625 148.475 139.473 148.351 139.456 148.181C139.456 148.18 139.456 148.176 139.456 148.176V148.172H139.458ZM140.608 163.047C140.6 162.876 140.73 162.729 140.899 162.714C141.068 162.703 141.213 162.829 141.224 162.996C141.234 163.163 141.112 163.31 140.948 163.33C140.775 163.345 140.623 163.22 140.608 163.049C140.608 163.05 140.606 163.049 140.608 163.047ZM127.171 173.928C127.237 173.815 127.38 173.775 127.492 173.841C127.605 173.905 127.645 174.05 127.579 174.162C127.517 174.271 127.378 174.309 127.269 174.247C127.267 174.247 127.267 174.247 127.265 174.245C127.156 174.182 127.115 174.042 127.171 173.928ZM131.362 151.269C131.328 151.145 131.403 151.018 131.527 150.985C131.65 150.954 131.776 151.025 131.811 151.145C131.847 151.264 131.783 151.387 131.665 151.425C131.657 151.427 131.65 151.429 131.642 151.431C131.522 151.461 131.397 151.39 131.362 151.269ZM132.805 156.695C132.773 156.571 132.85 156.441 132.974 156.409C133.1 156.377 133.228 156.454 133.26 156.578C133.294 156.702 133.221 156.828 133.098 156.862C133.095 156.864 133.093 156.864 133.091 156.864C132.967 156.896 132.841 156.821 132.805 156.695ZM134.254 162.132C134.222 162.008 134.299 161.878 134.423 161.846C134.547 161.814 134.677 161.891 134.709 162.015C134.741 162.139 134.664 162.269 134.54 162.301C134.414 162.331 134.29 162.256 134.254 162.132ZM122.324 159.068C122.249 158.965 122.27 158.82 122.371 158.743C122.477 158.674 122.616 158.692 122.697 158.79C122.774 158.892 122.753 159.036 122.652 159.115C122.652 159.115 122.652 159.115 122.65 159.117C122.554 159.194 122.411 159.179 122.334 159.083C122.332 159.078 122.328 159.072 122.324 159.068ZM125.739 163.545C125.662 163.44 125.681 163.293 125.78 163.21C125.882 163.133 126.027 163.154 126.106 163.255C126.184 163.351 126.171 163.494 126.076 163.571C126.074 163.573 126.07 163.575 126.068 163.577C125.968 163.659 125.823 163.646 125.741 163.547L125.739 163.545ZM129.159 168.008C129.082 167.912 129.097 167.769 129.193 167.692C129.199 167.689 129.203 167.685 129.207 167.683C129.3 167.604 129.44 167.617 129.519 167.711C129.52 167.715 129.524 167.716 129.526 167.72C129.603 167.826 129.584 167.972 129.485 168.055C129.383 168.132 129.239 168.111 129.16 168.01V168.008H129.159ZM142.281 158.766C142.303 158.636 142.425 158.548 142.553 158.57C142.677 158.591 142.762 158.704 142.75 158.828C142.734 158.957 142.615 159.05 142.484 159.033C142.354 159.014 142.263 158.895 142.281 158.766ZM128.862 169.699C128.828 169.637 128.849 169.558 128.909 169.523C128.972 169.487 129.051 169.508 129.086 169.57C129.122 169.632 129.101 169.711 129.039 169.747C129.035 169.748 129.033 169.75 129.029 169.752C128.968 169.78 128.896 169.756 128.862 169.699ZM130.31 172.4C130.278 172.342 130.3 172.266 130.358 172.234C130.358 172.234 130.36 172.234 130.362 172.232C130.417 172.198 130.488 172.216 130.52 172.27C130.524 172.276 130.526 172.281 130.529 172.285C130.565 172.343 130.55 172.42 130.492 172.456C130.49 172.458 130.486 172.46 130.482 172.46C130.418 172.485 130.343 172.46 130.31 172.4ZM135.273 169.348C135.263 169.28 135.312 169.22 135.38 169.211C135.451 169.203 135.515 169.254 135.523 169.326C135.532 169.391 135.487 169.453 135.419 169.463C135.419 169.463 135.417 169.463 135.415 169.463C135.344 169.472 135.28 169.419 135.273 169.348ZM135.573 172.407C135.566 172.336 135.616 172.272 135.688 172.265C135.759 172.257 135.823 172.308 135.831 172.379C135.839 172.451 135.788 172.514 135.716 172.522C135.645 172.529 135.581 172.477 135.573 172.407ZM128.631 163.578C128.622 163.464 128.708 163.362 128.825 163.353C128.93 163.338 129.028 163.411 129.041 163.515C129.041 163.522 129.043 163.528 129.043 163.535C129.061 163.642 128.988 163.744 128.881 163.761C128.876 163.763 128.87 163.763 128.864 163.763C128.753 163.779 128.648 163.702 128.633 163.59C128.631 163.588 128.631 163.584 128.631 163.578ZM129.165 168.639C129.146 168.532 129.219 168.431 129.327 168.414C129.332 168.412 129.338 168.412 129.343 168.412C129.454 168.395 129.559 168.472 129.575 168.585C129.575 168.585 129.576 168.594 129.576 168.6C129.588 168.715 129.505 168.82 129.39 168.833C129.28 168.844 129.178 168.764 129.167 168.653C129.167 168.649 129.167 168.645 129.167 168.645L129.165 168.639ZM129.685 173.695C129.676 173.58 129.759 173.477 129.871 173.462C129.984 173.447 130.09 173.527 130.105 173.64C130.105 173.64 130.106 173.646 130.105 173.648C130.116 173.763 130.033 173.868 129.919 173.881C129.804 173.892 129.701 173.811 129.685 173.695ZM137.25 172.101C137.221 172.052 137.214 171.994 137.231 171.938C137.267 171.827 137.383 171.765 137.496 171.795C137.543 171.814 137.584 171.846 137.612 171.889C137.618 171.898 137.618 171.898 137.614 171.913C137.644 171.956 137.652 172.011 137.639 172.062C137.603 172.172 137.486 172.235 137.374 172.205C137.321 172.184 137.278 172.148 137.25 172.101Z" fill="white"/>
<path d="M132.538 140.779C132.087 140.491 131.621 140.195 131.167 139.875C126.237 136.426 123.016 130.552 122.759 124.542C122.501 118.532 125.209 112.404 129.825 108.547L130.548 109.414C126.196 113.05 123.642 118.829 123.884 124.495C124.127 130.161 127.164 135.701 131.811 138.952C132.247 139.257 132.704 139.548 133.144 139.83L132.538 140.779Z" fill="#D62929"/>
<path d="M129.445 114.187L134.419 105.693L124.155 109.809L129.124 110.12L129.445 114.187Z" fill="#23286B"/>
<path d="M144.825 140.593L157.576 141.234L146.699 131.886L149.311 137.789L144.825 140.593Z" fill="#23286B"/>
<path d="M131.749 143.037C131.563 143.037 131.379 142.969 131.234 142.832C130.932 142.546 130.918 142.07 131.202 141.77C136.714 135.929 146.156 134.478 153.167 138.393C153.53 138.595 153.66 139.052 153.457 139.415C153.254 139.778 152.797 139.907 152.434 139.704C146.113 136.173 137.267 137.534 132.296 142.802C132.147 142.958 131.948 143.037 131.749 143.037Z" fill="#23286B"/>
<path d="M132.054 143.749C133.682 143.749 135.002 142.429 135.002 140.8C135.002 139.171 133.682 137.851 132.054 137.851C130.425 137.851 129.105 139.171 129.105 140.8C129.105 142.429 130.425 143.749 132.054 143.749Z" fill="#D62929"/>
<path d="M131.84 271.616H72.8047V276.26H131.84V271.616Z" fill="#89B3F4"/>
<path d="M88.2015 272.356L43.8461 274.348L12.4961 208.295L56.8145 208.213L88.2015 272.356Z" fill="#89B3F4"/>
<path d="M44.2592 274.274L40.0638 276.267L8.31982 210.206L12.5152 208.213L44.2592 274.274Z" fill="#A1C3FC"/>
<path d="M98.8518 271.616H40.0815V276.26H98.8518V271.616Z" fill="#A1C3FC"/>
<path d="M81.9333 265.676L43.0029 265.832L17.5078 212.565L55.9503 212.495L81.9333 265.676Z" fill="#1C2868"/>
<path d="M39.9145 218.391H34.3066V223.997H39.9145V218.391Z" fill="#56598D"/>
<path d="M34.9003 219.801H33.3662V221.335H34.9003V219.801Z" fill="#888BAF"/>
<path d="M61.2595 245.406H58.2246V248.44H61.2595V245.406Z" fill="#E94A47"/>
<path d="M64.5222 248.919H61.4873V251.953H64.5222V248.919Z" fill="#1D72D8"/>
<path d="M110.561 272.33H103.86V275.349H110.561V272.33Z" fill="#1D72D8"/>
<path d="M117.567 272.33H112.939V275.349H117.567V272.33Z" fill="#1D72D8"/>
<path d="M272.655 159.63C272.216 159.38 272.14 160.352 272.065 160.798C271.563 163.771 271.149 166.804 269.931 169.563C269.689 170.111 269.414 170.74 269.672 171.281C269.77 171.486 269.935 171.649 270.094 171.811C271.666 173.42 273.362 174.577 274.197 176.667C274.854 174.583 275.439 172.931 275.771 170.771C276.165 168.215 276.326 167.461 276.401 164.876C276.415 164.381 276.025 162.471 275.838 162.012C275.649 161.554 273.468 160.178 272.655 159.63Z" fill="#1D72D8"/>
<path d="M272.901 168.259C274.982 167.385 276.793 165.291 276.414 163.067C276.36 162.752 276.258 162.432 276.035 162.204C275.781 161.944 275.413 161.84 275.064 161.738C269.238 160.041 264.057 156.226 260.712 151.168C259.649 154.682 258.893 158.287 258.458 161.932C259.277 162.966 260.721 163.187 261.999 163.518C265.455 164.414 268.419 166.576 271.601 168.195C271.806 168.3 272.021 168.405 272.251 168.415C272.475 168.426 272.693 168.346 272.901 168.259Z" fill="url(#paint0_linear_23:1579)"/>
<path d="M267.479 157.451C267.351 154.183 266.497 150.623 263.845 148.705C262.163 147.488 259.974 147.128 257.906 147.324C255.837 147.52 253.855 148.228 251.92 148.982C249.34 149.989 246.547 151.342 245.564 153.929C244.903 155.668 245.221 157.627 245.804 159.394C246.874 162.639 248.849 165.618 251.577 167.68C252.293 168.22 253.062 168.693 253.868 169.092C254.751 170.068 255.106 170.341 256.043 171.382C256.9 172.333 257.158 171.081 257.492 170.312C258.713 170.541 259.963 170.603 261.201 170.469C262.431 170.335 263.679 169.995 264.639 169.216C266.009 168.104 266.575 166.293 266.92 164.564C267.384 162.226 267.573 159.833 267.479 157.451Z" fill="url(#paint1_linear_23:1579)"/>
<path d="M275.756 189.348C275.148 185.492 273.984 178.262 274.404 174.382C274.824 170.502 276.185 169.848 279.244 167.419C280.965 166.053 283.629 165.29 285.264 166.758C286.408 167.786 287.727 170.26 287.811 171.794C288.66 187.133 291.562 200.537 285.531 217.042C283.638 217.157 281.716 216.734 280.047 215.833C279.765 215.681 279.482 215.509 279.287 215.255C279.028 214.917 278.954 214.478 278.888 214.058C278.015 208.518 277.7 204.398 276.827 198.858C276.399 196.14 276.185 192.064 275.756 189.348Z" fill="#89B3F4"/>
<path d="M238.257 191.942C239.578 190.566 248.736 189.932 253.439 190.395C255.498 190.597 257.602 190.221 259.631 190.623C261.69 191.03 263.503 192.204 265.259 193.353C268.694 195.602 270.5 200.384 273.935 202.632C275.213 203.469 278.106 207.977 279.601 208.292C278.798 210.674 271.59 206.957 270.787 209.34C266.864 204.333 265.66 203.585 261.468 198.798C260.152 197.295 259.181 195.39 257.428 194.429C256.242 193.779 254.852 193.653 253.516 193.439C248.453 192.63 236.085 194.205 238.257 191.942Z" fill="url(#paint2_linear_23:1579)"/>
<path d="M275.899 213.847C277.279 215.385 278.679 216.939 280.403 218.078C282.128 219.216 283.869 218.323 285.559 216.916C286.855 212.134 283.09 208.798 278.946 205.012C274.803 201.226 269.335 197.081 266.198 194.043C265.884 196.146 263.821 198.502 261.838 199.273C266.591 205.239 271.397 208.832 275.899 213.847Z" fill="#89B3F4"/>
<path d="M180.386 261.951C184.83 261.102 200.533 261.949 200.533 261.949C200.533 261.949 202.297 270.545 202.253 276.204C195.625 276.213 188.997 276.222 182.369 276.231C171.23 276.246 168.596 276.351 156.834 276.111C156.584 273.471 161.858 268.621 171.472 266.355C173.597 265.856 178.242 262.361 180.386 261.951Z" fill="#F7931E"/>
<path d="M169.054 261.951C173.497 261.102 189.2 261.949 189.2 261.949C189.2 261.949 190.965 270.545 190.92 276.204C184.292 276.213 177.665 276.222 171.037 276.231C159.898 276.246 157.263 276.351 145.502 276.111C145.251 273.471 150.525 268.621 160.14 266.355C162.264 265.856 166.909 262.361 169.054 261.951Z" fill="#FBB03B"/>
<path d="M233.95 224.844C247.221 232.108 257.832 244.331 272.311 248.727C283.174 252.025 295.412 250.313 305.065 244.344C310.034 241.271 314.532 236.785 315.778 231.081C315.902 230.515 315.989 229.909 315.782 229.368C315.529 228.705 314.892 228.28 314.288 227.904C309.413 224.865 304.32 222.172 299.063 219.853C296.435 220.736 295.752 224.641 293.081 225.382C291.524 225.814 289.933 224.973 288.499 224.23C279.297 219.462 242.698 186.838 232.801 194.038C207.302 212.588 193.609 232.553 173.461 262.108C181.489 262.58 200.691 262.265 200.691 262.265C200.691 262.265 205.003 258.691 210.135 252.833C214.543 247.802 213.655 241.76 217.061 240.256C220.467 238.752 226.397 233.212 227.461 229.647C228.103 227.495 228.352 224.621 230.519 224.02C231.682 223.699 232.891 224.264 233.95 224.844Z" fill="#151A4F"/>
<path d="M304.76 185.886C306.003 185.834 307.32 185.955 308.346 186.659C309.193 187.24 309.747 188.149 310.25 189.044C317.175 201.324 319.563 216.09 316.861 229.923C316.651 230.995 316.391 232.106 315.688 232.944C314.931 233.847 313.772 234.297 312.644 234.641C309.203 235.691 305.562 236.079 301.977 235.778C299.841 235.598 297.474 235.011 296.362 233.181C295.229 231.316 295.841 228.927 296.491 226.844C298.264 221.163 300.11 215.356 299.872 209.41C299.633 203.465 296.865 197.245 291.545 194.566C293.951 189.584 299.228 186.118 304.76 185.886Z" fill="url(#paint3_linear_23:1579)"/>
<path d="M300.938 254.731C298.064 255.894 294.894 256.116 291.795 256.01C281.219 255.649 270.812 251.506 262.886 244.505C252.861 235.65 243.957 222.028 231.317 217.643C222.795 215.038 225.687 226.126 216.882 235.36C213.404 239.008 208.284 239.347 205.404 242.829C202.1 246.824 204.325 244.969 201.578 251.688C200.776 253.648 190.474 262.076 189.201 262.108C180.272 262.336 177.824 262.457 168.267 262.223C177.396 240.728 198.447 219.206 214.15 196.617C215.022 195.362 216.385 194.422 217.858 194.011C218.853 193.734 219.906 193.801 220.934 193.885C245.567 195.877 269.526 205.515 288.665 221.131C290.273 222.443 291.878 223.07 293.032 225.166C293.88 226.705 293.219 229.613 292.823 232.188C292.426 234.762 292.114 236.14 294.606 236.904C293.622 232.361 294.082 224.851 294.082 224.851C294.082 224.851 297.255 221.176 298.823 218.869C304.992 222.138 311.875 222.399 318.322 219.716C318.322 229.672 315.966 234.857 312.655 241.765C310.078 247.14 306.469 252.491 300.938 254.731Z" fill="url(#paint4_linear_23:1579)"/>
<path d="M273.76 162.859C275.121 161.027 281.773 162.224 284.468 163.745C294.517 169.417 301.877 175.708 308.385 185.23C310.585 188.449 312.183 191.185 314.553 197.012C309.251 197.357 307.723 204.519 293.242 208.082C290.514 198.859 287.882 193.744 281.699 188.379C277.055 184.348 276.546 183.435 274.564 176.011C273.305 171.295 271.828 167.971 273.76 162.859Z" fill="url(#paint5_linear_23:1579)"/>
<path d="M281.689 184.502C279.451 195.496 278.393 206.728 278.54 217.945C275.77 217.67 273.098 216.49 271.03 214.629C270.716 215.258 270.401 215.888 270.087 216.516" stroke="black" stroke-width="2.04387" stroke-miterlimit="10"/>
<path d="M265.181 159.142C267.341 158.388 269.616 156.906 269.846 154.632C270.05 152.618 268.569 150.866 267.186 149.386C265.718 147.813 264.25 146.24 262.781 144.668C262.469 144.333 262.143 143.99 261.718 143.817C261.115 143.572 260.431 143.72 259.804 143.896C256.653 144.781 253.73 146.315 250.834 147.837C249.776 148.393 248.708 148.957 247.806 149.741C245.282 151.935 244.224 156.008 245.655 159.029C248.326 158.024 251.48 159.111 254.263 159.747C257.863 160.57 261.694 160.358 265.181 159.142Z" fill="#428DFC"/>
<path d="M260.329 156.647C255.058 156.647 249.875 155.728 245.171 153.916C244.974 153.84 244.877 153.619 244.953 153.424C245.029 153.227 245.25 153.13 245.445 153.206C252.834 156.052 261.435 156.655 269.664 154.904C269.868 154.86 270.071 154.991 270.116 155.197C270.16 155.403 270.029 155.604 269.823 155.648C266.684 156.316 263.491 156.647 260.329 156.647Z" fill="#E94A47"/>
<path d="M252.703 156.898C249.808 156.898 247.118 156.473 244.639 155.619C244.44 155.551 244.334 155.334 244.403 155.136C244.471 154.937 244.688 154.832 244.887 154.9C251.575 157.202 259.905 156.29 269.64 152.189C269.833 152.107 270.057 152.198 270.139 152.392C270.221 152.585 270.13 152.809 269.937 152.89C263.598 155.561 257.833 156.898 252.703 156.898Z" fill="#E94A47"/>
<path d="M261.155 143.137C259.564 139.269 261.206 133.656 264.115 130.647C267.023 127.637 271.264 126.167 275.446 125.945C276.762 125.876 278.135 125.931 279.31 126.527C280.486 127.122 281.41 128.381 281.249 129.688C279.657 128.876 277.633 129.359 276.243 130.484C274.855 131.608 274.002 133.26 273.365 134.928C272.857 136.261 272.444 137.671 271.546 138.781C270.542 140.021 269.047 140.744 267.588 141.393C265.704 142.232 263.675 144.028 261.855 143.056C261.66 146.273 261.36 143.754 261.155 143.137Z" fill="#428DFC"/>
<path d="M261.087 142.681C260.997 142.681 260.916 142.615 260.9 142.522C260.342 139.272 260.302 135.97 260.778 132.706C261.232 129.593 262.103 127.384 263.518 125.753C265.354 123.638 268.198 122.769 270.434 123.643C270.532 123.681 270.58 123.791 270.542 123.889C270.504 123.987 270.393 124.035 270.296 123.997C268.207 123.181 265.539 124.006 263.806 126.003C262.441 127.576 261.599 129.723 261.155 132.76C260.685 135.985 260.725 139.248 261.276 142.457C261.294 142.561 261.224 142.659 261.12 142.677C261.109 142.68 261.098 142.681 261.087 142.681Z" fill="#428DFC"/>
<path d="M253.317 170.495C252.478 170.495 251.557 170.22 250.724 169.721C248.826 168.583 247.947 166.68 248.722 165.389C249.122 164.723 249.916 164.341 250.9 164.341C251.739 164.341 252.66 164.616 253.493 165.115C255.391 166.253 256.27 168.156 255.495 169.447C255.095 170.113 254.3 170.495 253.317 170.495ZM250.9 165.102C250.19 165.102 249.634 165.349 249.375 165.78C248.838 166.675 249.635 168.181 251.116 169.068C251.831 169.497 252.613 169.733 253.316 169.733C254.026 169.733 254.581 169.486 254.841 169.055C255.378 168.16 254.581 166.654 253.1 165.767C252.384 165.338 251.603 165.102 250.9 165.102Z" fill="#23286B"/>
<path d="M263.441 141.426H259.034V145.827H263.441V141.426Z" fill="#E94A47"/>
<path d="M319.685 254.956H278.446V264.703H319.685V254.956Z" fill="#D62929"/>
<path d="M311.5 264.703H270.262V274.45H311.5V264.703Z" fill="#428DFC"/>
<path d="M320 256.999H281.28V262.659H320V256.999Z" fill="#D6D7D8"/>
<path d="M296.705 267.048H282.224V271.764H296.705V267.048Z" fill="#EEEEEE"/>
<path d="M221.363 194.915L237.686 187.854C237.686 187.854 274.29 200.281 274.042 201.128C273.796 201.975 264.397 211.013 263.408 211.577C262.418 212.141 221.363 194.915 221.363 194.915Z" fill="url(#paint6_linear_23:1579)"/>
<path d="M230.668 196.485C230.599 196.485 230.532 196.447 230.499 196.382C230.451 196.288 230.488 196.174 230.582 196.126L240.135 191.254C240.229 191.207 240.343 191.243 240.391 191.337C240.439 191.431 240.401 191.545 240.308 191.593L230.755 196.465C230.727 196.478 230.698 196.485 230.668 196.485Z" fill="#23286B"/>
<path d="M234.749 198.709C234.682 198.709 234.618 198.673 234.582 198.612C234.531 198.52 234.564 198.404 234.656 198.352L244.116 193.057C244.207 193.006 244.323 193.038 244.375 193.129C244.427 193.221 244.394 193.337 244.302 193.388L234.842 198.684C234.813 198.701 234.78 198.709 234.749 198.709Z" fill="#23286B"/>
<path d="M241.89 202.309C241.828 202.309 241.766 202.278 241.729 202.222C241.673 202.133 241.699 202.015 241.788 201.959L252.453 195.182C252.541 195.127 252.659 195.151 252.716 195.24C252.772 195.329 252.746 195.446 252.657 195.502L241.992 202.28C241.961 202.3 241.925 202.309 241.89 202.309Z" fill="#23286B"/>
<path d="M259.512 206.864C259.453 206.864 259.395 206.838 259.358 206.787C259.296 206.702 259.314 206.583 259.399 206.52L267.931 200.272C268.015 200.21 268.135 200.228 268.197 200.313C268.259 200.397 268.241 200.516 268.157 200.579L259.625 206.827C259.591 206.852 259.551 206.864 259.512 206.864Z" fill="#23286B"/>
<path d="M252.927 203.793C252.864 203.793 252.803 203.761 252.766 203.705C252.709 203.617 252.735 203.499 252.824 203.443L261.635 197.83C261.723 197.774 261.842 197.799 261.898 197.888C261.954 197.977 261.928 198.094 261.839 198.151L253.028 203.764C252.997 203.783 252.962 203.793 252.927 203.793Z" fill="#23286B"/>
<path d="M256.883 192.623C255.782 192.862 252.869 193.723 251.734 194.321C250.692 194.87 249.167 195.852 249.092 197.025C248.991 198.586 251.634 197.108 253.063 196.577C255.82 195.554 259.029 195.171 263.316 195.887C264.285 196.048 265.589 195.444 265.015 195.104C264.441 194.765 264.045 194.274 262.943 193.724C261.644 193.075 258.345 192.305 256.883 192.623Z" fill="#FFBEB6"/>
<path d="M270.086 211.283C266.637 211.283 255.09 208.924 248.922 206.117C247.243 205.352 243.23 200.543 242.382 200.087C239.653 198.623 234.696 196.777 234.5 197.192C232.62 200.323 237.866 199.427 240.144 202.359C235.931 200.864 232.602 199.355 228.389 197.86C228.888 201.874 231.821 200.761 233.246 202.828C233.527 203.235 235.669 209.973 236.103 210.207C236.646 210.5 237.303 210.436 237.917 210.375C241.259 210.044 244.634 210.063 247.972 210.428C250.123 210.662 263.282 217.653 265.382 218.173C265.474 216.854 269.623 212.523 270.086 211.283Z" fill="url(#paint7_linear_23:1579)"/>
<path d="M285.162 171.495C284.089 168.829 280.324 166.316 277.527 166.985C274.487 167.712 274.164 171.489 274.195 174.612C274.248 179.94 274.693 186.93 274.969 190.817C275.377 196.563 274.165 202.23 273.085 207.888C272.891 208.931 272.523 209.808 272.047 210.555C264.186 210.987 256.213 209.371 249.167 205.859C247.6 208.375 246.681 211.29 246.522 214.249C246.489 214.847 246.5 215.491 246.843 215.983C247.232 216.54 247.939 216.758 248.594 216.936C258.848 219.721 267.803 221.717 278.396 222.556C278.716 222.585 278.995 222.425 279.236 222.132C279.431 222.025 279.584 221.879 279.687 221.682C282.034 217.192 283.563 210.773 284.599 205.176C285.736 199.037 286.204 193.416 286.988 187.221C287.633 182.115 287.105 176.324 285.162 171.495Z" fill="#A1C3FC"/>
<path d="M320 261.28H281.28V261.993H320V261.28Z" fill="#EEEEEE"/>
<path d="M320 259.853H281.28V260.566H320V259.853Z" fill="#EEEEEE"/>
<path d="M320 258.426H281.28V259.139H320V258.426Z" fill="#EEEEEE"/>
<path d="M320 256.999H281.28V257.713H320V256.999Z" fill="#EEEEEE"/>
<path d="M303.516 272.301C305.015 272.301 306.23 271.087 306.23 269.59C306.23 268.093 305.015 266.879 303.516 266.879C302.018 266.879 300.803 268.093 300.803 269.59C300.803 271.087 302.018 272.301 303.516 272.301Z" fill="#23286B"/>
<path d="M276.447 176.563C276.498 176.516 276.5 176.467 276.453 176.416C276.406 176.365 276.356 176.363 276.305 176.41C276.254 176.457 276.253 176.507 276.3 176.558C276.347 176.609 276.398 176.561 276.447 176.563ZM279.667 166.66C279.716 166.661 279.768 166.614 279.769 166.566C279.771 166.517 279.724 166.465 279.675 166.464C279.626 166.462 279.575 166.509 279.573 166.558C279.52 166.654 279.616 166.707 279.667 166.66ZM277.715 171.55C277.764 171.551 277.813 171.553 277.865 171.506C277.866 171.457 277.868 171.408 277.82 171.357C277.772 171.355 277.722 171.353 277.671 171.401C277.619 171.497 277.666 171.547 277.715 171.55ZM288.428 179.807C288.524 179.86 288.625 179.814 288.677 179.718C288.73 179.621 288.685 179.521 288.588 179.469C288.492 179.416 288.391 179.461 288.338 179.558C288.237 179.653 288.33 179.803 288.428 179.807ZM284.065 178.073C284.161 178.126 284.262 178.081 284.314 177.984C284.367 177.888 284.322 177.787 284.225 177.735C284.128 177.682 284.028 177.728 283.975 177.824C283.923 177.92 283.969 178.02 284.065 178.073ZM279.704 176.291C279.801 176.343 279.901 176.298 279.954 176.201C280.007 176.105 279.961 176.005 279.864 175.952C279.768 175.9 279.668 175.945 279.615 176.042C279.562 176.138 279.607 176.238 279.704 176.291ZM281.28 186.863C281.332 186.767 281.336 186.669 281.291 186.569C281.194 186.516 281.096 186.513 280.996 186.558C280.943 186.654 280.94 186.752 280.987 186.803C281.079 186.954 281.178 186.958 281.28 186.863ZM277.908 183.594C277.961 183.497 277.964 183.399 277.919 183.3C277.823 183.247 277.725 183.243 277.625 183.289C277.572 183.385 277.568 183.483 277.615 183.534C277.71 183.636 277.857 183.641 277.908 183.594ZM288.041 170.359C288.139 170.363 288.241 170.268 288.245 170.17C288.249 170.072 288.154 169.971 288.056 169.966C287.958 169.963 287.856 170.057 287.852 170.156C287.847 170.254 287.942 170.356 288.041 170.359ZM283.317 170.381C283.415 170.384 283.517 170.29 283.521 170.192C283.525 170.094 283.43 169.992 283.332 169.988C283.234 169.984 283.132 170.079 283.128 170.177C283.125 170.276 283.219 170.377 283.317 170.381ZM278.643 170.404C278.741 170.408 278.843 170.313 278.847 170.215C278.851 170.117 278.756 170.016 278.658 170.011C278.56 170.008 278.458 170.102 278.454 170.2C278.448 170.348 278.545 170.401 278.643 170.404ZM277.964 190.033C278.015 189.985 278.07 189.84 277.974 189.787C277.926 189.736 277.781 189.682 277.728 189.778C277.677 189.825 277.622 189.971 277.719 190.023C277.764 190.124 277.863 190.127 277.964 190.033ZM285.97 174.459C286.068 174.462 286.168 174.417 286.172 174.319C286.175 174.221 286.127 174.17 286.031 174.118C285.933 174.114 285.833 174.16 285.83 174.258C285.826 174.355 285.872 174.455 285.97 174.459ZM281.802 174.108C281.9 174.112 282 174.066 282.003 173.968C282.007 173.87 281.959 173.819 281.863 173.767C281.765 173.763 281.665 173.809 281.662 173.907C281.657 174.004 281.703 174.104 281.802 174.108ZM277.635 173.708C277.733 173.712 277.834 173.667 277.837 173.569C277.84 173.471 277.793 173.42 277.697 173.367C277.598 173.364 277.498 173.409 277.495 173.507C277.49 173.654 277.537 173.705 277.635 173.708ZM281.396 182.397C281.493 182.449 281.593 182.404 281.646 182.307C281.698 182.211 281.653 182.111 281.556 182.059C281.46 182.006 281.359 182.051 281.307 182.148C281.254 182.244 281.298 182.393 281.396 182.397ZM277.679 180.49C277.776 180.543 277.876 180.498 277.926 180.45C277.979 180.354 277.934 180.254 277.837 180.202C277.741 180.149 277.64 180.194 277.588 180.291C277.537 180.337 277.582 180.437 277.679 180.49ZM283.068 166.491C283.168 166.445 283.219 166.398 283.173 166.298C283.128 166.198 283.031 166.145 282.981 166.193C282.88 166.238 282.828 166.334 282.873 166.434C282.873 166.434 282.97 166.487 283.068 166.491ZM279.087 167.719C279.187 167.674 279.24 167.577 279.194 167.478C279.149 167.377 279.052 167.325 278.952 167.37C278.852 167.416 278.799 167.512 278.847 167.563C278.891 167.712 278.987 167.764 279.087 167.719C279.038 167.717 279.087 167.719 279.087 167.719ZM282.14 191.513C282.236 191.566 282.337 191.521 282.39 191.424C282.442 191.328 282.397 191.227 282.3 191.175C282.204 191.122 282.103 191.168 282.051 191.264C281.998 191.361 282.044 191.461 282.14 191.513ZM277.842 189.34C277.939 189.393 278.039 189.347 278.092 189.251C278.145 189.154 278.099 189.054 278.002 189.002C277.906 188.949 277.806 188.994 277.753 189.091C277.703 189.139 277.746 189.287 277.842 189.34ZM283.925 171.238C284.025 171.193 284.078 171.097 284.032 170.997C283.987 170.897 283.89 170.845 283.79 170.89C283.69 170.935 283.638 171.031 283.683 171.131C283.68 171.23 283.825 171.284 283.925 171.238ZM279.294 172.738C279.395 172.693 279.447 172.596 279.402 172.497C279.356 172.396 279.259 172.344 279.159 172.389C279.059 172.435 279.007 172.531 279.052 172.631C279.1 172.682 279.194 172.783 279.294 172.738ZM282.749 181.709C282.848 181.713 282.949 181.618 282.954 181.52C282.957 181.422 282.862 181.321 282.764 181.316C282.666 181.313 282.564 181.407 282.56 181.506C282.557 181.604 282.651 181.706 282.749 181.709ZM277.943 181.335C278.041 181.339 278.142 181.244 278.147 181.146C278.15 181.048 278.056 180.946 277.957 180.942C277.859 180.939 277.758 181.033 277.753 181.131C277.75 181.23 277.795 181.33 277.943 181.335ZM283.317 184.973C283.415 184.977 283.517 184.882 283.521 184.784C283.525 184.686 283.43 184.585 283.332 184.58C283.234 184.576 283.133 184.622 283.128 184.77C283.125 184.868 283.219 184.97 283.317 184.973ZM278.517 184.403C278.615 184.406 278.717 184.312 278.721 184.213C278.725 184.115 278.679 184.015 278.532 184.01C278.434 184.006 278.332 184.101 278.279 184.197C278.325 184.297 278.419 184.399 278.517 184.403ZM280.179 175.424C280.279 175.378 280.332 175.282 280.335 175.184C280.29 175.084 280.194 175.032 280.095 175.028C279.995 175.073 279.942 175.17 279.939 175.268C279.935 175.366 280.08 175.42 280.179 175.424Z" fill="white"/>
<path d="M272.676 159.645C273.405 161.946 270.91 169.226 270.857 169.487C270.805 169.738 274.349 177.701 274.349 177.701C274.349 177.701 275.778 173.121 276.224 170.809C276.764 168.009 277.736 164.733 276.602 162.116C276.528 161.947 273.095 159.956 272.676 159.645Z" fill="#428DFC"/>
<defs>
<linearGradient id="paint0_linear_23:1579" x1="281.853" y1="158.701" x2="263.892" y2="159.982" gradientUnits="userSpaceOnUse">
<stop stop-color="#FFBEB6"/>
<stop offset="1" stop-color="#F2A19C"/>
</linearGradient>
<linearGradient id="paint1_linear_23:1579" x1="264.309" y1="159.455" x2="242.019" y2="159.605" gradientUnits="userSpaceOnUse">
<stop stop-color="#FFBEB6"/>
<stop offset="1" stop-color="#F2A19C"/>
</linearGradient>
<linearGradient id="paint2_linear_23:1579" x1="264.153" y1="199.833" x2="243.195" y2="199.6" gradientUnits="userSpaceOnUse">
<stop stop-color="#FFBEB6"/>
<stop offset="1" stop-color="#F2A19C"/>
</linearGradient>
<linearGradient id="paint3_linear_23:1579" x1="303.784" y1="213.964" x2="310.237" y2="188.395" gradientUnits="userSpaceOnUse">
<stop stop-color="#428DFC"/>
<stop offset="1" stop-color="#1D72D8"/>
</linearGradient>
<linearGradient id="paint4_linear_23:1579" x1="246.535" y1="215.443" x2="240.429" y2="266.666" gradientUnits="userSpaceOnUse">
<stop stop-color="#23286B"/>
<stop offset="1" stop-color="#151A4F"/>
</linearGradient>
<linearGradient id="paint5_linear_23:1579" x1="279.961" y1="181.48" x2="317.286" y2="200.106" gradientUnits="userSpaceOnUse">
<stop stop-color="#A1C3FC"/>
<stop offset="1" stop-color="#78A9EF"/>
</linearGradient>
<linearGradient id="paint6_linear_23:1579" x1="221.363" y1="199.723" x2="274.044" y2="199.723" gradientUnits="userSpaceOnUse">
<stop stop-color="#EEEEEE"/>
<stop offset="1" stop-color="#D6D7D8"/>
</linearGradient>
<linearGradient id="paint7_linear_23:1579" x1="249.21" y1="203.916" x2="249.753" y2="216.911" gradientUnits="userSpaceOnUse">
<stop stop-color="#FFBEB6"/>
<stop offset="1" stop-color="#F2A19C"/>
</linearGradient>
</defs>
</svg>
